STARTFONT 2.1
FONT -Adobe-Times-Medium-I-Normal--34-240-100-100-P-168-ISO10646-1
SIZE 24 100 100
FONTBOUNDINGBOX 41 52 -6 -15
COMMENT $Xorg: $
COMMENT ISO10646-1 extension by Markus Kuhn <mkuhn@acm.org>, 2001-03-20
COMMENT 
COMMENT +
COMMENT  Copyright 1984-1989, 1994 Adobe Systems Incorporated.
COMMENT  Copyright 1988, 1994 Digital Equipment Corporation.
COMMENT
COMMENT  Adobe is a trademark of Adobe Systems Incorporated which may be
COMMENT  registered in certain jurisdictions.
COMMENT  Permission to use these trademarks is hereby granted only in
COMMENT  association with the images described in this file.
COMMENT
COMMENT  Permission to use, copy, modify, distribute and sell this software
COMMENT  and its documentation for any purpose and without fee is hereby
COMMENT  granted, provided that the above copyright notices appear in all
COMMENT  copies and that both those copyright notices and this permission
COMMENT  notice appear in supporting documentation, and that the names of
COMMENT  Adobe Systems and Digital Equipment Corporation not be used in
COMMENT  advertising or publicity pertaining to distribution of the software
COMMENT  without specific, written prior permission.  Adobe Systems and
COMMENT  Digital Equipment Corporation make no representations about the
COMMENT  suitability of this software for any purpose.  It is provided "as
COMMENT  is" without express or implied warranty.
COMMENT -
STARTPROPERTIES 26
FOUNDRY "Adobe"
FAMILY_NAME "Times"
WEIGHT_NAME "Medium"
SLANT "I"
SETWIDTH_NAME "Normal"
ADD_STYLE_NAME ""
PIXEL_SIZE 34
POINT_SIZE 240
RESOLUTION_X 100
RESOLUTION_Y 100
SPACING "P"
AVERAGE_WIDTH 168
CHARSET_REGISTRY "ISO10646"
CHARSET_ENCODING "1"
CAP_HEIGHT 23
X_HEIGHT 15
FONT_ASCENT 27
FONT_DESCENT 7
FACE_NAME "Times Italic"
COPYRIGHT "Copyright (c) 1984, 1987 Adobe Systems Incorporated. All Rights Reserved. Copyright (c) 1988, 1991 Digital Equipment Corporation. All Rights Reserved."

STARTCHAR char0
ENCODING 0
SWIDTH 722 0
DWIDTH 24 0
BBX 25 23 0 0
BITMAP
AAAAAA80
00000000
80000080
00000000
80000080
00000000
80000080
00000000
80000080
00000000
80000080
00000000
80000080
00000000
80000080
00000000
80000080
00000000
80000080
00000000
80000080
00000000
AAAAAA80
ENDCHAR
STARTCHAR space
ENCODING 32
SWIDTH 250 0
DWIDTH 8 0
BBX 1 1 0 0
BITMAP
00
ENDCHAR
STARTCHAR exclam
ENCODING 33
SWIDTH 333 0
DWIDTH 11 0
BBX 8 23 2 0
BITMAP
03
07
07
07
07
0E
0E
0E
0C
0C
18
18
18
10
30
30
20
00
00
00
E0
E0
E0
ENDCHAR
STARTCHAR quotedbl
ENCODING 34
SWIDTH 420 0
DWIDTH 14 0
BBX 10 8 4 15
BITMAP
2080
71C0
71C0
E380
E380
C300
C300
8200
ENDCHAR
STARTCHAR numbersign
ENCODING 35
SWIDTH 500 0
DWIDTH 17 0
BBX 17 23 1 0
BITMAP
018600
018600
010600
030C00
030C00
030C00
020800
3FFF80
3FFF80
061800
0C3000
0C3000
0C3000
186000
FFFE00
FFFE00
186000
30C000
30C000
30C000
608000
618000
618000
ENDCHAR
STARTCHAR dollar
ENCODING 36
SWIDTH 500 0
DWIDTH 16 0
BBX 15 28 1 -3
BITMAP
0020
0020
03F0
0E7C
0C4E
1846
1844
18C4
1C80
0E80
0F80
0780
03C0
01E0
01F0
0178
0338
023C
821C
821C
861C
C418
C438
74F0
1FC0
0800
0800
0800
ENDCHAR
STARTCHAR percent
ENCODING 37
SWIDTH 833 0
DWIDTH 27 0
BBX 24 24 2 -1
BITMAP
07C0E0
1C63C0
383FC0
703D80
602180
E06300
E06300
C0C600
C0C600
E18C00
638800
3E183E
0030E3
0031C1
006381
006301
00C703
00C703
018606
018606
03070C
02031C
0601F0
040000
ENDCHAR
STARTCHAR ampersand
ENCODING 38
SWIDTH 778 0
DWIDTH 26 0
BBX 21 23 3 0
BITMAP
003E00
006700
00C300
00C300
018300
018600
018E00
019C00
01F000
01E000
01C000
06E3F8
1CE0E0
3860C0
707180
707100
E03B00
E03E00
E01C00
E01E00
F07F10
7FE7E0
1F03C0
ENDCHAR
STARTCHAR quotesingle
ENCODING 39
SWIDTH 214 0
DWIDTH 7 0
BBX 4 8 4 15
BITMAP
20
70
70
E0
E0
C0
C0
80
ENDCHAR
STARTCHAR parenleft
ENCODING 40
SWIDTH 333 0
DWIDTH 11 0
BBX 10 29 2 -6
BITMAP
00C0
0180
0300
0600
0C00
0C00
1800
3800
3000
7000
7000
6000
E000
E000
E000
E000
C000
C000
C000
C000
C000
C000
C000
4000
4000
6000
2000
2000
1000
ENDCHAR
STARTCHAR parenright
ENCODING 41
SWIDTH 333 0
DWIDTH 11 0
BBX 10 29 -1 -6
BITMAP
0200
0100
0100
0180
0080
0080
00C0
00C0
00C0
00C0
00C0
00C0
00C0
01C0
01C0
01C0
01C0
0180
0380
0380
0300
0700
0600
0C00
0C00
1800
3000
6000
C000
ENDCHAR
STARTCHAR asterisk
ENCODING 42
SWIDTH 500 0
DWIDTH 17 0
BBX 12 13 2 10
BITMAP
0600
0600
C630
E670
76E0
1F80
0F00
1F80
76E0
E670
C630
0600
0600
ENDCHAR
STARTCHAR plus
ENCODING 43
SWIDTH 675 0
DWIDTH 23 0
BBX 16 16 3 0
BITMAP
0180
0180
0180
0180
0180
0180
0180
FFFF
FFFF
0180
0180
0180
0180
0180
0180
0180
ENDCHAR
STARTCHAR comma
ENCODING 44
SWIDTH 250 0
DWIDTH 8 0
BBX 5 8 -1 -4
BITMAP
38
38
38
18
10
30
60
C0
ENDCHAR
STARTCHAR hyphen
ENCODING 45
SWIDTH 333 0
DWIDTH 11 0
BBX 7 2 2 6
BITMAP
FE
FE
ENDCHAR
STARTCHAR period
ENCODING 46
SWIDTH 250 0
DWIDTH 8 0
BBX 3 3 1 0
BITMAP
E0
E0
E0
ENDCHAR
STARTCHAR slash
ENCODING 47
SWIDTH 278 0
DWIDTH 9 0
BBX 10 24 -1 -1
BITMAP
00C0
0180
0180
0180
0300
0300
0300
0600
0600
0600
0C00
0C00
0C00
1800
1800
1800
1800
3000
3000
3000
6000
6000
6000
C000
ENDCHAR
STARTCHAR zero
ENCODING 48
SWIDTH 500 0
DWIDTH 16 0
BBX 16 23 0 0
BITMAP
0078
01DC
030E
0606
0C07
1C07
1807
3807
3007
7007
7007
700E
E00E
E00E
E01C
E01C
E018
E038
E030
6060
70E0
3B80
1F00
ENDCHAR
STARTCHAR one
ENCODING 49
SWIDTH 500 0
DWIDTH 16 0
BBX 12 23 1 0
BITMAP
0030
01F0
0070
0070
0060
00E0
00E0
00E0
01C0
01C0
01C0
0180
0380
0380
0380
0700
0700
0700
0600
0E00
0E00
1E00
FFC0
ENDCHAR
STARTCHAR two
ENCODING 50
SWIDTH 500 0
DWIDTH 16 0
BBX 16 23 -1 0
BITMAP
00F0
03FC
07FE
0C1E
180F
1007
0007
0007
000F
000E
001E
003C
0038
0070
00E0
01C0
0380
0600
0C02
1806
300C
7FFC
FFF8
ENDCHAR
STARTCHAR three
ENCODING 51
SWIDTH 500 0
DWIDTH 16 0
BBX 15 23 0 0
BITMAP
00F8
03FC
041E
080E
000E
000E
000C
001C
0078
03E0
0FC0
00E0
0070
0078
0038
0038
0038
0030
C070
E060
F0C0
7F80
1E00
ENDCHAR
STARTCHAR four
ENCODING 52
SWIDTH 500 0
DWIDTH 16 0
BBX 17 23 -1 0
BITMAP
000180
000380
000700
000F00
001F00
003600
006E00
00CE00
018E00
030C00
061C00
0C1C00
181C00
303800
7FFF00
FFFE00
FFFE00
003000
007000
007000
006000
00E000
00E000
ENDCHAR
STARTCHAR five
ENCODING 53
SWIDTH 500 0
DWIDTH 16 0
BBX 16 23 0 0
BITMAP
07FF
07FE
07FC
0C00
0C00
1800
1800
1F00
3FE0
3FF0
01F0
0078
003C
001C
001C
001C
001C
0018
C018
E030
F060
7FC0
1E00
ENDCHAR
STARTCHAR six
ENCODING 54
SWIDTH 500 0
DWIDTH 16 0
BBX 14 23 1 0
BITMAP
000C
0030
00E0
01C0
0380
0700
0E00
1C00
3BE0
3F78
7C38
701C
701C
E01C
E01C
E01C
E01C
E038
E038
6070
70E0
3FC0
0F00
ENDCHAR
STARTCHAR seven
ENCODING 55
SWIDTH 500 0
DWIDTH 16 0
BBX 15 23 3 0
BITMAP
3FFE
7FFC
7FF8
8018
0030
0030
0060
00E0
00C0
0180
0180
0300
0700
0600
0E00
0C00
1800
3800
3000
7000
6000
C000
C000
ENDCHAR
STARTCHAR eight
ENCODING 56
SWIDTH 500 0
DWIDTH 16 0
BBX 15 23 0 0
BITMAP
03F0
0F1C
0E0E
1C06
1C06
1C06
1E06
0F0C
0F98
07E0
03C0
0FE0
3CF0
7078
7038
E03C
E01C
E01C
E01C
E038
7038
78F0
1FC0
ENDCHAR
STARTCHAR nine
ENCODING 57
SWIDTH 500 0
DWIDTH 16 0
BBX 14 23 1 0
BITMAP
03C0
0FF0
1C38
3818
701C
701C
E01C
E01C
E01C
E01C
E038
E038
70F8
7BF0
1F70
00E0
01C0
0380
0700
0E00
1C00
7000
C000
ENDCHAR
STARTCHAR colon
ENCODING 58
SWIDTH 333 0
DWIDTH 11 0
BBX 6 15 3 0
BITMAP
1C
1C
1C
00
00
00
00
00
00
00
00
00
E0
E0
E0
ENDCHAR
STARTCHAR semicolon
ENCODING 59
SWIDTH 333 0
DWIDTH 11 0
BBX 8 20 1 -5
BITMAP
07
07
07
00
00
00
00
00
00
00
00
00
38
38
38
18
10
30
60
C0
ENDCHAR
STARTCHAR less
ENCODING 60
SWIDTH 675 0
DWIDTH 23 0
BBX 17 17 3 0
BITMAP
000180
000780
001E00
007800
01E000
07C000
1F0000
7C0000
F00000
7C0000
1F0000
07C000
01E000
007800
001E00
000780
000180
ENDCHAR
STARTCHAR equal
ENCODING 61
SWIDTH 675 0
DWIDTH 23 0
BBX 17 9 3 4
BITMAP
FFFF80
FFFF80
000000
000000
000000
000000
000000
FFFF80
FFFF80
ENDCHAR
STARTCHAR greater
ENCODING 62
SWIDTH 675 0
DWIDTH 23 0
BBX 17 17 1 0
BITMAP
C00000
F00000
3C0000
0F0000
03C000
01F000
007C00
001F00
000780
001F00
007C00
01F000
03C000
0F0000
3C0000
F00000
C00000
ENDCHAR
STARTCHAR question
ENCODING 63
SWIDTH 500 0
DWIDTH 16 0
BBX 11 23 4 0
BITMAP
0F80
31C0
60E0
70E0
2060
00E0
00C0
01C0
0380
0700
0E00
0C00
1800
1800
3000
3000
2000
0000
0000
0000
E000
E000
E000
ENDCHAR
STARTCHAR at
ENCODING 64
SWIDTH 920 0
DWIDTH 31 0
BBX 26 27 2 -5
BITMAP
001FE000
007DFC00
01E01E00
03800700
07000380
0C000180
1C0001C0
380F60C0
3019E0C0
7030E0C0
7060E0C0
E0C0E0C0
E0C0C0C0
E180C0C0
E181C180
C381C180
E3818300
E3838700
63C78600
61FD9C00
71F9F800
3870E000
38000000
1C000000
0E000000
07C03000
00FFC000
ENDCHAR
STARTCHAR A
ENCODING 65
SWIDTH 611 0
DWIDTH 20 0
BBX 20 23 -2 0
BITMAP
000200
000600
000600
000E00
001F00
001700
003700
002700
006700
004700
00C780
018380
010380
030380
03FF80
060380
0C03C0
0C03C0
1801C0
1801C0
3001C0
7003E0
FC0FF0
ENDCHAR
STARTCHAR B
ENCODING 66
SWIDTH 611 0
DWIDTH 20 0
BBX 19 23 0 0
BITMAP
07FF00
01C3C0
01C1C0
01C0E0
03C0E0
0380E0
0380E0
0380E0
0781C0
070380
070F00
0FFC00
0F1F00
0E0780
0E0380
1E03C0
1E03C0
1C03C0
1C0380
3C0780
3C0F00
7C3C00
FFF000
ENDCHAR
STARTCHAR C
ENCODING 67
SWIDTH 667 0
DWIDTH 22 0
BBX 21 23 2 0
BITMAP
003F88
00FFF8
03C070
070030
0E0030
1C0020
3C0020
380000
700000
700000
F00000
E00000
E00000
E00000
E00000
E00000
E00000
F00040
700180
780300
3C0E00
1FFC00
07F000
ENDCHAR
STARTCHAR D
ENCODING 68
SWIDTH 722 0
DWIDTH 24 0
BBX 25 23 -1 0
BITMAP
03FFC000
00E0F800
00E03E00
00E00E00
01E00F00
01E00700
01C00780
01C00780
03C00380
03800780
03800380
07800780
07800780
07000700
07000700
0F000E00
0E001E00
0E001C00
1E003800
1C00F000
1C03C000
3FFF0000
FFF80000
ENDCHAR
STARTCHAR E
ENCODING 69
SWIDTH 611 0
DWIDTH 20 0
BBX 22 23 -1 0
BITMAP
03FFFC
00F01C
00E00C
00E008
01E008
01C000
01C000
03C040
03C0C0
038080
038180
07FF80
078380
070100
070100
0F0100
0E0000
0E0000
0E0020
1E0060
1E0060
3C01C0
FFFFC0
ENDCHAR
STARTCHAR F
ENCODING 70
SWIDTH 611 0
DWIDTH 20 0
BBX 22 23 0 0
BITMAP
03FFFC
00F01C
00E00C
00E008
01E008
01C000
01C000
03C040
03C0C0
038080
038180
07FF80
078380
070100
070100
0F0100
0E0000
0E0000
0E0000
1E0000
1C0000
3E0000
FF8000
ENDCHAR
STARTCHAR G
ENCODING 71
SWIDTH 722 0
DWIDTH 24 0
BBX 22 23 2 0
BITMAP
003F88
00FFF8
03C070
070030
0E0030
1C0020
3C0020
380000
700000
700000
F00000
E00000
E00FFC
E001F0
E000E0
E001E0
E001C0
F001C0
7003C0
780380
3C0780
1E0F80
07FC00
ENDCHAR
STARTCHAR H
ENCODING 72
SWIDTH 722 0
DWIDTH 24 0
BBX 26 23 0 0
BITMAP
03FC3FC0
00E00E00
00E00E00
01E01E00
01C01C00
01C01C00
03C03C00
03803800
03803800
03803800
07807800
07FFF000
07007000
0F00F000
0F00F000
0E00E000
0E00E000
0E00E000
1E01E000
1C01C000
1C01C000
3C03C000
FF0FF000
ENDCHAR
STARTCHAR I
ENCODING 73
SWIDTH 333 0
DWIDTH 11 0
BBX 13 23 -1 0
BITMAP
07F8
01E0
01C0
01C0
03C0
0380
0380
0780
0780
0700
0700
0F00
0F00
0E00
0E00
1E00
1C00
1C00
1C00
3C00
3800
7800
FE00
ENDCHAR
STARTCHAR J
ENCODING 74
SWIDTH 444 0
DWIDTH 15 0
BBX 18 23 -1 0
BITMAP
007FC0
001F00
001E00
001E00
001C00
001C00
003C00
003C00
003800
003800
007800
007000
007000
00F000
00F000
00E000
00E000
01E000
61C000
F1C000
F38000
7B8000
3E0000
ENDCHAR
STARTCHAR K
ENCODING 75
SWIDTH 667 0
DWIDTH 22 0
BBX 23 23 0 0
BITMAP
07F9FE
01E078
01C060
01C0C0
03C180
038300
038600
078C00
079800
077000
07E000
0FF000
0F7800
0E3800
0E3C00
1E1C00
1C1E00
1C0F00
1C0780
3C0780
3C03C0
3803E0
FF07F8
ENDCHAR
STARTCHAR L
ENCODING 76
SWIDTH 556 0
DWIDTH 18 0
BBX 19 23 -1 0
BITMAP
07F800
01E000
01C000
01C000
03C000
038000
038000
078000
078000
070000
070000
0F0000
0F0000
0E0000
0E0000
1E0000
1C0000
1C0020
1C0060
3C00C0
3C01C0
7FFF80
FFFF80
ENDCHAR
STARTCHAR M
ENCODING 77
SWIDTH 833 0
DWIDTH 28 0
BBX 30 23 0 0
BITMAP
07E001FC
01E001F0
01E003E0
01E003E0
036007C0
03700DC0
037009C0
03701BC0
06703380
06706380
06706780
0C70C780
0C70C700
0C718700
0C730F00
18330F00
18360E00
183C0E00
183C1E00
30381C00
30301C00
30303E00
FE20FF80
ENDCHAR
STARTCHAR N
ENCODING 78
SWIDTH 667 0
DWIDTH 22 0
BBX 25 23 -1 0
BITMAP
07C03F80
01E00E00
01E00C00
01E00C00
01700C00
01700800
03780800
03381800
02381800
021C1000
061C1000
061E3000
040E3000
040E2000
0C072000
0C076000
08076000
0803E000
1803C000
1801C000
1801C000
3801C000
FE00C000
ENDCHAR
STARTCHAR O
ENCODING 79
SWIDTH 722 0
DWIDTH 24 0
BBX 19 23 3 0
BITMAP
007E00
01C780
0301C0
0701C0
0E00E0
1E00E0
1C00E0
3800E0
7800E0
7801E0
7001E0
F001E0
F001C0
F003C0
E003C0
E00380
E00700
E00F00
E00E00
701C00
703800
3CE000
0F8000
ENDCHAR
STARTCHAR P
ENCODING 80
SWIDTH 611 0
DWIDTH 20 0
BBX 21 23 0 0
BITMAP
03FF80
00F1E0
00E070
00E070
01E038
01C038
01C038
03C038
03C070
038070
0381E0
078780
07FE00
070000
070000
0F0000
0E0000
0E0000
0E0000
1E0000
1C0000
3E0000
FF8000
ENDCHAR
STARTCHAR Q
ENCODING 81
SWIDTH 722 0
DWIDTH 24 0
BBX 20 29 2 -6
BITMAP
003F00
00E3C0
0180E0
038060
070070
0F0070
0E0070
1C0070
3C0070
3C00F0
3800F0
7800F0
7800E0
7801E0
7001E0
7001C0
700380
700780
700700
380E00
381C00
1E7000
07C000
060000
0C0000
1BC020
3FF060
79FFC0
C03F00
ENDCHAR
STARTCHAR R
ENCODING 82
SWIDTH 611 0
DWIDTH 20 0
BBX 20 23 -1 0
BITMAP
03FF80
00F3E0
00E0E0
00E070
01E070
01C070
01C070
03C070
03C0E0
0380E0
0383C0
07FF00
07FC00
071C00
071C00
0F0E00
0E0E00
0E0700
0E0700
1E0780
1C0380
3E03C0
FF83F0
ENDCHAR
STARTCHAR S
ENCODING 83
SWIDTH 500 0
DWIDTH 17 0
BBX 16 23 2 0
BITMAP
03F1
071F
0E0E
0C06
1C06
1C04
1C04
1E00
0F00
0F80
07C0
03E0
01E0
00F0
0078
0078
8038
8038
8038
C070
C070
F1E0
BF80
ENDCHAR
STARTCHAR T
ENCODING 84
SWIDTH 556 0
DWIDTH 18 0
BBX 18 23 3 0
BITMAP
FFFFC0
E1E1C0
C1E0C0
81E0C0
81C080
01C000
03C000
03C000
038000
038000
078000
078000
070000
070000
0F0000
0F0000
0E0000
0E0000
1E0000
1E0000
1E0000
3E0000
FF8000
ENDCHAR
STARTCHAR U
ENCODING 85
SWIDTH 722 0
DWIDTH 24 0
BBX 23 23 3 0
BITMAP
7FC0FE
1F0038
0E0018
0E0010
1E0030
1C0030
1C0020
3C0020
380060
380040
380040
7800C0
7000C0
700080
F00180
F00180
E00100
E00300
E00300
700600
781C00
3FF800
0FE000
ENDCHAR
STARTCHAR V
ENCODING 86
SWIDTH 611 0
DWIDTH 20 0
BBX 21 23 2 0
BITMAP
FF01F8
7C0060
380040
3800C0
380180
380180
1C0300
1C0200
1C0600
1C0C00
1E0C00
0E1800
0E1000
0E3000
0E6000
0E6000
0EC000
0F8000
078000
070000
060000
060000
040000
ENDCHAR
STARTCHAR W
ENCODING 87
SWIDTH 833 0
DWIDTH 28 0
BBX 31 23 1 0
BITMAP
FF0FE0FE
3C038038
1C038030
1C038060
1C038060
1C0380C0
1C0780C0
1C058180
1C0D8180
1C09C300
0E19C200
0E19C600
0E31C400
0E31CC00
0E61C800
0E41D800
0EC0F000
0780F000
0700E000
0700E000
0600C000
0600C000
04008000
ENDCHAR
STARTCHAR X
ENCODING 88
SWIDTH 611 0
DWIDTH 20 0
BBX 23 23 -1 0
BITMAP
1FF0FE
03E038
03C030
01C060
01E0C0
01E180
00E380
00F300
007600
007C00
007800
003800
003C00
007C00
00DE00
019E00
030E00
070F00
060700
0C0700
180780
3807C0
FE1FF0
ENDCHAR
STARTCHAR Y
ENCODING 89
SWIDTH 556 0
DWIDTH 19 0
BBX 20 23 1 0
BITMAP
7F87F0
1E01C0
1E0300
1E0300
0E0600
0E0C00
0F1800
0F1800
073000
076000
07E000
03C000
03C000
038000
038000
078000
070000
070000
070000
0E0000
0E0000
1E0000
FFC000
ENDCHAR
STARTCHAR Z
ENCODING 90
SWIDTH 556 0
DWIDTH 19 0
BBX 20 23 0 0
BITMAP
07FFF0
0FFFF0
0C01E0
0803C0
080780
000780
000F00
001E00
003C00
003C00
007800
00F000
01E000
01E000
03C000
078000
0F0000
0F0000
1E0040
3C0040
7800C0
FFFFC0
FFFF80
ENDCHAR
STARTCHAR bracketleft
ENCODING 91
SWIDTH 389 0
DWIDTH 13 0
BBX 12 29 2 -6
BITMAP
03F0
0300
0300
0700
0700
0700
0600
0600
0E00
0E00
0C00
0C00
1C00
1C00
1C00
1800
3800
3800
3800
3000
7000
7000
7000
6000
6000
E000
E000
E000
FC00
ENDCHAR
STARTCHAR backslash
ENCODING 92
SWIDTH 278 0
DWIDTH 9 0
BBX 9 23 0 0
BITMAP
C000
C000
4000
6000
6000
2000
3000
3000
1000
1800
1800
0800
0C00
0C00
0400
0600
0600
0200
0300
0300
0100
0180
0180
ENDCHAR
STARTCHAR bracketright
ENCODING 93
SWIDTH 389 0
DWIDTH 13 0
BBX 12 29 -1 -6
BITMAP
03F0
0030
0070
0070
0070
0060
0060
00E0
00E0
00E0
00C0
01C0
01C0
01C0
0180
0380
0380
0380
0300
0300
0700
0700
0600
0600
0E00
0E00
0E00
1C00
FC00
ENDCHAR
STARTCHAR asciicircum
ENCODING 94
SWIDTH 422 0
DWIDTH 14 0
BBX 15 16 -1 7
BITMAP
0380
0380
07C0
06C0
0EE0
0C60
1C70
1830
3838
3018
3018
701C
600C
E00E
C006
C006
ENDCHAR
STARTCHAR underscore
ENCODING 95
SWIDTH 500 0
DWIDTH 16 0
BBX 16 2 0 -5
BITMAP
FFFF
FFFF
ENDCHAR
STARTCHAR grave
ENCODING 96
SWIDTH 333 0
DWIDTH 11 0
BBX 6 6 5 17
BITMAP
C0
E0
70
38
0C
04
ENDCHAR
STARTCHAR a
ENCODING 97
SWIDTH 500 0
DWIDTH 16 0
BBX 15 15 1 0
BITMAP
01EC
03BC
0E1C
1C1C
181C
3818
7018
7038
E038
E030
E070
E0F2
61B4
733C
1E18
ENDCHAR
STARTCHAR b
ENCODING 98
SWIDTH 500 0
DWIDTH 16 0
BBX 15 23 1 0
BITMAP
0300
1F00
0700
0600
0600
0E00
0E00
0C00
1C78
19FC
1F1E
1E0E
3C0E
380E
380E
300C
701C
7018
6038
E070
E0E0
F380
7F00
ENDCHAR
STARTCHAR c
ENCODING 99
SWIDTH 444 0
DWIDTH 15 0
BBX 13 15 2 0
BITMAP
01E0
0630
0C38
1838
3010
3000
7000
6000
E000
E000
E000
E020
E0C0
7380
3E00
ENDCHAR
STARTCHAR d
ENCODING 100
SWIDTH 500 0
DWIDTH 16 0
BBX 16 23 1 0
BITMAP
0003
001F
0007
0007
0006
0006
0006
000E
01EC
033C
0E1C
1C1C
181C
3818
7018
7038
E038
E030
E070
E0F2
61B4
733C
1E18
ENDCHAR
STARTCHAR e
ENCODING 101
SWIDTH 444 0
DWIDTH 15 0
BBX 13 15 2 0
BITMAP
01E0
0670
0C38
1838
3070
30E0
71C0
7700
FC00
E000
E000
E020
E0C0
7380
3E00
ENDCHAR
STARTCHAR f
ENCODING 102
SWIDTH 278 0
DWIDTH 9 0
BBX 19 30 -4 -7
BITMAP
0003C0
0006E0
000CE0
001CC0
001800
003800
003000
003000
03FF00
007000
006000
006000
00E000
00E000
00E000
00C000
01C000
01C000
01C000
018000
018000
038000
038000
030000
030000
070000
660000
EE0000
EC0000
780000
ENDCHAR
STARTCHAR g
ENCODING 103
SWIDTH 500 0
DWIDTH 16 0
BBX 16 22 0 -7
BITMAP
01F0
073F
0E1F
0C1C
1C1C
1C1C
1C38
0C38
0E70
07C0
0C00
1800
1F00
0FC0
3FE0
61F0
C070
C030
C030
6020
78E0
1F80
ENDCHAR
STARTCHAR h
ENCODING 104
SWIDTH 500 0
DWIDTH 16 0
BBX 15 23 1 0
BITMAP
0300
1F00
0700
0700
0700
0E00
0E00
0E00
0E78
1CFC
1D9C
1A1C
3C1C
381C
381C
3838
7038
7038
7038
7072
E074
E07C
E038
ENDCHAR
STARTCHAR i
ENCODING 105
SWIDTH 278 0
DWIDTH 9 0
BBX 7 23 2 0
BITMAP
0E
0E
0E
00
00
00
00
00
0C
7C
1C
18
38
38
30
70
70
70
60
E4
E8
F8
70
ENDCHAR
STARTCHAR j
ENCODING 106
SWIDTH 278 0
DWIDTH 9 0
BBX 14 30 -4 -7
BITMAP
001C
001C
001C
0000
0000
0000
0000
0000
0038
00F8
0030
0030
0030
0070
0070
0060
0060
00E0
00E0
00C0
00C0
01C0
01C0
01C0
0180
0380
6300
E700
EE00
7800
ENDCHAR
STARTCHAR k
ENCODING 107
SWIDTH 444 0
DWIDTH 15 0
BBX 15 23 1 0
BITMAP
0300
1F00
0700
0600
0E00
0E00
0C00
0C00
1C7E
1C18
1830
3860
38C0
3980
3B00
7F00
7F00
7380
73C0
61C4
E1E8
E0F8
E070
ENDCHAR
STARTCHAR l
ENCODING 108
SWIDTH 278 0
DWIDTH 9 0
BBX 8 23 2 0
BITMAP
03
1F
07
06
0E
0E
0C
0C
1C
1C
18
38
38
38
30
70
70
60
60
E4
E8
F8
70
ENDCHAR
STARTCHAR m
ENCODING 109
SWIDTH 722 0
DWIDTH 24 0
BBX 23 15 1 0
BITMAP
0C7838
7CFCFC
1D9D9C
1A1E1C
3C1C1C
381838
383838
383838
703838
703038
707070
707072
E07074
E0E07C
E0E038
ENDCHAR
STARTCHAR n
ENCODING 110
SWIDTH 500 0
DWIDTH 16 0
BBX 15 15 1 0
BITMAP
0C78
7CFC
1D1C
1A1C
3C1C
381C
3838
3838
7038
7038
7070
6072
E074
E07C
E038
ENDCHAR
STARTCHAR o
ENCODING 111
SWIDTH 500 0
DWIDTH 17 0
BBX 15 15 1 0
BITMAP
01F0
039C
0E0C
1C0E
180E
380E
700E
701C
E01C
E038
E030
E070
60E0
7380
1F00
ENDCHAR
STARTCHAR p
ENCODING 112
SWIDTH 500 0
DWIDTH 17 0
BBX 19 22 -2 -7
BITMAP
018780
0F9FC0
03B1E0
03E0E0
03C0E0
0380E0
0380E0
0300C0
0701C0
070180
060380
0E0700
0E0E00
0F3800
0FF000
1C0000
1C0000
180000
180000
380000
380000
FE0000
ENDCHAR
STARTCHAR q
ENCODING 113
SWIDTH 500 0
DWIDTH 17 0
BBX 14 22 2 -7
BITMAP
01EC
073C
0E1C
1C1C
381C
3018
7018
6038
E038
E030
E070
E0F0
71E0
7EE0
1CE0
00E0
00E0
00C0
00C0
01C0
01C0
07F0
ENDCHAR
STARTCHAR r
ENCODING 114
SWIDTH 389 0
DWIDTH 13 0
BBX 12 15 2 0
BITMAP
0C60
7CF0
19F0
1B30
1E00
3C00
3800
3800
3000
7000
7000
7000
6000
E000
E000
ENDCHAR
STARTCHAR s
ENCODING 115
SWIDTH 389 0
DWIDTH 13 0
BBX 12 15 1 0
BITMAP
07D0
0E70
1C30
1C10
1C10
1E00
0E00
0700
0780
0380
81C0
81C0
C1C0
E380
BF00
ENDCHAR
STARTCHAR t
ENCODING 116
SWIDTH 278 0
DWIDTH 9 0
BBX 8 19 2 0
BITMAP
04
04
0C
1C
7F
1C
18
38
38
38
30
70
70
60
60
E4
E8
F8
70
ENDCHAR
STARTCHAR u
ENCODING 117
SWIDTH 500 0
DWIDTH 17 0
BBX 15 15 1 0
BITMAP
1C1C
FC1C
1C1C
381C
3838
3838
3838
3838
7038
7070
7070
70F0
71B2
7F3C
3C18
ENDCHAR
STARTCHAR v
ENCODING 118
SWIDTH 444 0
DWIDTH 15 0
BBX 14 15 0 0
BITMAP
1C38
FC3C
3C1C
0C0C
0E0C
0E18
0E18
0630
0670
0660
06E0
07C0
0780
0700
0600
ENDCHAR
STARTCHAR w
ENCODING 119
SWIDTH 667 0
DWIDTH 22 0
BBX 21 15 0 0
BITMAP
180C70
FC1C78
3C1C38
1C3C18
1C3C38
0C6C30
0CCC30
0CCC60
0D8CE0
0D0CC0
0F0D80
0E0F80
0C0F00
0C0E00
080C00
ENDCHAR
STARTCHAR x
ENCODING 120
SWIDTH 444 0
DWIDTH 15 0
BBX 16 15 -1 0
BITMAP
0607
3E0F
0F18
0730
0360
03E0
01C0
01C0
03C0
03E0
06E0
0CF2
1874
F07C
E038
ENDCHAR
STARTCHAR y
ENCODING 121
SWIDTH 444 0
DWIDTH 15 0
BBX 16 22 -1 -7
BITMAP
0707
3F07
0F03
0303
0383
0386
0386
018C
019C
0198
01B8
01F0
01E0
01E0
01C0
0180
0180
0300
0600
6E00
FC00
7000
ENDCHAR
STARTCHAR z
ENCODING 122
SWIDTH 389 0
DWIDTH 13 0
BBX 14 15 -1 0
BITMAP
0FFC
1FFC
1838
3070
00E0
00C0
0180
0300
0600
0E00
1C00
3830
7060
FFE0
FFC0
ENDCHAR
STARTCHAR braceleft
ENCODING 123
SWIDTH 400 0
DWIDTH 13 0
BBX 11 29 2 -6
BITMAP
01E0
03E0
0300
0600
0600
0600
0600
0C00
0C00
0C00
0C00
1800
3800
F000
C000
6000
3000
3000
3000
3000
3000
6000
6000
6000
6000
6000
6000
3000
3C00
ENDCHAR
STARTCHAR bar
ENCODING 124
SWIDTH 275 0
DWIDTH 9 0
BBX 9 29 0 -6
BITMAP
0180
0180
0100
0100
0300
0200
0200
0600
0600
0400
0400
0C00
0800
0800
1800
1800
1000
1000
3000
2000
2000
6000
6000
4000
4000
C000
8000
8000
8000
ENDCHAR
STARTCHAR braceright
ENCODING 125
SWIDTH 400 0
DWIDTH 13 0
BBX 11 29 -1 -6
BITMAP
0780
0180
00C0
00C0
00C0
00C0
00C0
00C0
0180
0180
0180
0180
0180
00C0
0060
01E0
0380
0300
0600
0600
0600
0600
0C00
0C00
0C00
0C00
1800
F800
F000
ENDCHAR
STARTCHAR asciitilde
ENCODING 126
SWIDTH 541 0
DWIDTH 18 0
BBX 16 4 1 6
BITMAP
1E03
7F87
E1FE
C0F8
ENDCHAR
STARTCHAR space
ENCODING 160
SWIDTH 250 0
DWIDTH 8 0
BBX 1 1 0 0
BITMAP
00
ENDCHAR
STARTCHAR exclamdown
ENCODING 161
SWIDTH 389 0
DWIDTH 13 0
BBX 8 22 2 -7
BITMAP
07
07
07
00
00
00
0C
0C
08
18
18
10
30
30
70
70
60
E0
E0
E0
C0
C0
ENDCHAR
STARTCHAR cent
ENCODING 162
SWIDTH 500 0
DWIDTH 17 0
BBX 13 23 2 -4
BITMAP
0010
0010
0020
0020
01E0
03F0
0E78
1CF8
1890
3880
7180
7100
E300
E300
E200
E620
E4C0
7F80
3E00
0C00
0800
1800
1000
ENDCHAR
STARTCHAR sterling
ENCODING 163
SWIDTH 500 0
DWIDTH 17 0
BBX 17 23 0 0
BITMAP
001F00
003380
007380
00E180
00E000
00C000
01C000
01C000
01C000
038000
3FF800
038000
038000
030000
030000
070000
070000
060000
760000
FF0600
CFFC00
DBF800
71F000
ENDCHAR
STARTCHAR currency
ENCODING 164
SWIDTH 500 0
DWIDTH 17 0
BBX 15 15 1 4
BITMAP
600C
F7DE
FFFE
7FFC
3C78
783C
701C
701C
701C
783C
3C78
7FFC
FFFE
F7DE
600C
ENDCHAR
STARTCHAR yen
ENCODING 165
SWIDTH 500 0
DWIDTH 17 0
BBX 21 23 0 0
BITMAP
3FC7F8
0E01C0
0E0180
070300
070300
070600
078C00
038800
039800
03F000
01E000
01C000
3FFC00
038000
038000
3FFC00
030000
070000
070000
0E0000
0E0000
1F0000
FFC000
ENDCHAR
STARTCHAR brokenbar
ENCODING 166
SWIDTH 275 0
DWIDTH 9 0
BBX 9 29 1 -6
BITMAP
0080
0180
0100
0100
0100
0300
0200
0200
0600
0600
0400
0400
0000
0000
0000
0000
0000
1000
1000
3000
3000
2000
2000
6000
4000
4000
C000
C000
8000
ENDCHAR
STARTCHAR section
ENCODING 167
SWIDTH 500 0
DWIDTH 17 0
BBX 13 28 2 -4
BITMAP
01F0
03B8
0638
0E10
0C00
0E00
0600
0700
0380
1F80
3BC0
70E0
60E0
6070
7030
3830
3870
1EE0
0FC0
0E00
0700
0300
0380
0180
4380
E300
EE00
7C00
ENDCHAR
STARTCHAR dieresis
ENCODING 168
SWIDTH 333 0
DWIDTH 11 0
BBX 9 3 4 18
BITMAP
E380
E380
E380
ENDCHAR
STARTCHAR copyright
ENCODING 169
SWIDTH 760 0
DWIDTH 25 0
BBX 22 24 2 -1
BITMAP
00FE00
03FF80
0F01C0
1C00E0
380070
300030
70FF38
61C718
E3831C
C3010C
C7000C
C7000C
C7000C
C7000C
C7000C
E7811C
638318
71EE38
30FC30
380070
1C00E0
0F01C0
03FF80
00FE00
ENDCHAR
STARTCHAR ordfeminine
ENCODING 170
SWIDTH 276 0
DWIDTH 9 0
BBX 10 13 0 10
BITMAP
0640
0FC0
1980
3180
3180
6180
6300
6740
7D80
3900
0000
0000
FF00
ENDCHAR
STARTCHAR guillemotleft
ENCODING 171
SWIDTH 500 0
DWIDTH 16 0
BBX 14 12 2 2
BITMAP
0204
060C
0C18
1830
3870
70E0
E1C0
E1C0
70E0
3060
1830
0810
ENDCHAR
STARTCHAR logicalnot
ENCODING 172
SWIDTH 675 0
DWIDTH 22 0
BBX 17 9 3 4
BITMAP
FFFF80
FFFF80
000180
000180
000180
000180
000180
000180
000180
ENDCHAR
STARTCHAR hyphen
ENCODING 173
SWIDTH 333 0
DWIDTH 11 0
BBX 7 2 2 6
BITMAP
FE
FE
ENDCHAR
STARTCHAR registered
ENCODING 174
SWIDTH 760 0
DWIDTH 25 0
BBX 22 24 2 -1
BITMAP
01FE00
07FF80
0F03C0
1C00E0
380070
300030
77FC38
618E18
E1821C
C1860C
C1860C
C18C0C
C1F80C
C19C0C
C18C0C
E18E1C
618618
77E3B8
300030
380070
1C00E0
0F03C0
07FF80
01FE00
ENDCHAR
STARTCHAR macron
ENCODING 175
SWIDTH 333 0
DWIDTH 11 0
BBX 9 2 4 18
BITMAP
7F80
FF00
ENDCHAR
STARTCHAR degree
ENCODING 176
SWIDTH 400 0
DWIDTH 13 0
BBX 9 8 2 15
BITMAP
3E00
6300
C180
C180
C180
C180
6300
3E00
ENDCHAR
STARTCHAR plusminus
ENCODING 177
SWIDTH 675 0
DWIDTH 23 0
BBX 16 21 3 0
BITMAP
0180
0180
0180
0180
0180
0180
0180
FFFF
FFFF
0180
0180
0180
0180
0180
0180
0180
0000
0000
0000
FFFF
FFFF
ENDCHAR
STARTCHAR twosuperior
ENCODING 178
SWIDTH 300 0
DWIDTH 10 0
BBX 9 14 1 9
BITMAP
1E00
3F00
6380
4180
0180
0180
0300
0300
0600
0C00
1800
3080
7F80
FF00
ENDCHAR
STARTCHAR threesuperior
ENCODING 179
SWIDTH 300 0
DWIDTH 10 0
BBX 10 14 0 9
BITMAP
0F80
18C0
10C0
00C0
0180
0700
1E00
0300
0180
0180
0180
C300
E700
7E00
ENDCHAR
STARTCHAR acute
ENCODING 180
SWIDTH 333 0
DWIDTH 11 0
BBX 6 6 7 17
BITMAP
0C
1C
38
70
C0
80
ENDCHAR
STARTCHAR mu
ENCODING 181
SWIDTH 500 0
DWIDTH 16 0
BBX 18 21 -1 -6
BITMAP
070700
3F0700
0F0700
0E0700
0E0E00
0E0E00
0E0E00
0E0E00
1C0C00
1C1C00
1C1C00
1C3E40
1CEE80
1FCF80
3F0700
200000
600000
600000
E00000
E00000
C00000
ENDCHAR
STARTCHAR paragraph
ENCODING 182
SWIDTH 523 0
DWIDTH 17 0
BBX 14 29 3 -6
BITMAP
03FC
0F98
1F98
3F10
7F30
7F30
FF30
FE20
FE60
FE60
FC40
FC40
7CC0
3CC0
0880
1980
1980
1980
1100
3300
3300
2200
6200
6600
6600
4400
CC00
CC00
8C00
ENDCHAR
STARTCHAR periodcentered
ENCODING 183
SWIDTH 250 0
DWIDTH 8 0
BBX 4 4 2 6
BITMAP
F0
F0
F0
F0
ENDCHAR
STARTCHAR cedilla
ENCODING 184
SWIDTH 333 0
DWIDTH 11 0
BBX 7 8 1 -7
BITMAP
08
18
30
7C
0E
06
8E
7C
ENDCHAR
STARTCHAR onesuperior
ENCODING 185
SWIDTH 300 0
DWIDTH 10 0
BBX 8 15 1 9
BITMAP
01
0F
06
06
06
06
0C
0C
0C
18
18
18
30
30
FC
ENDCHAR
STARTCHAR ordmasculine
ENCODING 186
SWIDTH 310 0
DWIDTH 10 0
BBX 10 13 1 10
BITMAP
0F80
1D80
30C0
60C0
60C0
C180
C180
C300
6E00
7C00
0000
0000
FF00
ENDCHAR
STARTCHAR guillemotright
ENCODING 187
SWIDTH 500 0
DWIDTH 16 0
BBX 14 12 1 1
BITMAP
2040
3060
1830
1C38
0E1C
0E1C
1C38
3870
3060
60C0
C180
8100
ENDCHAR
STARTCHAR onequarter
ENCODING 188
SWIDTH 750 0
DWIDTH 25 0
BBX 23 24 1 0
BITMAP
010000
0F0030
060030
060060
0600C0
0600C0
0C0180
0C0300
0C0300
180600
180C06
180C0E
30181E
303036
FC3066
0060C6
00C18C
00C30C
0187FE
0307FE
030018
060018
0C0030
0C0030
ENDCHAR
STARTCHAR onehalf
ENCODING 189
SWIDTH 750 0
DWIDTH 25 0
BBX 22 24 0 0
BITMAP
010000
0F0020
060060
0600C0
0600C0
060180
0C0300
0C0300
0C0600
180C00
1818F0
1819F8
30331C
30620C
FC600C
00C00C
018018
018018
030030
060060
0600C0
0C0184
1803FC
1807F8
ENDCHAR
STARTCHAR threequarters
ENCODING 190
SWIDTH 750 0
DWIDTH 25 0
BBX 23 23 0 0
BITMAP
0F8018
18C030
10C030
00C060
0180C0
0700C0
1E0180
030300
018300
018606
018C0E
C30C1E
E71836
7E3066
0070C6
00618C
00C30C
0187FE
0187FE
030018
060018
060030
0C0030
ENDCHAR
STARTCHAR questiondown
ENCODING 191
SWIDTH 500 0
DWIDTH 16 0
BBX 11 22 2 -7
BITMAP
00E0
00E0
00E0
0000
0000
0080
0180
0180
0300
0300
0600
0E00
1C00
3800
7000
6000
E000
C080
E1C0
E0C0
7180
3E00
ENDCHAR
STARTCHAR Agrave
ENCODING 192
SWIDTH 611 0
DWIDTH 20 0
BBX 20 30 -2 0
BITMAP
003000
003800
001C00
000E00
000700
000300
000000
000200
000600
000600
000E00
001F00
001700
003700
002700
006700
004700
00C780
018380
010380
030380
03FF80
060380
0C03C0
0C03C0
1801C0
1801C0
3001C0
7003E0
FC0FF0
ENDCHAR
STARTCHAR Aacute
ENCODING 193
SWIDTH 611 0
DWIDTH 20 0
BBX 20 30 -2 0
BITMAP
000060
0000E0
0001C0
000380
000700
000600
000000
000200
000600
000600
000E00
001F00
001700
003700
002700
006700
004700
00C780
018380
010380
030380
03FF80
060380
0C03C0
0C03C0
1801C0
1801C0
3001C0
7003E0
FC0FF0
ENDCHAR
STARTCHAR Acircumflex
ENCODING 194
SWIDTH 611 0
DWIDTH 20 0
BBX 20 30 -2 0
BITMAP
000380
000780
000DC0
0018C0
0030E0
006060
000000
000200
000600
000600
000E00
001F00
001700
003700
002700
006700
004700
00C780
018380
010380
030380
03FF80
060380
0C03C0
0C03C0
1801C0
1801C0
3001C0
7003E0
FC0FF0
ENDCHAR
STARTCHAR Atilde
ENCODING 195
SWIDTH 611 0
DWIDTH 20 0
BBX 20 27 -2 0
BITMAP
000E60
003FC0
006700
000000
000200
000600
000600
000E00
001F00
001700
003700
002700
006700
004700
00C780
018380
010380
030380
03FF80
060380
0C03C0
0C03C0
1801C0
1801C0
3001C0
7003E0
FC0FF0
ENDCHAR
STARTCHAR Adieresis
ENCODING 196
SWIDTH 611 0
DWIDTH 20 0
BBX 20 27 -2 0
BITMAP
0071C0
0071C0
0071C0
000000
000200
000600
000600
000E00
001F00
001700
003700
002700
006700
004700
00C780
018380
010380
030380
03FF80
060380
0C03C0
0C03C0
1801C0
1801C0
3001C0
7003E0
FC0FF0
ENDCHAR
STARTCHAR Aring
ENCODING 197
SWIDTH 611 0
DWIDTH 20 0
BBX 20 30 -2 0
BITMAP
000F00
001980
001080
001080
001980
000F00
000000
000200
000600
000600
000E00
001F00
001700
003700
002700
006700
004700
00C780
018380
010380
030380
03FF80
060380
0C03C0
0C03C0
1801C0
1801C0
3001C0
7003E0
FC0FF0
ENDCHAR
STARTCHAR AE
ENCODING 198
SWIDTH 889 0
DWIDTH 29 0
BBX 32 23 -2 0
BITMAP
000FFFFF
0001FC07
0001B803
00033802
00037802
00067000
000C7000
000CF010
0018F030
0030E020
0030E060
0061FFE0
00C1E0E0
0181C040
01FFC040
0303C040
06038000
0E038004
0C038008
18078018
38078030
780F80F0
FE1FFFE0
ENDCHAR
STARTCHAR Ccedilla
ENCODING 199
SWIDTH 667 0
DWIDTH 22 0
BBX 22 30 1 -7
BITMAP
003FC4
00FFFC
03C03C
070018
0E0018
1C0018
3C0010
380000
700000
700000
F00000
E00000
E00000
E00000
E00000
E00000
E00000
F00040
700180
780300
3C0E00
1FFC00
07F000
030000
060000
0F8000
01C000
00C000
11C000
0F8000
ENDCHAR
STARTCHAR Egrave
ENCODING 200
SWIDTH 611 0
DWIDTH 20 0
BBX 21 30 0 0
BITMAP
006000
007000
003800
001C00
000E00
000600
000000
07FFF8
01E038
01C018
01C010
03C010
038000
038000
078080
078180
070100
070300
0FFF00
0F0700
0E0200
0E0200
1E0200
1C0000
1C0000
1C0040
3C00C0
3C00C0
780380
FFFF80
ENDCHAR
STARTCHAR Eacute
ENCODING 201
SWIDTH 611 0
DWIDTH 20 0
BBX 21 30 0 0
BITMAP
000030
000070
0000E0
0001C0
000380
000600
000000
07FFF8
01E038
01C018
01C010
03C010
038000
038000
078080
078180
070100
070300
0FFF00
0F0700
0E0200
0E0200
1E0200
1C0000
1C0000
1C0040
3C00C0
3C00C0
780380
FFFF80
ENDCHAR
STARTCHAR Ecircumflex
ENCODING 202
SWIDTH 611 0
DWIDTH 20 0
BBX 21 30 0 0
BITMAP
000380
000780
000DC0
0018C0
0030E0
006060
000000
07FFF8
01E038
01C018
01C010
03C010
038000
038000
078080
078180
070100
070300
0FFF00
0F0700
0E0200
0E0200
1E0200
1C0000
1C0000
1C0040
3C00C0
3C00C0
780380
FFFF80
ENDCHAR
STARTCHAR Edieresis
ENCODING 203
SWIDTH 611 0
DWIDTH 20 0
BBX 21 28 0 0
BITMAP
0038E0
0038E0
0038E0
000000
000000
07FFF8
01E038
01C018
01C010
03C010
038000
038000
078080
078180
070100
070300
0FFF00
0F0700
0E0200
0E0200
1E0200
1C0000
1C0000
1C0040
3C00C0
3C00C0
780380
FFFF80
ENDCHAR
STARTCHAR Igrave
ENCODING 204
SWIDTH 333 0
DWIDTH 11 0
BBX 13 30 0 0
BITMAP
0600
0700
0380
01C0
00E0
0060
0000
07F8
01E0
01C0
01C0
03C0
0380
0380
0780
0780
0700
0700
0F00
0F00
0E00
0E00
1E00
1C00
1C00
1C00
3800
3800
7800
FE00
ENDCHAR
STARTCHAR Iacute
ENCODING 205
SWIDTH 333 0
DWIDTH 11 0
BBX 15 30 0 0
BITMAP
0006
000E
001C
0038
0070
00E0
0000
07F8
01E0
01C0
01C0
03C0
0380
0380
0780
0780
0700
0700
0F00
0F00
0E00
0E00
1E00
1C00
1C00
1C00
3800
3800
7800
FE00
ENDCHAR
STARTCHAR Icircumflex
ENCODING 206
SWIDTH 333 0
DWIDTH 11 0
BBX 14 30 0 0
BITMAP
0070
00F0
01B8
0318
061C
0C0C
0000
07F8
01E0
01C0
01C0
03C0
0380
0380
0780
0780
0700
0700
0F00
0F00
0E00
0E00
1E00
1C00
1C00
1C00
3800
3800
7800
FE00
ENDCHAR
STARTCHAR Idieresis
ENCODING 207
SWIDTH 333 0
DWIDTH 11 0
BBX 15 28 0 0
BITMAP
038E
038E
038E
0000
0000
07F8
01E0
01C0
01C0
03C0
0380
0380
0780
0780
0700
0700
0F00
0F00
0E00
0E00
1E00
1C00
1C00
1C00
3800
3800
7800
FE00
ENDCHAR
STARTCHAR Eth
ENCODING 208
SWIDTH 722 0
DWIDTH 23 0
BBX 24 23 0 0
BITMAP
07FF80
01FFE0
01C0F8
01C03C
03C01E
03C00E
03800F
038007
078007
070007
070007
3FF807
3FF007
0E000E
0E000E
1E001C
1C003C
1C0078
3C00F0
3803E0
380F80
7FFE00
FFF000
ENDCHAR
STARTCHAR Ntilde
ENCODING 209
SWIDTH 667 0
DWIDTH 22 0
BBX 25 28 -2 0
BITMAP
00039800
000FF000
0019C000
00000000
00000000
07C03F80
01E00E00
01E00C00
01E00C00
01700C00
01700800
03780800
03381800
02381800
021C1000
061C1000
061E3000
040E3000
040E2000
0C072000
0C076000
08076000
0803E000
1803C000
1801C000
1801C000
3801C000
FE00C000
ENDCHAR
STARTCHAR Ograve
ENCODING 210
SWIDTH 722 0
DWIDTH 24 0
BBX 19 30 3 0
BITMAP
00C000
00E000
007000
003800
001C00
000C00
000000
007E00
01C780
0301C0
0701C0
0E00E0
1E00E0
1C00E0
3800E0
7800E0
7801E0
7001E0
F001E0
F001C0
F003C0
E003C0
E00380
E00700
E00F00
E00E00
701C00
703800
3CE000
0F8000
ENDCHAR
STARTCHAR Oacute
ENCODING 211
SWIDTH 722 0
DWIDTH 24 0
BBX 19 30 3 0
BITMAP
0000C0
0001C0
000380
000700
000E00
000C00
000000
007E00
01C780
0301C0
0701C0
0E00E0
1E00E0
1C00E0
3800E0
7800E0
7801E0
7001E0
F001E0
F001C0
F003C0
E003C0
E00380
E00700
E00F00
E00E00
701C00
703800
3CE000
0F8000
ENDCHAR
STARTCHAR Ocircumflex
ENCODING 212
SWIDTH 722 0
DWIDTH 24 0
BBX 19 30 3 0
BITMAP
000E00
001E00
003700
006300
00C380
018180
000000
007E00
01C780
0301C0
0701C0
0E00E0
1E00E0
1C00E0
3800E0
7800E0
7801E0
7001E0
F001E0
F001C0
F003C0
E003C0
E00380
E00700
E00F00
E00E00
701C00
703800
3CE000
0F8000
ENDCHAR
STARTCHAR Otilde
ENCODING 213
SWIDTH 722 0
DWIDTH 24 0
BBX 19 28 3 0
BITMAP
001CC0
007F80
00CE00
000000
000000
007E00
01C780
0301C0
0701C0
0E00E0
1E00E0
1C00E0
3800E0
7800E0
7801E0
7001E0
F001E0
F001C0
F003C0
E003C0
E00380
E00700
E00F00
E00E00
701C00
703800
3CE000
0F8000
ENDCHAR
STARTCHAR Odieresis
ENCODING 214
SWIDTH 722 0
DWIDTH 24 0
BBX 19 28 3 0
BITMAP
0071C0
0071C0
0071C0
000000
000000
007E00
01C780
0301C0
0701C0
0E00E0
1E00E0
1C00E0
3800E0
7800E0
7801E0
7001E0
F001E0
F001C0
F003C0
E003C0
E00380
E00700
E00F00
E00E00
701C00
703800
3CE000
0F8000
ENDCHAR
STARTCHAR multiply
ENCODING 215
SWIDTH 675 0
DWIDTH 22 0
BBX 17 17 3 0
BITMAP
400100
E00380
700700
380E00
1C1C00
0E3800
077000
03E000
01C000
03E000
077000
0E3800
1C1C00
380E00
700700
E00380
400100
ENDCHAR
STARTCHAR Oslash
ENCODING 216
SWIDTH 722 0
DWIDTH 23 0
BBX 20 28 2 -3
BITMAP
000020
000060
003F40
00E3C0
0181E0
0381E0
070370
0F0670
0E0470
1C0C70
3C1870
3C10F0
3830F0
7860F0
7840E0
78C1E0
7181E0
7101C0
730380
720780
760700
3C0E00
381C00
3E7000
27C000
600000
C00000
800000
ENDCHAR
STARTCHAR Ugrave
ENCODING 217
SWIDTH 722 0
DWIDTH 24 0
BBX 23 30 3 0
BITMAP
006000
007000
003800
001C00
000E00
000600
000000
7FC0FE
1F0038
0E0018
0E0010
1E0030
1C0030
1C0020
3C0020
380060
380040
380040
7800C0
7000C0
700080
F00180
F00180
E00100
E00300
E00300
700600
781C00
3FF800
0FE000
ENDCHAR
STARTCHAR Uacute
ENCODING 218
SWIDTH 722 0
DWIDTH 24 0
BBX 23 30 3 0
BITMAP
0000C0
0001C0
000380
000700
000E00
000C00
000000
7FC0FE
1F0038
0E0018
0E0010
1E0030
1C0030
1C0020
3C0020
380060
380040
380040
7800C0
7000C0
700080
F00180
F00180
E00100
E00300
E00300
700600
781C00
3FF800
0FE000
ENDCHAR
STARTCHAR Ucircumflex
ENCODING 219
SWIDTH 722 0
DWIDTH 24 0
BBX 23 30 3 0
BITMAP
000700
000F00
001B80
003180
0061C0
00C0C0
000000
7FC0FE
1F0038
0E0018
0E0010
1E0030
1C0030
1C0020
3C0020
380060
380040
380040
7800C0
7000C0
700080
F00180
F00180
E00100
E00300
E00300
700600
781C00
3FF800
0FE000
ENDCHAR
STARTCHAR Udieresis
ENCODING 220
SWIDTH 722 0
DWIDTH 24 0
BBX 23 28 3 0
BITMAP
00E380
00E380
00E380
000000
000000
7FC0FE
1F0038
0E0018
0E0010
1E0030
1C0030
1C0020
3C0020
380060
380040
380040
7800C0
7000C0
700080
F00180
F00180
E00100
E00300
E00300
700600
781C00
3FF800
0FE000
ENDCHAR
STARTCHAR Yacute
ENCODING 221
SWIDTH 556 0
DWIDTH 19 0
BBX 20 30 2 0
BITMAP
000300
000700
000E00
001C00
003800
003000
000000
7F87F0
1E01C0
1E0300
1E0300
0E0600
0E0C00
0F1800
0F1800
073000
076000
07E000
03C000
03C000
038000
038000
078000
070000
070000
070000
0E0000
0E0000
1E0000
FFC000
ENDCHAR
STARTCHAR Thorn
ENCODING 222
SWIDTH 611 0
DWIDTH 20 0
BBX 19 23 0 0
BITMAP
03FC00
01F000
00E000
00E000
01E000
01C000
01FF00
03C3C0
03C1E0
0381E0
0380E0
0781E0
0701E0
0701C0
0F03C0
0F0F80
0FFE00
0E0000
1E0000
1C0000
1C0000
3C0000
FF0000
ENDCHAR
STARTCHAR germandbls
ENCODING 223
SWIDTH 500 0
DWIDTH 16 0
BBX 22 30 -5 -7
BITMAP
0003F0
000738
000E18
001C1C
00181C
00381C
00381C
003038
003030
0070E0
0063C0
0061E0
00E070
00E030
00E038
00C038
01C070
01C070
01C070
018C60
019CE0
039DC0
038F00
030000
030000
070000
660000
EE0000
EC0000
780000
ENDCHAR
STARTCHAR agrave
ENCODING 224
SWIDTH 500 0
DWIDTH 16 0
BBX 15 23 0 0
BITMAP
0180
01C0
00E0
0070
0018
0008
0000
0000
01EC
03BC
0E1C
1C1C
181C
3818
7018
7038
E038
E030
E070
E0F2
61B4
733C
1E18
ENDCHAR
STARTCHAR aacute
ENCODING 225
SWIDTH 500 0
DWIDTH 16 0
BBX 15 23 0 0
BITMAP
000C
001C
0038
0070
00C0
0080
0000
0000
01EC
03BC
0E1C
1C1C
181C
3818
7018
7038
E038
E030
E070
E0F2
61B4
733C
1E18
ENDCHAR
STARTCHAR acircumflex
ENCODING 226
SWIDTH 500 0
DWIDTH 16 0
BBX 15 23 0 0
BITMAP
0070
00F0
01B8
0318
061C
0C0C
0000
0000
01EC
03BC
0E1C
1C1C
181C
3818
7018
7038
E038
E030
E070
E0F2
61B4
733C
1E18
ENDCHAR
STARTCHAR atilde
ENCODING 227
SWIDTH 500 0
DWIDTH 16 0
BBX 16 21 0 0
BITMAP
0073
01FE
0338
0000
0000
0000
01EC
03BC
0E1C
1C1C
181C
3818
7018
7038
E038
E030
E070
E0F2
61B4
733C
1E18
ENDCHAR
STARTCHAR adieresis
ENCODING 228
SWIDTH 500 0
DWIDTH 16 0
BBX 15 21 0 0
BITMAP
071C
071C
071C
0000
0000
0000
01EC
03BC
0E1C
1C1C
181C
3818
7018
7038
E038
E030
E070
E0F2
61B4
733C
1E18
ENDCHAR
STARTCHAR aring
ENCODING 229
SWIDTH 500 0
DWIDTH 16 0
BBX 15 23 0 0
BITMAP
00F0
0198
0108
0108
0198
00F0
0000
0000
01EC
03BC
0E1C
1C1C
181C
3818
7018
7038
E038
E030
E070
E0F2
61B4
733C
1E18
ENDCHAR
STARTCHAR ae
ENCODING 230
SWIDTH 667 0
DWIDTH 22 0
BBX 21 15 1 0
BITMAP
01EDE0
03FF70
0E3C38
1C3838
183070
3830E0
7031C0
707700
E07C00
E06000
E0E000
E0E020
61E0C0
737380
1E3E00
ENDCHAR
STARTCHAR ccedilla
ENCODING 231
SWIDTH 444 0
DWIDTH 15 0
BBX 13 22 2 -7
BITMAP
01E0
0630
0C38
1838
3010
3000
7000
6000
E000
E000
E000
E020
E0C0
7380
3E00
0C00
1800
3E00
0700
0300
4700
3C00
ENDCHAR
STARTCHAR egrave
ENCODING 232
SWIDTH 444 0
DWIDTH 15 0
BBX 13 23 1 0
BITMAP
0300
0380
01C0
00E0
0030
0010
0000
0000
01E0
07F0
0E38
1C38
3870
30E0
71C0
7700
FC00
E000
E000
E020
E0C0
7380
3E00
ENDCHAR
STARTCHAR eacute
ENCODING 233
SWIDTH 444 0
DWIDTH 15 0
BBX 13 23 1 0
BITMAP
0018
0038
0070
00E0
0180
0100
0000
0000
01E0
07F0
0E38
1C38
3870
30E0
71C0
7700
FC00
E000
E000
E020
E0C0
7380
3E00
ENDCHAR
STARTCHAR ecircumflex
ENCODING 234
SWIDTH 444 0
DWIDTH 15 0
BBX 13 23 1 0
BITMAP
00E0
01E0
0370
0630
0C38
1818
0000
0000
01E0
07F0
0E38
1C38
3870
30E0
71C0
7700
FC00
E000
E000
E020
E0C0
7380
3E00
ENDCHAR
STARTCHAR edieresis
ENCODING 235
SWIDTH 444 0
DWIDTH 15 0
BBX 15 21 1 0
BITMAP
038E
038E
038E
0000
0000
0000
01E0
07F0
0E38
1C38
3870
30E0
71C0
7700
FC00
E000
E000
E020
E0C0
7380
3E00
ENDCHAR
STARTCHAR igrave
ENCODING 236
SWIDTH 278 0
DWIDTH 9 0
BBX 8 23 1 0
BITMAP
30
38
1C
0E
03
01
00
00
0C
7C
1C
18
38
38
30
70
70
70
60
E4
E8
F8
70
ENDCHAR
STARTCHAR iacute
ENCODING 237
SWIDTH 278 0
DWIDTH 9 0
BBX 9 23 1 0
BITMAP
0180
0380
0700
0E00
1800
1000
0000
0000
0C00
7C00
1C00
1800
3800
3800
3000
7000
7000
7000
6000
E400
E800
F800
7000
ENDCHAR
STARTCHAR icircumflex
ENCODING 238
SWIDTH 278 0
DWIDTH 9 0
BBX 11 23 1 0
BITMAP
0380
0780
0DC0
18C0
30E0
6060
0000
0000
0C00
7C00
1C00
1800
3800
3800
3000
7000
7000
7000
6000
E400
E800
F800
7000
ENDCHAR
STARTCHAR idieresis
ENCODING 239
SWIDTH 278 0
DWIDTH 9 0
BBX 10 21 1 0
BITMAP
39C0
39C0
39C0
0000
0000
0000
0C00
7C00
1C00
1800
3800
3800
3000
7000
7000
7000
6000
E400
E800
F800
7000
ENDCHAR
STARTCHAR eth
ENCODING 240
SWIDTH 500 0
DWIDTH 16 0
BBX 15 23 1 0
BITMAP
0400
0F00
038E
01FE
1FF0
1F70
0C38
0038
01FC
039C
0E0C
1C0E
180E
380E
700E
701C
E01C
E038
E030
E070
60E0
7380
1F00
ENDCHAR
STARTCHAR ntilde
ENCODING 241
SWIDTH 500 0
DWIDTH 16 0
BBX 15 21 1 0
BITMAP
01CC
07F8
0CE0
0000
0000
0000
0C78
7CFC
1D9C
1B1C
3E1C
3C1C
3C1C
3838
7838
7038
7038
7072
E074
E07C
E038
ENDCHAR
STARTCHAR ograve
ENCODING 242
SWIDTH 500 0
DWIDTH 17 0
BBX 15 23 1 0
BITMAP
0180
01C0
00E0
0070
0018
0008
0000
0000
01F0
039C
0E0C
1C0E
180E
380E
700E
701C
E01C
E038
E030
E070
60E0
7380
1F00
ENDCHAR
STARTCHAR oacute
ENCODING 243
SWIDTH 500 0
DWIDTH 17 0
BBX 15 23 1 0
BITMAP
000C
001C
0038
0070
00C0
0080
0000
0000
01F0
039C
0E0C
1C0E
180E
380E
700E
701C
E01C
E038
E030
E070
60E0
7380
1F00
ENDCHAR
STARTCHAR ocircumflex
ENCODING 244
SWIDTH 500 0
DWIDTH 17 0
BBX 15 23 1 0
BITMAP
0038
0078
00DC
018C
030E
0606
0000
0000
01F0
039C
0E0C
1C0E
180E
380E
700E
701C
E01C
E038
E030
E070
60E0
7380
1F00
ENDCHAR
STARTCHAR otilde
ENCODING 245
SWIDTH 500 0
DWIDTH 17 0
BBX 16 21 1 0
BITMAP
0073
01FE
0338
0000
0000
0000
01F0
039C
0E0C
1C0E
180E
380E
700E
701C
E01C
E038
E030
E070
60E0
7380
1F00
ENDCHAR
STARTCHAR odieresis
ENCODING 246
SWIDTH 500 0
DWIDTH 17 0
BBX 16 21 1 0
BITMAP
01C7
01C7
01C7
0000
0000
0000
01F0
039C
0E0C
1C0E
180E
380E
700E
701C
E01C
E038
E030
E070
60E0
7380
1F00
ENDCHAR
STARTCHAR divide
ENCODING 247
SWIDTH 675 0
DWIDTH 22 0
BBX 17 14 3 1
BITMAP
01C000
01C000
01C000
000000
000000
000000
FFFF80
FFFF80
000000
000000
000000
01C000
01C000
01C000
ENDCHAR
STARTCHAR oslash
ENCODING 248
SWIDTH 500 0
DWIDTH 17 0
BBX 15 23 1 -4
BITMAP
0008
0008
0018
0010
01F0
03BC
0E6C
1CCE
18CE
398E
718E
731C
E31C
E638
E630
EC70
6CE0
7B80
1F00
1000
3000
2000
2000
ENDCHAR
STARTCHAR ugrave
ENCODING 249
SWIDTH 500 0
DWIDTH 17 0
BBX 15 23 1 0
BITMAP
0300
0380
01C0
00E0
0030
0010
0000
0000
1C1C
FC1C
1C1C
381C
3838
3838
3838
3838
7030
7070
7070
70F0
71B2
7F3C
3C18
ENDCHAR
STARTCHAR uacute
ENCODING 250
SWIDTH 500 0
DWIDTH 17 0
BBX 15 23 1 0
BITMAP
0030
0070
00E0
01C0
0300
0200
0000
0000
1C1C
FC1C
1C1C
381C
3838
3838
3838
3838
7030
7070
7070
70F0
71B2
7F3C
3C18
ENDCHAR
STARTCHAR ucircumflex
ENCODING 251
SWIDTH 500 0
DWIDTH 17 0
BBX 15 23 1 0
BITMAP
00E0
01E0
0370
0630
0C38
1818
0000
0000
1C1C
FC1C
1C1C
381C
3838
3838
3838
3838
7030
7070
7070
70F0
71B2
7F3C
3C18
ENDCHAR
STARTCHAR udieresis
ENCODING 252
SWIDTH 500 0
DWIDTH 17 0
BBX 15 21 1 0
BITMAP
071C
071C
071C
0000
0000
0000
1C1C
FC1C
1C1C
381C
3838
3838
3838
3838
7030
7070
7070
70F0
71B2
7F3C
3C18
ENDCHAR
STARTCHAR yacute
ENCODING 253
SWIDTH 444 0
DWIDTH 15 0
BBX 16 30 -1 -7
BITMAP
000C
001C
0038
0070
00C0
0080
0000
0000
0707
3F07
0F03
0303
0383
0386
0386
018C
019C
0198
01B8
01F0
01E0
01E0
01C0
0180
0180
0300
0600
6E00
FC00
7000
ENDCHAR
STARTCHAR thorn
ENCODING 254
SWIDTH 500 0
DWIDTH 17 0
BBX 19 30 -3 -7
BITMAP
003000
01F000
007000
006000
006000
00E000
00E000
00C000
01C780
01DFC0
01F1E0
01E0E0
03C0E0
0380E0
0380E0
0300C0
0701C0
070180
060380
0E0700
0E0E00
0F3800
0FF000
1C0000
1C0000
180000
180000
380000
380000
FE0000
ENDCHAR
STARTCHAR ydieresis
ENCODING 255
SWIDTH 444 0
DWIDTH 15 0
BBX 16 28 -1 -7
BITMAP
01C7
01C7
01C7
0000
0000
0000
0707
3F07
0F03
0303
0383
0386
0386
018C
019C
0198
01B8
01F0
01E0
01E0
01C0
0180
0180
0300
0600
6E00
FC00
7000
ENDCHAR
STARTCHAR Amacron
ENCODING 256
SWIDTH 611 0
DWIDTH 20 0
BBX 20 26 -2 0
BITMAP
007F80
00FF00
000000
000200
000600
000600
000E00
001F00
001700
003700
002700
006700
004700
00C780
018380
010380
030380
03FF80
060380
0C03C0
0C03C0
1801C0
1801C0
3001C0
7003E0
FC0FF0
ENDCHAR
STARTCHAR amacron
ENCODING 257
SWIDTH 500 0
DWIDTH 16 0
BBX 15 18 1 0
BITMAP
03FC
07F8
0000
01EC
03BC
0E1C
1C1C
181C
3818
7018
7038
E038
E030
E070
E0F2
61B4
733C
1E18
ENDCHAR
STARTCHAR Abreve
ENCODING 258
SWIDTH 611 0
DWIDTH 20 0
BBX 20 28 -2 0
BITMAP
008100
00C300
007E00
003C00
000000
000200
000600
000600
000E00
001F00
001700
003700
002700
006700
004700
00C780
018380
010380
030380
03FF80
060380
0C03C0
0C03C0
1801C0
1801C0
3001C0
7003E0
FC0FF0
ENDCHAR
STARTCHAR abreve
ENCODING 259
SWIDTH 500 0
DWIDTH 16 0
BBX 15 20 1 0
BITMAP
0408
0618
03F0
01E0
0000
01EC
03BC
0E1C
1C1C
181C
3818
7018
7038
E038
E030
E070
E0F2
61B4
733C
1E18
ENDCHAR
STARTCHAR Aogonek
ENCODING 260
SWIDTH 611 0
DWIDTH 20 0
BBX 20 28 -2 -5
BITMAP
000200
000600
000600
000E00
001F00
001700
003700
002700
006700
004700
00C780
018380
010380
030380
03FF80
060380
0C03C0
0C03C0
1801C0
1801C0
3011C0
7023E0
FC6FF0
00C000
00C000
00E200
007C00
003800
ENDCHAR
STARTCHAR aogonek
ENCODING 261
SWIDTH 500 0
DWIDTH 16 0
BBX 15 20 1 -5
BITMAP
01EC
03BC
0E1C
1C1C
181C
3818
7018
7038
E038
E030
E070
E0F2
61B4
733C
1F18
0600
0600
0710
03E0
01C0
ENDCHAR
STARTCHAR Cacute
ENCODING 262
SWIDTH 667 0
DWIDTH 22 0
BBX 21 30 2 0
BITMAP
000300
000700
000E00
001C00
003000
002000
000000
003F88
00FFF8
03C070
070030
0E0030
1C0020
3C0020
380000
700000
700000
F00000
E00000
E00000
E00000
E00000
E00000
E00000
F00040
700180
780300
3C0E00
1FFC00
07F000
ENDCHAR
STARTCHAR cacute
ENCODING 263
SWIDTH 444 0
DWIDTH 15 0
BBX 13 22 2 0
BITMAP
0030
0070
00E0
01C0
0300
0200
0000
01E0
0630
0C38
1838
3010
3000
7000
6000
E000
E000
E000
E020
E0C0
7380
3E00
ENDCHAR
STARTCHAR Ccircumflex
ENCODING 264
SWIDTH 667 0
DWIDTH 22 0
BBX 21 30 2 0
BITMAP
000E00
001E00
003700
006300
00C380
018180
000000
003F88
00FFF8
03C070
070030
0E0030
1C0020
3C0020
380000
700000
700000
F00000
E00000
E00000
E00000
E00000
E00000
E00000
F00040
700180
780300
3C0E00
1FFC00
07F000
ENDCHAR
STARTCHAR ccircumflex
ENCODING 265
SWIDTH 444 0
DWIDTH 15 0
BBX 13 22 2 0
BITMAP
00E0
01E0
0370
0630
0C38
1818
0000
01E0
0630
0C38
1838
3010
3000
7000
6000
E000
E000
E000
E020
E0C0
7380
3E00
ENDCHAR
STARTCHAR Cdotaccent
ENCODING 266
SWIDTH 667 0
DWIDTH 22 0
BBX 21 28 2 0
BITMAP
001800
003C00
003C00
001800
000000
003F88
00FFF8
03C070
070030
0E0030
1C0020
3C0020
380000
700000
700000
F00000
E00000
E00000
E00000
E00000
E00000
E00000
F00040
700180
780300
3C0E00
1FFC00
07F000
ENDCHAR
STARTCHAR cdotaccent
ENCODING 267
SWIDTH 444 0
DWIDTH 15 0
BBX 13 20 2 0
BITMAP
0180
03C0
03C0
0180
0000
01E0
0630
0C38
1838
3010
3000
7000
6000
E000
E000
E000
E020
E0C0
7380
3E00
ENDCHAR
STARTCHAR Ccaron
ENCODING 268
SWIDTH 667 0
DWIDTH 22 0
BBX 21 30 2 0
BITMAP
00C0C0
00E180
006300
007600
003C00
003800
000000
003F88
00FFF8
03C070
070030
0E0030
1C0020
3C0020
380000
700000
700000
F00000
E00000
E00000
E00000
E00000
E00000
E00000
F00040
700180
780300
3C0E00
1FFC00
07F000
ENDCHAR
STARTCHAR ccaron
ENCODING 269
SWIDTH 444 0
DWIDTH 15 0
BBX 14 22 2 0
BITMAP
0C0C
0E18
0630
0760
03C0
0380
0000
01E0
0630
0C38
1838
3010
3000
7000
6000
E000
E000
E000
E020
E0C0
7380
3E00
ENDCHAR
STARTCHAR Dcaron
ENCODING 270
SWIDTH 722 0
DWIDTH 24 0
BBX 25 30 -1 0
BITMAP
00303000
00386000
0018C000
001D8000
000F0000
000E0000
00000000
03FFC000
00E0F800
00E03E00
00E00E00
01E00F00
01E00700
01C00780
01C00780
03C00380
03800780
03800380
07800780
07800780
07000700
07000700
0F000E00
0E001E00
0E001C00
1E003800
1C00F000
1C03C000
3FFF0000
FFF80000
ENDCHAR
STARTCHAR dcaron
ENCODING 271
SWIDTH 808 0
DWIDTH 26 0
BBX 20 23 1 0
BITMAP
000370
001F70
000770
000730
000620
000660
0006C0
000F80
01EC00
033C00
0E1C00
1C1C00
181C00
381800
701800
703800
E03800
E03000
E07000
E0F200
61B400
733C00
1E1800
ENDCHAR
STARTCHAR Dcroat
ENCODING 272
SWIDTH 722 0
DWIDTH 23 0
BBX 24 23 0 0
BITMAP
07FF80
01FFE0
01C0F8
01C03C
03C01E
03C00E
03800F
038007
078007
070007
070007
3FF807
3FF007
0E000E
0E000E
1E001C
1C003C
1C0078
3C00F0
3803E0
380F80
7FFE00
FFF000
ENDCHAR
STARTCHAR dcroat
ENCODING 273
SWIDTH 500 0
DWIDTH 16 0
BBX 19 23 1 0
BITMAP
000300
001F00
000700
000700
000600
000600
03FFE0
03FFE0
01EC00
033C00
0E1C00
1C1C00
181C00
381800
701800
703800
E03800
E03000
E07000
E0F200
61B400
733C00
1E1800
ENDCHAR
STARTCHAR Emacron
ENCODING 274
SWIDTH 611 0
DWIDTH 20 0
BBX 22 26 -1 0
BITMAP
007F80
00FF00
000000
03FFFC
00F01C
00E00C
00E008
01E008
01C000
01C000
03C040
03C0C0
038080
038180
07FF80
078380
070100
070100
0F0100
0E0000
0E0000
0E0020
1E0060
1E0060
3C01C0
FFFFC0
ENDCHAR
STARTCHAR emacron
ENCODING 275
SWIDTH 444 0
DWIDTH 15 0
BBX 13 18 2 0
BITMAP
07F8
0FF0
0000
01E0
0670
0C38
1838
3070
30E0
71C0
7700
FC00
E000
E000
E020
E0C0
7380
3E00
ENDCHAR
STARTCHAR Ebreve
ENCODING 276
SWIDTH 611 0
DWIDTH 20 0
BBX 22 28 -1 0
BITMAP
008100
00C300
007E00
003C00
000000
03FFFC
00F01C
00E00C
00E008
01E008
01C000
01C000
03C040
03C0C0
038080
038180
07FF80
078380
070100
070100
0F0100
0E0000
0E0000
0E0020
1E0060
1E0060
3C01C0
FFFFC0
ENDCHAR
STARTCHAR ebreve
ENCODING 277
SWIDTH 444 0
DWIDTH 15 0
BBX 13 20 2 0
BITMAP
0810
0C30
07E0
03C0
0000
01E0
0670
0C38
1838
3070
30E0
71C0
7700
FC00
E000
E000
E020
E0C0
7380
3E00
ENDCHAR
STARTCHAR Edotaccent
ENCODING 278
SWIDTH 611 0
DWIDTH 20 0
BBX 22 28 -1 0
BITMAP
001800
003C00
003C00
001800
000000
03FFFC
00F01C
00E00C
00E008
01E008
01C000
01C000
03C040
03C0C0
038080
038180
07FF80
078380
070100
070100
0F0100
0E0000
0E0000
0E0020
1E0060
1E0060
3C01C0
FFFFC0
ENDCHAR
STARTCHAR edotaccent
ENCODING 279
SWIDTH 444 0
DWIDTH 15 0
BBX 13 20 2 0
BITMAP
0180
03C0
03C0
0180
0000
01E0
0670
0C38
1838
3070
30E0
71C0
7700
FC00
E000
E000
E020
E0C0
7380
3E00
ENDCHAR
STARTCHAR Eogonek
ENCODING 280
SWIDTH 611 0
DWIDTH 20 0
BBX 22 28 -1 -5
BITMAP
03FFFC
00F01C
00E00C
00E008
01E008
01C000
01C000
03C040
03C0C0
038080
038180
07FF80
078380
070100
070100
0F0100
0E0000
0E0000
0E0020
1E0060
1E2060
3C41C0
FFFFC0
018000
018000
01C400
00F800
007000
ENDCHAR
STARTCHAR eogonek
ENCODING 281
SWIDTH 444 0
DWIDTH 15 0
BBX 13 20 2 -5
BITMAP
01E0
0670
0C38
1838
3070
30E0
71C0
7700
FC00
E000
E000
E020
E4C0
7B80
3E00
3000
3000
3880
1F00
0E00
ENDCHAR
STARTCHAR Ecaron
ENCODING 282
SWIDTH 611 0
DWIDTH 20 0
BBX 22 30 -1 0
BITMAP
00C0C0
00E180
006300
007600
003C00
003800
000000
03FFFC
00F01C
00E00C
00E008
01E008
01C000
01C000
03C040
03C0C0
038080
038180
07FF80
078380
070100
070100
0F0100
0E0000
0E0000
0E0020
1E0060
1E0060
3C01C0
FFFFC0
ENDCHAR
STARTCHAR ecaron
ENCODING 283
SWIDTH 444 0
DWIDTH 15 0
BBX 14 22 2 0
BITMAP
0C0C
0E18
0630
0760
03C0
0380
0000
01E0
0670
0C38
1838
3070
30E0
71C0
7700
FC00
E000
E000
E020
E0C0
7380
3E00
ENDCHAR
STARTCHAR Gcircumflex
ENCODING 284
SWIDTH 722 0
DWIDTH 24 0
BBX 22 30 2 0
BITMAP
000E00
001E00
003700
006300
00C380
018180
000000
003F88
00FFF8
03C070
070030
0E0030
1C0020
3C0020
380000
700000
700000
F00000
E00000
E00FFC
E001F0
E000E0
E001E0
E001C0
F001C0
7003C0
780380
3C0780
1E0F80
07FC00
ENDCHAR
STARTCHAR gcircumflex
ENCODING 285
SWIDTH 500 0
DWIDTH 16 0
BBX 16 29 0 -7
BITMAP
0070
00F0
01B8
0318
061C
0C0C
0000
01F0
073F
0E1F
0C1C
1C1C
1C1C
1C38
0C38
0E70
07C0
0C00
1800
1F00
0FC0
3FE0
61F0
C070
C030
C030
6020
78E0
1F80
ENDCHAR
STARTCHAR Gbreve
ENCODING 286
SWIDTH 722 0
DWIDTH 24 0
BBX 22 28 2 0
BITMAP
008100
00C300
007E00
003C00
000000
003F88
00FFF8
03C070
070030
0E0030
1C0020
3C0020
380000
700000
700000
F00000
E00000
E00FFC
E001F0
E000E0
E001E0
E001C0
F001C0
7003C0
780380
3C0780
1E0F80
07FC00
ENDCHAR
STARTCHAR gbreve
ENCODING 287
SWIDTH 500 0
DWIDTH 16 0
BBX 16 27 0 -7
BITMAP
0408
0618
03F0
01E0
0000
01F0
073F
0E1F
0C1C
1C1C
1C1C
1C38
0C38
0E70
07C0
0C00
1800
1F00
0FC0
3FE0
61F0
C070
C030
C030
6020
78E0
1F80
ENDCHAR
STARTCHAR Gdotaccent
ENCODING 288
SWIDTH 722 0
DWIDTH 24 0
BBX 22 28 2 0
BITMAP
001800
003C00
003C00
001800
000000
003F88
00FFF8
03C070
070030
0E0030
1C0020
3C0020
380000
700000
700000
F00000
E00000
E00FFC
E001F0
E000E0
E001E0
E001C0
F001C0
7003C0
780380
3C0780
1E0F80
07FC00
ENDCHAR
STARTCHAR gdotaccent
ENCODING 289
SWIDTH 500 0
DWIDTH 16 0
BBX 16 27 0 -7
BITMAP
00C0
01E0
01E0
00C0
0000
01F0
073F
0E1F
0C1C
1C1C
1C1C
1C38
0C38
0E70
07C0
0C00
1800
1F00
0FC0
3FE0
61F0
C070
C030
C030
6020
78E0
1F80
ENDCHAR
STARTCHAR Gcommaaccent
ENCODING 290
SWIDTH 722 0
DWIDTH 24 0
BBX 22 32 2 -9
BITMAP
003F88
00FFF8
03C070
070030
0E0030
1C0020
3C0020
380000
700000
700000
F00000
E00000
E00FFC
E001F0
E000E0
E001E0
E001C0
F001C0
7003C0
780380
3C0780
1E0F80
07FC00
000000
007000
007000
007000
003000
002000
006000
00C000
018000
ENDCHAR
STARTCHAR gcommaaccent
ENCODING 291
SWIDTH 500 0
DWIDTH 16 0
BBX 16 31 0 -7
BITMAP
0030
0060
00C0
0080
0180
01C0
01C0
01C0
0000
01F0
073F
0E1F
0C1C
1C1C
1C1C
1C38
0C38
0E70
07C0
0C00
1800
1F00
0FC0
3FE0
61F0
C070
C030
C030
6020
78E0
1F80
ENDCHAR
STARTCHAR Hcircumflex
ENCODING 292
SWIDTH 722 0
DWIDTH 24 0
BBX 26 30 0 0
BITMAP
00038000
00078000
000DC000
0018C000
0030E000
00606000
00000000
03FC3FC0
00E00E00
00E00E00
01E01E00
01C01C00
01C01C00
03C03C00
03803800
03803800
03803800
07807800
07FFF000
07007000
0F00F000
0F00F000
0E00E000
0E00E000
0E00E000
1E01E000
1C01C000
1C01C000
3C03C000
FF0FF000
ENDCHAR
STARTCHAR hcircumflex
ENCODING 293
SWIDTH 500 0
DWIDTH 16 0
BBX 15 30 1 0
BITMAP
0380
0780
0DC0
18C0
30E0
6060
0000
0300
1F00
0700
0700
0700
0E00
0E00
0E00
0E78
1CFC
1D9C
1A1C
3C1C
381C
381C
3838
7038
7038
7038
7072
E074
E07C
E038
ENDCHAR
STARTCHAR Hbar
ENCODING 294
SWIDTH 722 0
DWIDTH 24 0
BBX 26 23 0 0
BITMAP
03FC3FC0
00E00E00
00E00E00
01E01E00
01C01C00
01C01C00
03C03C00
FFFFFFC0
FFFFFFC0
03803800
07807800
07FFF000
07007000
0F00F000
0F00F000
0E00E000
0E00E000
0E00E000
1E01E000
1C01C000
1C01C000
3C03C000
FF0FF000
ENDCHAR
STARTCHAR hbar
ENCODING 295
SWIDTH 500 0
DWIDTH 16 0
BBX 17 23 -1 0
BITMAP
00C000
07C000
01C000
01C000
01C000
038000
FFF800
FFF800
039E00
073F00
076700
068700
0F0700
0E0700
0E0700
0E0E00
1C0E00
1C0E00
1C0E00
1C1C80
381D00
381F00
380E00
ENDCHAR
STARTCHAR Itilde
ENCODING 296
SWIDTH 333 0
DWIDTH 11 0
BBX 14 27 -1 0
BITMAP
01CC
07F8
0CE0
0000
07F8
01E0
01C0
01C0
03C0
0380
0380
0780
0780
0700
0700
0F00
0F00
0E00
0E00
1E00
1C00
1C00
1C00
3C00
3800
7800
FE00
ENDCHAR
STARTCHAR itilde
ENCODING 297
SWIDTH 278 0
DWIDTH 9 0
BBX 10 19 2 0
BITMAP
1CC0
7F80
CE00
0000
0C00
7C00
1C00
1800
3800
3800
3000
7000
7000
7000
6000
E400
E800
F800
7000
ENDCHAR
STARTCHAR Imacron
ENCODING 298
SWIDTH 333 0
DWIDTH 11 0
BBX 13 26 -1 0
BITMAP
07F8
0FF0
0000
07F8
01E0
01C0
01C0
03C0
0380
0380
0780
0780
0700
0700
0F00
0F00
0E00
0E00
1E00
1C00
1C00
1C00
3C00
3800
7800
FE00
ENDCHAR
STARTCHAR imacron
ENCODING 299
SWIDTH 278 0
DWIDTH 9 0
BBX 9 18 2 0
BITMAP
7F80
FF00
0000
0C00
7C00
1C00
1800
3800
3800
3000
7000
7000
7000
6000
E400
E800
F800
7000
ENDCHAR
STARTCHAR Ibreve
ENCODING 300
SWIDTH 333 0
DWIDTH 11 0
BBX 13 28 -1 0
BITMAP
0810
0C30
07E0
03C0
0000
07F8
01E0
01C0
01C0
03C0
0380
0380
0780
0780
0700
0700
0F00
0F00
0E00
0E00
1E00
1C00
1C00
1C00
3C00
3800
7800
FE00
ENDCHAR
STARTCHAR ibreve
ENCODING 301
SWIDTH 278 0
DWIDTH 9 0
BBX 8 20 2 0
BITMAP
81
C3
7E
3C
00
0C
7C
1C
18
38
38
30
70
70
70
60
E4
E8
F8
70
ENDCHAR
STARTCHAR Iogonek
ENCODING 302
SWIDTH 333 0
DWIDTH 11 0
BBX 13 28 -1 -5
BITMAP
07F8
01E0
01C0
01C0
03C0
0380
0380
0780
0780
0700
0700
0F00
0F00
0E00
0E00
1E00
1C00
1C00
1C00
3C00
3C00
7800
FE00
3000
3000
3880
1F00
0E00
ENDCHAR
STARTCHAR iogonek
ENCODING 303
SWIDTH 278 0
DWIDTH 9 0
BBX 7 28 2 -5
BITMAP
0E
0E
0E
00
00
00
00
00
0C
7C
1C
18
38
38
30
70
70
70
60
E4
F8
F8
70
C0
C0
E2
7C
38
ENDCHAR
STARTCHAR Idotaccent
ENCODING 304
SWIDTH 333 0
DWIDTH 11 0
BBX 13 28 -1 0
BITMAP
0180
03C0
03C0
0180
0000
07F8
01E0
01C0
01C0
03C0
0380
0380
0780
0780
0700
0700
0F00
0F00
0E00
0E00
1E00
1C00
1C00
1C00
3C00
3800
7800
FE00
ENDCHAR
STARTCHAR dotlessi
ENCODING 305
SWIDTH 278 0
DWIDTH 9 0
BBX 6 15 2 0
BITMAP
0C
7C
1C
18
38
38
30
70
70
70
60
E4
E8
F8
70
ENDCHAR
STARTCHAR IJ
ENCODING 306
SWIDTH 760 0
DWIDTH 25 0
BBX 28 23 -1 0
BITMAP
07F81FF0
01E007C0
01C00780
01C00780
03C00700
03800700
03800F00
07800F00
07800E00
07000E00
07001E00
0F001C00
0F001C00
0E003C00
0E003C00
1E003800
1C003800
1C007800
1C187000
3C3C7000
383CE000
781EE000
FE0F8000
ENDCHAR
STARTCHAR ij
ENCODING 307
SWIDTH 542 0
DWIDTH 18 0
BBX 17 30 2 -7
BITMAP
0E0380
0E0380
0E0380
000000
000000
000000
000000
000000
0C0700
7C1F00
1C0600
180600
380600
380E00
300E00
700C00
700C00
701C00
601C00
E41800
E81800
F83800
703800
003800
003000
007000
0C6000
1CE000
1DC000
0F0000
ENDCHAR
STARTCHAR Jcircumflex
ENCODING 308
SWIDTH 444 0
DWIDTH 15 0
BBX 18 30 -1 0
BITMAP
001C00
003C00
006E00
00C600
018700
030300
000000
007FC0
001F00
001E00
001E00
001C00
001C00
003C00
003C00
003800
003800
007800
007000
007000
00F000
00F000
00E000
00E000
01E000
61C000
F1C000
F38000
7B8000
3E0000
ENDCHAR
STARTCHAR jcircumflex
ENCODING 309
SWIDTH 278 0
DWIDTH 9 0
BBX 14 29 -4 -7
BITMAP
0070
00F0
01B8
0318
061C
0C0C
0000
0038
00F8
0030
0030
0030
0070
0070
0060
0060
00E0
00E0
00C0
00C0
01C0
01C0
01C0
0180
0380
6300
E700
EE00
7800
ENDCHAR
STARTCHAR Kcommaaccent
ENCODING 310
SWIDTH 667 0
DWIDTH 22 0
BBX 23 32 0 -9
BITMAP
07F9FE
01E078
01C060
01C0C0
03C180
038300
038600
078C00
079800
077000
07E000
0FF000
0F7800
0E3800
0E3C00
1E1C00
1C1E00
1C0F00
1C0780
3C0780
3C03C0
3803E0
FF07F8
000000
003800
003800
003800
001800
001000
003000
006000
00C000
ENDCHAR
STARTCHAR kcommaaccent
ENCODING 311
SWIDTH 444 0
DWIDTH 15 0
BBX 15 32 1 -9
BITMAP
0300
1F00
0700
0600
0E00
0E00
0C00
0C00
1C7E
1C18
1830
3860
38C0
3980
3B00
7F00
7F00
7380
73C0
61C4
E1E8
E0F8
E070
0000
0380
0380
0380
0180
0100
0300
0600
0C00
ENDCHAR
STARTCHAR kgreenlandic
ENCODING 312
SWIDTH 444 0
DWIDTH 15 0
BBX 15 15 1 0
BITMAP
1C7E
1C18
1830
3860
38C0
3980
3B00
7F00
7F00
7380
73C0
61C4
E1E8
E0F8
E070
ENDCHAR
STARTCHAR Lacute
ENCODING 313
SWIDTH 556 0
DWIDTH 18 0
BBX 19 30 -1 0
BITMAP
001800
003800
007000
00E000
018000
010000
000000
07F800
01E000
01C000
01C000
03C000
038000
038000
078000
078000
070000
070000
0F0000
0F0000
0E0000
0E0000
1E0000
1C0000
1C0020
1C0060
3C00C0
3C01C0
7FFF80
FFFF80
ENDCHAR
STARTCHAR lacute
ENCODING 314
SWIDTH 278 0
DWIDTH 9 0
BBX 10 30 2 0
BITMAP
00C0
01C0
0380
0700
0C00
0800
0000
0300
1F00
0700
0600
0E00
0E00
0C00
0C00
1C00
1C00
1800
3800
3800
3800
3000
7000
7000
6000
6000
E400
E800
F800
7000
ENDCHAR
STARTCHAR Lcommaaccent
ENCODING 315
SWIDTH 556 0
DWIDTH 18 0
BBX 19 32 -1 -9
BITMAP
07F800
01E000
01C000
01C000
03C000
038000
038000
078000
078000
070000
070000
0F0000
0F0000
0E0000
0E0000
1E0000
1C0000
1C0020
1C0060
3C00C0
3C01C0
7FFF80
FFFF80
000000
00E000
00E000
00E000
006000
004000
00C000
018000
030000
ENDCHAR
STARTCHAR lcommaaccent
ENCODING 316
SWIDTH 278 0
DWIDTH 9 0
BBX 8 32 2 -9
BITMAP
03
1F
07
06
0E
0E
0C
0C
1C
1C
18
38
38
38
30
70
70
60
60
E4
E8
F8
70
00
38
38
38
18
10
30
60
C0
ENDCHAR
STARTCHAR Lcaron
ENCODING 317
SWIDTH 861 0
DWIDTH 28 0
BBX 24 23 -1 0
BITMAP
07F807
01E007
01C007
01C003
03C002
038006
03800C
078018
078000
070000
070000
0F0000
0F0000
0E0000
0E0000
1E0000
1C0000
1C0020
1C0060
3C00C0
3C01C0
7FFF80
FFFF80
ENDCHAR
STARTCHAR lcaron
ENCODING 318
SWIDTH 597 0
DWIDTH 20 0
BBX 13 23 2 0
BITMAP
0338
1F38
0738
0618
0E10
0E30
0C60
0CC0
1C00
1C00
1800
3800
3800
3800
3000
7000
7000
6000
6000
E400
E800
F800
7000
ENDCHAR
STARTCHAR Ldot
ENCODING 319
SWIDTH 778 0
DWIDTH 25 0
BBX 24 23 -1 0
BITMAP
07F800
01E000
01C000
01C000
03C000
038000
038000
078000
078000
070000
070000
0F0000
0F0000
0E000F
0E000F
1E000F
1C000F
1C0020
1C0060
3C00C0
3C01C0
7FFF80
FFFF80
ENDCHAR
STARTCHAR ldot
ENCODING 320
SWIDTH 514 0
DWIDTH 17 0
BBX 13 23 2 0
BITMAP
0300
1F00
0700
0600
0E00
0E00
0C00
0C00
1C00
1C00
1800
3800
3800
3878
3078
7078
7078
6000
6000
E400
E800
F800
7000
ENDCHAR
STARTCHAR Lslash
ENCODING 321
SWIDTH 556 0
DWIDTH 18 0
BBX 19 23 -1 0
BITMAP
07F800
01E000
01C000
01C000
03C000
038000
038000
079800
07B000
07E000
07C000
0F0000
3F0000
7E0000
4E0000
1E0000
1C0000
1C0020
1C0060
3C00C0
3C01C0
7FFF80
FFFF80
ENDCHAR
STARTCHAR lslash
ENCODING 322
SWIDTH 278 0
DWIDTH 9 0
BBX 9 23 1 0
BITMAP
0700
1F00
0700
0600
0E00
0E00
0C00
0D80
1F80
1E00
1800
F800
F800
3800
3000
7000
7000
6000
6000
E400
E800
F800
7000
ENDCHAR
STARTCHAR Nacute
ENCODING 323
SWIDTH 667 0
DWIDTH 22 0
BBX 25 30 -1 0
BITMAP
0000C000
0001C000
00038000
00070000
000C0000
00080000
00000000
07C03F80
01E00E00
01E00C00
01E00C00
01700C00
01700800
03780800
03381800
02381800
021C1000
061C1000
061E3000
040E3000
040E2000
0C072000
0C076000
08076000
0803E000
1803C000
1801C000
1801C000
3801C000
FE00C000
ENDCHAR
STARTCHAR nacute
ENCODING 324
SWIDTH 500 0
DWIDTH 16 0
BBX 15 22 1 0
BITMAP
0030
0070
00E0
01C0
0300
0200
0000
0C78
7CFC
1D1C
1A1C
3C1C
381C
3838
3838
7038
7038
7070
6072
E074
E07C
E038
ENDCHAR
STARTCHAR Ncommaaccent
ENCODING 325
SWIDTH 667 0
DWIDTH 22 0
BBX 25 32 -1 -9
BITMAP
07C03F80
01E00E00
01E00C00
01E00C00
01700C00
01700800
03780800
03381800
02381800
021C1000
061C1000
061E3000
040E3000
040E2000
0C072000
0C076000
08076000
0803E000
1803C000
1801C000
1801C000
3801C000
FE00C000
00000000
00380000
00380000
00380000
00180000
00100000
00300000
00600000
00C00000
ENDCHAR
STARTCHAR ncommaaccent
ENCODING 326
SWIDTH 500 0
DWIDTH 16 0
BBX 15 24 1 -9
BITMAP
0C78
7CFC
1D1C
1A1C
3C1C
381C
3838
3838
7038
7038
7070
6072
E074
E07C
E038
0000
0380
0380
0380
0180
0100
0300
0600
0C00
ENDCHAR
STARTCHAR Ncaron
ENCODING 327
SWIDTH 667 0
DWIDTH 22 0
BBX 25 30 -1 0
BITMAP
00606000
0070C000
00318000
003B0000
001E0000
001C0000
00000000
07C03F80
01E00E00
01E00C00
01E00C00
01700C00
01700800
03780800
03381800
02381800
021C1000
061C1000
061E3000
040E3000
040E2000
0C072000
0C076000
08076000
0803E000
1803C000
1801C000
1801C000
3801C000
FE00C000
ENDCHAR
STARTCHAR ncaron
ENCODING 328
SWIDTH 500 0
DWIDTH 16 0
BBX 15 22 1 0
BITMAP
0C0C
0E18
0630
0760
03C0
0380
0000
0C78
7CFC
1D1C
1A1C
3C1C
381C
3838
3838
7038
7038
7070
6072
E074
E07C
E038
ENDCHAR
STARTCHAR napostrophe
ENCODING 329
SWIDTH 816 0
DWIDTH 26 0
BBX 25 23 1 0
BITMAP
38000000
38000000
38000000
18000000
10000000
30000000
60000000
C0000000
00031E00
001F3F00
00074700
00068700
000F0700
000E0700
000E0E00
000E0E00
001C0E00
001C0E00
001C1C00
00181C80
00381D00
00381F00
00380E00
ENDCHAR
STARTCHAR Eng
ENCODING 330
SWIDTH 667 0
DWIDTH 22 0
BBX 25 30 -1 -7
BITMAP
07C03F80
01E00E00
01E00C00
01E00C00
01700C00
01700800
03780800
03381800
02381800
021C1000
061C1000
061E3000
040E3000
040E2000
0C072000
0C076000
08076000
0803E000
1803E000
1801C000
1801C000
3801C000
FE01C000
0001C000
00018000
00038000
00630000
00E70000
00EE0000
00780000
ENDCHAR
STARTCHAR eng
ENCODING 331
SWIDTH 500 0
DWIDTH 16 0
BBX 14 22 1 -7
BITMAP
0C78
7CFC
1D1C
1A1C
3C1C
381C
3838
3838
7038
7038
7038
6030
E030
E070
E070
0070
0060
00E0
18C0
39C0
3B80
1E00
ENDCHAR
STARTCHAR Omacron
ENCODING 332
SWIDTH 722 0
DWIDTH 24 0
BBX 19 26 3 0
BITMAP
00FF00
01FE00
000000
007E00
01C780
0301C0
0701C0
0E00E0
1E00E0
1C00E0
3800E0
7800E0
7801E0
7001E0
F001E0
F001C0
F003C0
E003C0
E00380
E00700
E00F00
E00E00
701C00
703800
3CE000
0F8000
ENDCHAR
STARTCHAR omacron
ENCODING 333
SWIDTH 500 0
DWIDTH 17 0
BBX 15 18 1 0
BITMAP
03FC
07F8
0000
01F0
039C
0E0C
1C0E
180E
380E
700E
701C
E01C
E038
E030
E070
60E0
7380
1F00
ENDCHAR
STARTCHAR Obreve
ENCODING 334
SWIDTH 722 0
DWIDTH 24 0
BBX 19 28 3 0
BITMAP
010200
018600
00FC00
007800
000000
007E00
01C780
0301C0
0701C0
0E00E0
1E00E0
1C00E0
3800E0
7800E0
7801E0
7001E0
F001E0
F001C0
F003C0
E003C0
E00380
E00700
E00F00
E00E00
701C00
703800
3CE000
0F8000
ENDCHAR
STARTCHAR obreve
ENCODING 335
SWIDTH 500 0
DWIDTH 17 0
BBX 15 20 1 0
BITMAP
0408
0618
03F0
01E0
0000
01F0
039C
0E0C
1C0E
180E
380E
700E
701C
E01C
E038
E030
E070
60E0
7380
1F00
ENDCHAR
STARTCHAR Ohungarumlaut
ENCODING 336
SWIDTH 722 0
DWIDTH 24 0
BBX 19 32 3 0
BITMAP
003180
007380
006300
00E700
00C600
00C600
018C00
018C00
000000
007E00
01C780
0301C0
0701C0
0E00E0
1E00E0
1C00E0
3800E0
7800E0
7801E0
7001E0
F001E0
F001C0
F003C0
E003C0
E00380
E00700
E00F00
E00E00
701C00
703800
3CE000
0F8000
ENDCHAR
STARTCHAR ohungarumlaut
ENCODING 337
SWIDTH 500 0
DWIDTH 17 0
BBX 15 24 1 0
BITMAP
018C
039C
0318
0738
0630
0630
0C60
0C60
0000
01F0
039C
0E0C
1C0E
180E
380E
700E
701C
E01C
E038
E030
E070
60E0
7380
1F00
ENDCHAR
STARTCHAR OE
ENCODING 338
SWIDTH 944 0
DWIDTH 31 0
BBX 30 23 1 0
BITMAP
007F7FFC
01FFFFFC
03C3E00C
0701E00C
0E01E008
1E01C000
1C01C000
3803C040
7803C0C0
78038080
70038180
F007FF80
F0078380
F0070100
E0070100
E00F0100
E00E0000
E00E0010
E00E0020
701E0060
703E00C0
3CFFFFC0
0FCFFF80
ENDCHAR
STARTCHAR oe
ENCODING 339
SWIDTH 667 0
DWIDTH 22 0
BBX 20 15 1 0
BITMAP
01F1E0
03BBB0
0E1E30
1C1C30
181C60
3818C0
703F80
703E00
E03000
E07000
E07000
E07060
60F0E0
73BF80
1F1E00
ENDCHAR
STARTCHAR Racute
ENCODING 340
SWIDTH 611 0
DWIDTH 20 0
BBX 20 30 -1 0
BITMAP
000300
000700
000E00
001C00
003000
002000
000000
03FF80
00F3E0
00E0E0
00E070
01E070
01C070
01C070
03C070
03C0E0
0380E0
0383C0
07FF00
07FC00
071C00
071C00
0F0E00
0E0E00
0E0700
0E0700
1E0780
1C0380
3E03C0
FF83F0
ENDCHAR
STARTCHAR racute
ENCODING 341
SWIDTH 389 0
DWIDTH 13 0
BBX 12 22 2 0
BITMAP
0060
00E0
01C0
0380
0600
0400
0000
0C60
7CF0
19F0
1B30
1E00
3C00
3800
3800
3000
7000
7000
7000
6000
E000
E000
ENDCHAR
STARTCHAR Rcommaaccent
ENCODING 342
SWIDTH 611 0
DWIDTH 20 0
BBX 20 32 -1 -9
BITMAP
03FF80
00F3E0
00E0E0
00E070
01E070
01C070
01C070
03C070
03C0E0
0380E0
0383C0
07FF00
07FC00
071C00
071C00
0F0E00
0E0E00
0E0700
0E0700
1E0780
1C0380
3E03C0
FF83F0
000000
007000
007000
007000
003000
002000
006000
00C000
018000
ENDCHAR
STARTCHAR rcommaaccent
ENCODING 343
SWIDTH 389 0
DWIDTH 13 0
BBX 12 24 2 -9
BITMAP
0C60
7CF0
19F0
1B30
1E00
3C00
3800
3800
3000
7000
7000
7000
6000
E000
E000
0000
3800
3800
3800
1800
1000
3000
6000
C000
ENDCHAR
STARTCHAR Rcaron
ENCODING 344
SWIDTH 611 0
DWIDTH 20 0
BBX 20 30 -1 0
BITMAP
00C0C0
00E180
006300
007600
003C00
003800
000000
03FF80
00F3E0
00E0E0
00E070
01E070
01C070
01C070
03C070
03C0E0
0380E0
0383C0
07FF00
07FC00
071C00
071C00
0F0E00
0E0E00
0E0700
0E0700
1E0780
1C0380
3E03C0
FF83F0
ENDCHAR
STARTCHAR rcaron
ENCODING 345
SWIDTH 389 0
DWIDTH 13 0
BBX 13 22 2 0
BITMAP
1818
1C30
0C60
0EC0
0780
0700
0000
0C60
7CF0
19F0
1B30
1E00
3C00
3800
3800
3000
7000
7000
7000
6000
E000
E000
ENDCHAR
STARTCHAR Sacute
ENCODING 346
SWIDTH 500 0
DWIDTH 17 0
BBX 16 30 2 0
BITMAP
0018
0038
0070
00E0
0180
0100
0000
03F1
071F
0E0E
0C06
1C06
1C04
1C04
1E00
0F00
0F80
07C0
03E0
01E0
00F0
0078
0078
8038
8038
8038
C070
C070
F1E0
BF80
ENDCHAR
STARTCHAR sacute
ENCODING 347
SWIDTH 389 0
DWIDTH 13 0
BBX 12 22 1 0
BITMAP
0060
00E0
01C0
0380
0600
0400
0000
07D0
0E70
1C30
1C10
1C10
1E00
0E00
0700
0780
0380
81C0
81C0
C1C0
E380
BF00
ENDCHAR
STARTCHAR Scircumflex
ENCODING 348
SWIDTH 500 0
DWIDTH 17 0
BBX 16 30 2 0
BITMAP
0070
00F0
01B8
0318
061C
0C0C
0000
03F1
071F
0E0E
0C06
1C06
1C04
1C04
1E00
0F00
0F80
07C0
03E0
01E0
00F0
0078
0078
8038
8038
8038
C070
C070
F1E0
BF80
ENDCHAR
STARTCHAR scircumflex
ENCODING 349
SWIDTH 389 0
DWIDTH 13 0
BBX 12 22 1 0
BITMAP
01C0
03C0
06E0
0C60
1870
3030
0000
07D0
0E70
1C30
1C10
1C10
1E00
0E00
0700
0780
0380
81C0
81C0
C1C0
E380
BF00
ENDCHAR
STARTCHAR Scedilla
ENCODING 350
SWIDTH 500 0
DWIDTH 17 0
BBX 16 30 2 -7
BITMAP
03F1
071F
0E0E
0C06
1C06
1C04
1C04
1E00
0F00
0F80
07C0
03E0
01E0
00F0
0078
0078
8038
8038
8038
C070
C070
F1E0
BF80
0300
0600
0F80
01C0
00C0
11C0
0F80
ENDCHAR
STARTCHAR scedilla
ENCODING 351
SWIDTH 389 0
DWIDTH 13 0
BBX 12 22 1 -7
BITMAP
07D0
0E70
1C30
1C10
1C10
1E00
0E00
0700
0780
0380
81C0
81C0
C1C0
E380
BF00
0600
0C00
1F00
0380
0180
2380
1F00
ENDCHAR
STARTCHAR Scaron
ENCODING 352
SWIDTH 500 0
DWIDTH 16 0
BBX 17 26 0 0
BITMAP
018180
01C300
00C600
00EC00
007800
007000
000000
01F980
038F00
070700
0E0300
0E0200
0F0200
078000
07E000
03E000
00F800
003800
803C00
801C00
C01C00
C01C00
E03800
F07800
FFF000
BFC000
ENDCHAR
STARTCHAR scaron
ENCODING 353
SWIDTH 389 0
DWIDTH 13 0
BBX 14 22 1 0
BITMAP
0C0C
0E18
0630
0760
03C0
0380
0000
07D0
0E70
1C30
1C10
1C10
1E00
0E00
0700
0780
0380
81C0
81C0
C1C0
E380
BF00
ENDCHAR
STARTCHAR Tcommaaccent
ENCODING 354
SWIDTH 556 0
DWIDTH 18 0
BBX 18 30 3 -7
BITMAP
FFFFC0
E1E1C0
C1E0C0
81E0C0
81C080
01C000
03C000
03C000
038000
038000
078000
078000
070000
070000
0F0000
0F0000
0E0000
0E0000
1E0000
1E0000
1E0000
3E0000
FF8000
030000
060000
0F8000
01C000
00C000
11C000
0F8000
ENDCHAR
STARTCHAR tcommaaccent
ENCODING 355
SWIDTH 278 0
DWIDTH 9 0
BBX 9 26 1 -7
BITMAP
0200
0200
0600
0E00
3F80
0E00
0C00
1C00
1C00
1C00
1800
3800
3800
3000
3000
7200
7400
7C00
3800
1800
3000
7C00
0E00
0600
8E00
7C00
ENDCHAR
STARTCHAR Tcaron
ENCODING 356
SWIDTH 556 0
DWIDTH 18 0
BBX 18 30 3 0
BITMAP
060600
070C00
031800
03B000
01E000
01C000
000000
FFFFC0
E1E1C0
C1E0C0
81E0C0
81C080
01C000
03C000
03C000
038000
038000
078000
078000
070000
070000
0F0000
0F0000
0E0000
0E0000
1E0000
1E0000
1E0000
3E0000
FF8000
ENDCHAR
STARTCHAR tcaron
ENCODING 357
SWIDTH 597 0
DWIDTH 20 0
BBX 13 23 2 0
BITMAP
0038
0038
0038
0018
0410
0430
0C60
1CC0
7F00
1C00
1800
3800
3800
3800
3000
7000
7000
6000
6000
E400
E800
F800
7000
ENDCHAR
STARTCHAR Tbar
ENCODING 358
SWIDTH 556 0
DWIDTH 18 0
BBX 18 23 3 0
BITMAP
FFFFC0
E1E1C0
C1E0C0
81E0C0
81C080
01C000
03C000
03C000
038000
038000
1FFF00
1FFF00
070000
070000
0F0000
0F0000
0E0000
0E0000
1E0000
1E0000
1E0000
3E0000
FF8000
ENDCHAR
STARTCHAR tbar
ENCODING 359
SWIDTH 278 0
DWIDTH 9 0
BBX 13 19 0 0
BITMAP
0100
0100
0300
0700
1FC0
0700
0600
0E00
0E00
0E00
0C00
FFF8
FFF8
1800
1800
3900
3A00
3E00
1C00
ENDCHAR
STARTCHAR Utilde
ENCODING 360
SWIDTH 722 0
DWIDTH 24 0
BBX 23 27 3 0
BITMAP
003980
00FF00
019C00
000000
7FC0FE
1F0038
0E0018
0E0010
1E0030
1C0030
1C0020
3C0020
380060
380040
380040
7800C0
7000C0
700080
F00180
F00180
E00100
E00300
E00300
700600
781C00
3FF800
0FE000
ENDCHAR
STARTCHAR utilde
ENCODING 361
SWIDTH 500 0
DWIDTH 17 0
BBX 15 19 1 0
BITMAP
0398
0FF0
19C0
0000
1C1C
FC1C
1C1C
381C
3838
3838
3838
3838
7038
7070
7070
70F0
71B2
7F3C
3C18
ENDCHAR
STARTCHAR Umacron
ENCODING 362
SWIDTH 722 0
DWIDTH 24 0
BBX 23 26 3 0
BITMAP
00FF00
01FE00
000000
7FC0FE
1F0038
0E0018
0E0010
1E0030
1C0030
1C0020
3C0020
380060
380040
380040
7800C0
7000C0
700080
F00180
F00180
E00100
E00300
E00300
700600
781C00
3FF800
0FE000
ENDCHAR
STARTCHAR umacron
ENCODING 363
SWIDTH 500 0
DWIDTH 17 0
BBX 15 18 1 0
BITMAP
0FF0
1FE0
0000
1C1C
FC1C
1C1C
381C
3838
3838
3838
3838
7038
7070
7070
70F0
71B2
7F3C
3C18
ENDCHAR
STARTCHAR Ubreve
ENCODING 364
SWIDTH 722 0
DWIDTH 24 0
BBX 23 28 3 0
BITMAP
010200
018600
00FC00
007800
000000
7FC0FE
1F0038
0E0018
0E0010
1E0030
1C0030
1C0020
3C0020
380060
380040
380040
7800C0
7000C0
700080
F00180
F00180
E00100
E00300
E00300
700600
781C00
3FF800
0FE000
ENDCHAR
STARTCHAR ubreve
ENCODING 365
SWIDTH 500 0
DWIDTH 17 0
BBX 15 20 1 0
BITMAP
0810
0C30
07E0
03C0
0000
1C1C
FC1C
1C1C
381C
3838
3838
3838
3838
7038
7070
7070
70F0
71B2
7F3C
3C18
ENDCHAR
STARTCHAR Uring
ENCODING 366
SWIDTH 722 0
DWIDTH 24 0
BBX 23 30 3 0
BITMAP
007800
00CC00
008400
008400
00CC00
007800
000000
7FC0FE
1F0038
0E0018
0E0010
1E0030
1C0030
1C0020
3C0020
380060
380040
380040
7800C0
7000C0
700080
F00180
F00180
E00100
E00300
E00300
700600
781C00
3FF800
0FE000
ENDCHAR
STARTCHAR uring
ENCODING 367
SWIDTH 500 0
DWIDTH 17 0
BBX 15 22 1 0
BITMAP
03C0
0660
0420
0420
0660
03C0
0000
1C1C
FC1C
1C1C
381C
3838
3838
3838
3838
7038
7070
7070
70F0
71B2
7F3C
3C18
ENDCHAR
STARTCHAR Uhungarumlaut
ENCODING 368
SWIDTH 722 0
DWIDTH 24 0
BBX 23 32 3 0
BITMAP
003180
007380
006300
00E700
00C600
00C600
018C00
018C00
000000
7FC0FE
1F0038
0E0018
0E0010
1E0030
1C0030
1C0020
3C0020
380060
380040
380040
7800C0
7000C0
700080
F00180
F00180
E00100
E00300
E00300
700600
781C00
3FF800
0FE000
ENDCHAR
STARTCHAR uhungarumlaut
ENCODING 369
SWIDTH 500 0
DWIDTH 17 0
BBX 15 24 1 0
BITMAP
0318
0738
0630
0E70
0C60
0C60
18C0
18C0
0000
1C1C
FC1C
1C1C
381C
3838
3838
3838
3838
7038
7070
7070
70F0
71B2
7F3C
3C18
ENDCHAR
STARTCHAR Uogonek
ENCODING 370
SWIDTH 722 0
DWIDTH 24 0
BBX 23 28 3 -5
BITMAP
7FC0FE
1F0038
0E0018
0E0010
1E0030
1C0030
1C0020
3C0020
380060
380040
380040
7800C0
7000C0
700080
F00180
F00180
E00100
E00300
E00300
700600
785C00
3FF800
0FE000
030000
030000
038800
01F000
00E000
ENDCHAR
STARTCHAR uogonek
ENCODING 371
SWIDTH 500 0
DWIDTH 17 0
BBX 15 20 1 -5
BITMAP
1C1C
FC1C
1C1C
381C
3838
3838
3838
3838
7038
7070
7070
70F0
71B2
7F3C
3E18
0C00
0C00
0E20
07C0
0380
ENDCHAR
STARTCHAR Wcircumflex
ENCODING 372
SWIDTH 833 0
DWIDTH 28 0
BBX 31 30 1 0
BITMAP
00038000
00078000
000DC000
0018C000
0030E000
00606000
00000000
FF0FE0FE
3C038038
1C038030
1C038060
1C038060
1C0380C0
1C0780C0
1C058180
1C0D8180
1C09C300
0E19C200
0E19C600
0E31C400
0E31CC00
0E61C800
0E41D800
0EC0F000
0780F000
0700E000
0700E000
0600C000
0600C000
04008000
ENDCHAR
STARTCHAR wcircumflex
ENCODING 373
SWIDTH 667 0
DWIDTH 22 0
BBX 21 22 0 0
BITMAP
001C00
003C00
006E00
00C600
018700
030300
000000
180C70
FC1C78
3C1C38
1C3C18
1C3C38
0C6C30
0CCC30
0CCC60
0D8CE0
0D0CC0
0F0D80
0E0F80
0C0F00
0C0E00
080C00
ENDCHAR
STARTCHAR Ycircumflex
ENCODING 374
SWIDTH 556 0
DWIDTH 19 0
BBX 20 30 1 0
BITMAP
007000
00F000
01B800
031800
061C00
0C0C00
000000
7F87F0
1E01C0
1E0300
1E0300
0E0600
0E0C00
0F1800
0F1800
073000
076000
07E000
03C000
03C000
038000
038000
078000
070000
070000
070000
0E0000
0E0000
1E0000
FFC000
ENDCHAR
STARTCHAR ycircumflex
ENCODING 375
SWIDTH 444 0
DWIDTH 15 0
BBX 16 29 -1 -7
BITMAP
0070
00F0
01B8
0318
061C
0C0C
0000
0707
3F07
0F03
0303
0383
0386
0386
018C
019C
0198
01B8
01F0
01E0
01E0
01C0
0180
0180
0300
0600
6E00
FC00
7000
ENDCHAR
STARTCHAR Ydieresis
ENCODING 376
SWIDTH 556 0
DWIDTH 19 0
BBX 19 25 -1 0
BITMAP
01C700
01C700
01C700
000000
000000
000000
7F8FE0
1E0180
1E0300
1E0600
070C00
071800
07B000
03E000
03C000
038000
078000
070000
070000
0F0000
0F0000
0E0000
0E0000
1F0000
FFC000
ENDCHAR
STARTCHAR Zacute
ENCODING 377
SWIDTH 556 0
DWIDTH 19 0
BBX 20 30 0 0
BITMAP
000300
000700
000E00
001C00
003000
002000
000000
07FFF0
0FFFF0
0C01E0
0803C0
080780
000780
000F00
001E00
003C00
003C00
007800
00F000
01E000
01E000
03C000
078000
0F0000
0F0000
1E0040
3C0040
7800C0
FFFFC0
FFFF80
ENDCHAR
STARTCHAR zacute
ENCODING 378
SWIDTH 389 0
DWIDTH 13 0
BBX 14 22 -1 0
BITMAP
0030
0070
00E0
01C0
0300
0200
0000
0FFC
1FFC
1838
3070
00E0
00C0
0180
0300
0600
0E00
1C00
3830
7060
FFE0
FFC0
ENDCHAR
STARTCHAR Zdotaccent
ENCODING 379
SWIDTH 556 0
DWIDTH 19 0
BBX 20 28 0 0
BITMAP
001800
003C00
003C00
001800
000000
07FFF0
0FFFF0
0C01E0
0803C0
080780
000780
000F00
001E00
003C00
003C00
007800
00F000
01E000
01E000
03C000
078000
0F0000
0F0000
1E0040
3C0040
7800C0
FFFFC0
FFFF80
ENDCHAR
STARTCHAR zdotaccent
ENCODING 380
SWIDTH 389 0
DWIDTH 13 0
BBX 14 20 -1 0
BITMAP
0180
03C0
03C0
0180
0000
0FFC
1FFC
1838
3070
00E0
00C0
0180
0300
0600
0E00
1C00
3830
7060
FFE0
FFC0
ENDCHAR
STARTCHAR Zcaron
ENCODING 381
SWIDTH 556 0
DWIDTH 18 0
BBX 21 26 -2 0
BITMAP
003030
003860
0018C0
001D80
000F00
000E00
000000
03FFF8
0780F0
0601E0
0C03C0
080780
100F00
001E00
003C00
007800
00F000
01E000
03C000
078000
0F0020
1E0040
3C00C0
780180
FFFF80
FFFF00
ENDCHAR
STARTCHAR zcaron
ENCODING 382
SWIDTH 389 0
DWIDTH 13 0
BBX 14 22 1 0
BITMAP
0C0C
0E18
0630
0760
03C0
0380
0000
7FE0
FFE0
80E0
01C0
0180
0300
0600
0E00
1C00
1800
3000
7000
E020
FFE0
FFC0
ENDCHAR
STARTCHAR uni0186
ENCODING 390
SWIDTH 667 0
DWIDTH 22 0
BBX 21 23 2 0
BITMAP
007F00
01FFC0
0381E0
0600F0
0C0070
100078
000038
000038
000038
000038
000038
000038
000078
000070
000070
0000E0
2001E0
2001C0
600380
600700
701E00
FFF800
8FE000
ENDCHAR
STARTCHAR uni0189
ENCODING 393
SWIDTH 722 0
DWIDTH 23 0
BBX 24 23 0 0
BITMAP
07FF80
01FFE0
01C0F8
01C03C
03C01E
03C00E
03800F
038007
078007
070007
070007
3FF807
3FF007
0E000E
0E000E
1E001C
1C003C
1C0078
3C00F0
3803E0
380F80
7FFE00
FFF000
ENDCHAR
STARTCHAR uni018E
ENCODING 398
SWIDTH 611 0
DWIDTH 20 0
BBX 22 23 -1 0
BITMAP
0FFFFC
0E00F0
1801E0
1801E0
1001C0
0001C0
0001C0
0203C0
020380
020380
070780
07FF80
060700
040700
0C0F00
080F00
000E00
000E00
401E00
401C00
C01C00
E03C00
FFFF00
ENDCHAR
STARTCHAR florin
ENCODING 402
SWIDTH 500 0
DWIDTH 17 0
BBX 19 30 -2 -7
BITMAP
0007C0
000EE0
001CE0
001840
003800
003800
003000
007000
03FF00
007000
007000
00E000
00E000
00E000
00E000
01E000
01C000
01C000
01C000
01C000
038000
038000
038000
038000
070000
070000
670000
EE0000
EC0000
780000
ENDCHAR
STARTCHAR uni0197
ENCODING 407
SWIDTH 333 0
DWIDTH 11 0
BBX 13 23 -1 0
BITMAP
07F8
01E0
01C0
01C0
03C0
0380
0380
0780
0780
0700
FFF8
FFF8
0F00
0E00
0E00
1E00
1C00
1C00
1C00
3C00
3800
7800
FE00
ENDCHAR
STARTCHAR uni019A
ENCODING 410
SWIDTH 278 0
DWIDTH 9 0
BBX 13 23 0 0
BITMAP
00C0
07C0
01C0
0180
0380
0380
0300
0300
0700
0700
FFF8
FFF8
0E00
0E00
0C00
1C00
1C00
1800
1800
3900
3A00
3E00
1C00
ENDCHAR
STARTCHAR uni019D
ENCODING 413
SWIDTH 667 0
DWIDTH 22 0
BBX 29 30 -5 -7
BITMAP
007C03F8
001E00E0
001E00C0
001E00C0
001700C0
00170080
00378080
00338180
00238180
0021C100
0061C100
0061E300
0040E300
0040E200
00C07200
00C07600
00807600
00E03E00
00E03C00
00C01C00
00C01C00
01C01C00
01C00C00
01C00000
01800000
03800000
63000000
E7000000
EE000000
78000000
ENDCHAR
STARTCHAR uni019F
ENCODING 415
SWIDTH 722 0
DWIDTH 24 0
BBX 19 23 3 0
BITMAP
007E00
01C780
0301C0
0701C0
0E00E0
1E00E0
1C00E0
3800E0
7800E0
7801E0
FFFFE0
FFFFE0
F001C0
F003C0
E003C0
E00380
E00700
E00F00
E00E00
701C00
703800
3CE000
0F8000
ENDCHAR
STARTCHAR Ohorn
ENCODING 416
SWIDTH 722 0
DWIDTH 24 0
BBX 22 23 3 0
BITMAP
007E1C
01C79C
0301DC
0701CC
0E00E8
1E00F8
1C00F0
3800E0
7800E0
7801E0
7001E0
F001E0
F001C0
F003C0
E003C0
E00380
E00700
E00F00
E00E00
701C00
703800
3CE000
0F8000
ENDCHAR
STARTCHAR ohorn
ENCODING 417
SWIDTH 500 0
DWIDTH 17 0
BBX 19 15 1 0
BITMAP
01F0E0
039CE0
0E0CE0
1C0E60
180E40
380EC0
700F80
701F00
E01C00
E03800
E03000
E07000
60E000
738000
1F0000
ENDCHAR
STARTCHAR Uhorn
ENCODING 431
SWIDTH 722 0
DWIDTH 24 0
BBX 26 23 3 0
BITMAP
7FC0FFC0
1F0039C0
0E0019C0
0E0010C0
1E003080
1C003180
1C002300
3C002600
38006000
38004000
38004000
7800C000
7000C000
70008000
F0018000
F0018000
E0010000
E0030000
E0030000
70060000
781C0000
3FF80000
0FE00000
ENDCHAR
STARTCHAR uhorn
ENCODING 432
SWIDTH 500 0
DWIDTH 17 0
BBX 19 15 1 0
BITMAP
1C1CE0
FC1CE0
1C1CE0
381C60
383840
3838C0
383980
383B00
703800
707000
707000
70F000
71B200
7F3C00
3C1800
ENDCHAR
STARTCHAR uni01B5
ENCODING 437
SWIDTH 556 0
DWIDTH 19 0
BBX 20 23 0 0
BITMAP
07FFF0
0FFFF0
0C01E0
0803C0
080780
000780
000F00
001E00
003C00
003C00
0FFF80
0FFF80
01E000
01E000
03C000
078000
0F0000
0F0000
1E0040
3C0040
7800C0
FFFFC0
FFFF80
ENDCHAR
STARTCHAR uni01B6
ENCODING 438
SWIDTH 389 0
DWIDTH 13 0
BBX 14 15 -1 0
BITMAP
0FFC
1FFC
1838
3070
00E0
00C0
7FFC
7FFC
0600
0E00
1C00
3830
7060
FFE0
FFC0
ENDCHAR
STARTCHAR uni01BB
ENCODING 443
SWIDTH 500 0
DWIDTH 16 0
BBX 16 23 -1 0
BITMAP
00F0
03FC
07FE
0C1E
180F
1007
0007
0007
000F
000E
FFFF
FFFF
0038
0070
00E0
01C0
0380
0600
0C02
1806
300C
7FFC
FFF8
ENDCHAR
STARTCHAR uni01BC
ENCODING 444
SWIDTH 500 0
DWIDTH 16 0
BBX 16 23 0 0
BITMAP
07FF
07FE
07FC
0C00
0C00
1800
1800
1F00
3FE0
3FF0
01F0
0078
003C
001C
001C
001C
001C
0018
C018
E030
F060
7FC0
1E00
ENDCHAR
STARTCHAR uni01C0
ENCODING 448
SWIDTH 275 0
DWIDTH 9 0
BBX 9 29 0 -6
BITMAP
0180
0180
0100
0100
0300
0200
0200
0600
0600
0400
0400
0C00
0800
0800
1800
1800
1000
1000
3000
2000
2000
6000
6000
4000
4000
C000
8000
8000
8000
ENDCHAR
STARTCHAR uni01C2
ENCODING 450
SWIDTH 675 0
DWIDTH 23 0
BBX 17 29 3 -6
BITMAP
001800
001800
001000
001000
003000
002000
002000
006000
006000
004000
FFFF80
FFFF80
008000
008000
018000
018000
010000
FFFF80
FFFF80
020000
020000
060000
060000
040000
040000
0C0000
080000
080000
080000
ENDCHAR
STARTCHAR uni01C3
ENCODING 451
SWIDTH 333 0
DWIDTH 11 0
BBX 8 23 2 0
BITMAP
03
07
07
07
07
0E
0E
0E
0C
0C
18
18
18
10
30
30
20
00
00
00
E0
E0
E0
ENDCHAR
STARTCHAR uni01CD
ENCODING 461
SWIDTH 611 0
DWIDTH 20 0
BBX 20 30 -2 0
BITMAP
00C0C0
00E180
006300
007600
003C00
003800
000000
000200
000600
000600
000E00
001F00
001700
003700
002700
006700
004700
00C780
018380
010380
030380
03FF80
060380
0C03C0
0C03C0
1801C0
1801C0
3001C0
7003E0
FC0FF0
ENDCHAR
STARTCHAR uni01CE
ENCODING 462
SWIDTH 500 0
DWIDTH 16 0
BBX 15 22 1 0
BITMAP
0606
070C
0318
03B0
01E0
01C0
0000
01EC
03BC
0E1C
1C1C
181C
3818
7018
7038
E038
E030
E070
E0F2
61B4
733C
1E18
ENDCHAR
STARTCHAR uni01CF
ENCODING 463
SWIDTH 333 0
DWIDTH 11 0
BBX 14 30 -1 0
BITMAP
0C0C
0E18
0630
0760
03C0
0380
0000
07F8
01E0
01C0
01C0
03C0
0380
0380
0780
0780
0700
0700
0F00
0F00
0E00
0E00
1E00
1C00
1C00
1C00
3C00
3800
7800
FE00
ENDCHAR
STARTCHAR uni01D0
ENCODING 464
SWIDTH 278 0
DWIDTH 9 0
BBX 10 22 2 0
BITMAP
C0C0
E180
6300
7600
3C00
3800
0000
0C00
7C00
1C00
1800
3800
3800
3000
7000
7000
7000
6000
E400
E800
F800
7000
ENDCHAR
STARTCHAR uni01D1
ENCODING 465
SWIDTH 722 0
DWIDTH 24 0
BBX 19 30 3 0
BITMAP
018180
01C300
00C600
00EC00
007800
007000
000000
007E00
01C780
0301C0
0701C0
0E00E0
1E00E0
1C00E0
3800E0
7800E0
7801E0
7001E0
F001E0
F001C0
F003C0
E003C0
E00380
E00700
E00F00
E00E00
701C00
703800
3CE000
0F8000
ENDCHAR
STARTCHAR uni01D2
ENCODING 466
SWIDTH 500 0
DWIDTH 17 0
BBX 15 22 1 0
BITMAP
0C0C
0E18
0630
0760
03C0
0380
0000
01F0
039C
0E0C
1C0E
180E
380E
700E
701C
E01C
E038
E030
E070
60E0
7380
1F00
ENDCHAR
STARTCHAR uni01D3
ENCODING 467
SWIDTH 722 0
DWIDTH 24 0
BBX 23 30 3 0
BITMAP
018180
01C300
00C600
00EC00
007800
007000
000000
7FC0FE
1F0038
0E0018
0E0010
1E0030
1C0030
1C0020
3C0020
380060
380040
380040
7800C0
7000C0
700080
F00180
F00180
E00100
E00300
E00300
700600
781C00
3FF800
0FE000
ENDCHAR
STARTCHAR uni01D4
ENCODING 468
SWIDTH 500 0
DWIDTH 17 0
BBX 15 22 1 0
BITMAP
1818
1C30
0C60
0EC0
0780
0700
0000
1C1C
FC1C
1C1C
381C
3838
3838
3838
3838
7038
7070
7070
70F0
71B2
7F3C
3C18
ENDCHAR
STARTCHAR uni01D5
ENCODING 469
SWIDTH 722 0
DWIDTH 24 0
BBX 23 31 3 0
BITMAP
007F80
00FF00
000000
00E380
00E380
00E380
000000
000000
7FC0FE
1F0038
0E0018
0E0010
1E0030
1C0030
1C0020
3C0020
380060
380040
380040
7800C0
7000C0
700080
F00180
F00180
E00100
E00300
E00300
700600
781C00
3FF800
0FE000
ENDCHAR
STARTCHAR uni01D6
ENCODING 470
SWIDTH 500 0
DWIDTH 17 0
BBX 15 24 1 0
BITMAP
03FC
07F8
0000
071C
071C
071C
0000
0000
0000
1C1C
FC1C
1C1C
381C
3838
3838
3838
3838
7030
7070
7070
70F0
71B2
7F3C
3C18
ENDCHAR
STARTCHAR uni01D7
ENCODING 471
SWIDTH 722 0
DWIDTH 24 0
BBX 23 35 3 0
BITMAP
000300
000700
000E00
001C00
003000
002000
000000
00E380
00E380
00E380
000000
000000
7FC0FE
1F0038
0E0018
0E0010
1E0030
1C0030
1C0020
3C0020
380060
380040
380040
7800C0
7000C0
700080
F00180
F00180
E00100
E00300
E00300
700600
781C00
3FF800
0FE000
ENDCHAR
STARTCHAR uni01D8
ENCODING 472
SWIDTH 500 0
DWIDTH 17 0
BBX 15 28 1 0
BITMAP
0018
0038
0070
00E0
0180
0100
0000
071C
071C
071C
0000
0000
0000
1C1C
FC1C
1C1C
381C
3838
3838
3838
3838
7030
7070
7070
70F0
71B2
7F3C
3C18
ENDCHAR
STARTCHAR uni01D9
ENCODING 473
SWIDTH 722 0
DWIDTH 24 0
BBX 23 35 3 0
BITMAP
018180
01C300
00C600
00EC00
007800
007000
000000
00E380
00E380
00E380
000000
000000
7FC0FE
1F0038
0E0018
0E0010
1E0030
1C0030
1C0020
3C0020
380060
380040
380040
7800C0
7000C0
700080
F00180
F00180
E00100
E00300
E00300
700600
781C00
3FF800
0FE000
ENDCHAR
STARTCHAR uni01DA
ENCODING 474
SWIDTH 500 0
DWIDTH 17 0
BBX 15 28 1 0
BITMAP
0606
070C
0318
03B0
01E0
01C0
0000
071C
071C
071C
0000
0000
0000
1C1C
FC1C
1C1C
381C
3838
3838
3838
3838
7030
7070
7070
70F0
71B2
7F3C
3C18
ENDCHAR
STARTCHAR uni01DB
ENCODING 475
SWIDTH 722 0
DWIDTH 24 0
BBX 23 35 3 0
BITMAP
018000
01C000
00E000
007000
001800
000800
000000
00E380
00E380
00E380
000000
000000
7FC0FE
1F0038
0E0018
0E0010
1E0030
1C0030
1C0020
3C0020
380060
380040
380040
7800C0
7000C0
700080
F00180
F00180
E00100
E00300
E00300
700600
781C00
3FF800
0FE000
ENDCHAR
STARTCHAR uni01DC
ENCODING 476
SWIDTH 500 0
DWIDTH 17 0
BBX 15 28 1 0
BITMAP
0C00
0E00
0700
0380
00C0
0040
0000
071C
071C
071C
0000
0000
0000
1C1C
FC1C
1C1C
381C
3838
3838
3838
3838
7030
7070
7070
70F0
71B2
7F3C
3C18
ENDCHAR
STARTCHAR uni01DD
ENCODING 477
SWIDTH 444 0
DWIDTH 15 0
BBX 13 15 2 0
BITMAP
03E0
0E70
1838
2038
0038
0038
01F8
0770
1C70
3860
7060
E0C0
E180
7300
3C00
ENDCHAR
STARTCHAR uni01DE
ENCODING 478
SWIDTH 611 0
DWIDTH 20 0
BBX 20 30 -2 0
BITMAP
007F80
00FF00
000000
0071C0
0071C0
0071C0
000000
000200
000600
000600
000E00
001F00
001700
003700
002700
006700
004700
00C780
018380
010380
030380
03FF80
060380
0C03C0
0C03C0
1801C0
1801C0
3001C0
7003E0
FC0FF0
ENDCHAR
STARTCHAR uni01DF
ENCODING 479
SWIDTH 500 0
DWIDTH 16 0
BBX 15 24 0 0
BITMAP
03FC
07F8
0000
071C
071C
071C
0000
0000
0000
01EC
03BC
0E1C
1C1C
181C
3818
7018
7038
E038
E030
E070
E0F2
61B4
733C
1E18
ENDCHAR
STARTCHAR uni01E0
ENCODING 480
SWIDTH 611 0
DWIDTH 20 0
BBX 20 31 -2 0
BITMAP
007F80
00FF00
000000
001800
003C00
003C00
001800
000000
000200
000600
000600
000E00
001F00
001700
003700
002700
006700
004700
00C780
018380
010380
030380
03FF80
060380
0C03C0
0C03C0
1801C0
1801C0
3001C0
7003E0
FC0FF0
ENDCHAR
STARTCHAR uni01E1
ENCODING 481
SWIDTH 500 0
DWIDTH 16 0
BBX 15 23 1 0
BITMAP
03FC
07F8
0000
00C0
01E0
01E0
00C0
0000
01EC
03BC
0E1C
1C1C
181C
3818
7018
7038
E038
E030
E070
E0F2
61B4
733C
1E18
ENDCHAR
STARTCHAR uni01E2
ENCODING 482
SWIDTH 889 0
DWIDTH 29 0
BBX 32 26 -2 0
BITMAP
0000FF00
0001FE00
00000000
000FFFFF
0001FC07
0001B803
00033802
00037802
00067000
000C7000
000CF010
0018F030
0030E020
0030E060
0061FFE0
00C1E0E0
0181C040
01FFC040
0303C040
06038000
0E038004
0C038008
18078018
38078030
780F80F0
FE1FFFE0
ENDCHAR
STARTCHAR uni01E3
ENCODING 483
SWIDTH 667 0
DWIDTH 22 0
BBX 21 18 1 0
BITMAP
007F80
00FF00
000000
01EDE0
03FF70
0E3C38
1C3838
183070
3830E0
7031C0
707700
E07C00
E06000
E0E000
E0E020
61E0C0
737380
1E3E00
ENDCHAR
STARTCHAR uni01E4
ENCODING 484
SWIDTH 722 0
DWIDTH 24 0
BBX 26 23 2 0
BITMAP
003F8800
00FFF800
03C07000
07003000
0E003000
1C002000
3C002000
38000000
70000000
70000000
F0000000
E0000000
E00FFC00
E001F000
E000E000
E001E000
E001C000
F001C000
7007FFC0
7807FFC0
3C078000
1E0F8000
07FC0000
ENDCHAR
STARTCHAR uni01E5
ENCODING 485
SWIDTH 500 0
DWIDTH 16 0
BBX 16 22 0 -7
BITMAP
01F0
073F
0E1F
0C1C
1C1C
1C1C
1C38
0C38
0E70
07C0
0C00
1800
1F00
0FC0
3FE0
61F0
FFFF
FFFF
C030
6020
78E0
1F80
ENDCHAR
STARTCHAR Gcaron
ENCODING 486
SWIDTH 722 0
DWIDTH 24 0
BBX 22 30 2 0
BITMAP
00C0C0
00E180
006300
007600
003C00
003800
000000
003F88
00FFF8
03C070
070030
0E0030
1C0020
3C0020
380000
700000
700000
F00000
E00000
E00FFC
E001F0
E000E0
E001E0
E001C0
F001C0
7003C0
780380
3C0780
1E0F80
07FC00
ENDCHAR
STARTCHAR gcaron
ENCODING 487
SWIDTH 500 0
DWIDTH 16 0
BBX 16 29 0 -7
BITMAP
0606
070C
0318
03B0
01E0
01C0
0000
01F0
073F
0E1F
0C1C
1C1C
1C1C
1C38
0C38
0E70
07C0
0C00
1800
1F00
0FC0
3FE0
61F0
C070
C030
C030
6020
78E0
1F80
ENDCHAR
STARTCHAR uni01E8
ENCODING 488
SWIDTH 667 0
DWIDTH 22 0
BBX 23 30 0 0
BITMAP
00C0C0
00E180
006300
007600
003C00
003800
000000
07F9FE
01E078
01C060
01C0C0
03C180
038300
038600
078C00
079800
077000
07E000
0FF000
0F7800
0E3800
0E3C00
1E1C00
1C1E00
1C0F00
1C0780
3C0780
3C03C0
3803E0
FF07F8
ENDCHAR
STARTCHAR uni01E9
ENCODING 489
SWIDTH 444 0
DWIDTH 15 0
BBX 15 30 1 0
BITMAP
3030
3860
18C0
1D80
0F00
0E00
0000
0300
1F00
0700
0600
0E00
0E00
0C00
0C00
1C7E
1C18
1830
3860
38C0
3980
3B00
7F00
7F00
7380
73C0
61C4
E1E8
E0F8
E070
ENDCHAR
STARTCHAR uni01EA
ENCODING 490
SWIDTH 722 0
DWIDTH 24 0
BBX 19 28 3 -5
BITMAP
007E00
01C780
0301C0
0701C0
0E00E0
1E00E0
1C00E0
3800E0
7800E0
7801E0
7001E0
F001E0
F001C0
F003C0
E003C0
E00380
E00700
E00F00
E00E00
701C00
70B800
3DE000
0F8000
060000
060000
071000
03E000
01C000
ENDCHAR
STARTCHAR uni01EB
ENCODING 491
SWIDTH 500 0
DWIDTH 17 0
BBX 15 20 1 -5
BITMAP
01F0
039C
0E0C
1C0E
180E
380E
700E
701C
E01C
E038
E030
E070
62E0
7780
1F00
1800
1800
1C40
0F80
0700
ENDCHAR
STARTCHAR uni01EC
ENCODING 492
SWIDTH 722 0
DWIDTH 24 0
BBX 19 31 3 -5
BITMAP
00FF00
01FE00
000000
007E00
01C780
0301C0
0701C0
0E00E0
1E00E0
1C00E0
3800E0
7800E0
7801E0
7001E0
F001E0
F001C0
F003C0
E003C0
E00380
E00700
E00F00
E00E00
701C00
70B800
3DE000
0F8000
060000
060000
071000
03E000
01C000
ENDCHAR
STARTCHAR uni01ED
ENCODING 493
SWIDTH 500 0
DWIDTH 17 0
BBX 15 23 1 -5
BITMAP
07F8
0FF0
0000
01F0
039C
0E0C
1C0E
180E
380E
700E
701C
E01C
E038
E030
E070
62E0
7780
1F00
1800
1800
1C40
0F80
0700
ENDCHAR
STARTCHAR uni01F0
ENCODING 496
SWIDTH 278 0
DWIDTH 9 0
BBX 15 29 -4 -7
BITMAP
0606
070C
0318
03B0
01E0
01C0
0000
0038
00F8
0030
0030
0030
0070
0070
0060
0060
00E0
00E0
00C0
00C0
01C0
01C0
01C0
0180
0380
6300
E700
EE00
7800
ENDCHAR
STARTCHAR uni01F4
ENCODING 500
SWIDTH 722 0
DWIDTH 24 0
BBX 22 30 2 0
BITMAP
000180
000380
000700
000E00
001800
001000
000000
003F88
00FFF8
03C070
070030
0E0030
1C0020
3C0020
380000
700000
700000
F00000
E00000
E00FFC
E001F0
E000E0
E001E0
E001C0
F001C0
7003C0
780380
3C0780
1E0F80
07FC00
ENDCHAR
STARTCHAR uni01F5
ENCODING 501
SWIDTH 500 0
DWIDTH 16 0
BBX 16 29 0 -7
BITMAP
000C
001C
0038
0070
00C0
0080
0000
01F0
073F
0E1F
0C1C
1C1C
1C1C
1C38
0C38
0E70
07C0
0C00
1800
1F00
0FC0
3FE0
61F0
C070
C030
C030
6020
78E0
1F80
ENDCHAR
STARTCHAR uni01F8
ENCODING 504
SWIDTH 667 0
DWIDTH 22 0
BBX 25 30 -1 0
BITMAP
00600000
00700000
00380000
001C0000
00060000
00020000
00000000
07C03F80
01E00E00
01E00C00
01E00C00
01700C00
01700800
03780800
03381800
02381800
021C1000
061C1000
061E3000
040E3000
040E2000
0C072000
0C076000
08076000
0803E000
1803C000
1801C000
1801C000
3801C000
FE00C000
ENDCHAR
STARTCHAR uni01F9
ENCODING 505
SWIDTH 500 0
DWIDTH 16 0
BBX 15 22 1 0
BITMAP
0C00
0E00
0700
0380
00C0
0040
0000
0C78
7CFC
1D1C
1A1C
3C1C
381C
3838
3838
7038
7038
7070
6072
E074
E07C
E038
ENDCHAR
STARTCHAR Aringacute
ENCODING 506
SWIDTH 611 0
DWIDTH 20 0
BBX 20 37 -2 0
BITMAP
000180
000380
000700
000E00
001800
001000
000000
000F00
001980
001080
001080
001980
000F00
000000
000200
000600
000600
000E00
001F00
001700
003700
002700
006700
004700
00C780
018380
010380
030380
03FF80
060380
0C03C0
0C03C0
1801C0
1801C0
3001C0
7003E0
FC0FF0
ENDCHAR
STARTCHAR aringacute
ENCODING 507
SWIDTH 500 0
DWIDTH 16 0
BBX 15 30 0 0
BITMAP
000C
001C
0038
0070
00C0
0080
0000
00F0
0198
0108
0108
0198
00F0
0000
0000
01EC
03BC
0E1C
1C1C
181C
3818
7018
7038
E038
E030
E070
E0F2
61B4
733C
1E18
ENDCHAR
STARTCHAR AEacute
ENCODING 508
SWIDTH 889 0
DWIDTH 29 0
BBX 32 30 -2 0
BITMAP
00000300
00000700
00000E00
00001C00
00003000
00002000
00000000
000FFFFF
0001FC07
0001B803
00033802
00037802
00067000
000C7000
000CF010
0018F030
0030E020
0030E060
0061FFE0
00C1E0E0
0181C040
01FFC040
0303C040
06038000
0E038004
0C038008
18078018
38078030
780F80F0
FE1FFFE0
ENDCHAR
STARTCHAR aeacute
ENCODING 509
SWIDTH 667 0
DWIDTH 22 0
BBX 21 22 1 0
BITMAP
000300
000700
000E00
001C00
003000
002000
000000
01EDE0
03FF70
0E3C38
1C3838
183070
3830E0
7031C0
707700
E07C00
E06000
E0E000
E0E020
61E0C0
737380
1E3E00
ENDCHAR
STARTCHAR Oslashacute
ENCODING 510
SWIDTH 722 0
DWIDTH 23 0
BBX 20 35 2 -3
BITMAP
000180
000380
000700
000E00
001800
001000
000000
000020
000060
003F40
00E3C0
0181E0
0381E0
070370
0F0670
0E0470
1C0C70
3C1870
3C10F0
3830F0
7860F0
7840E0
78C1E0
7181E0
7101C0
730380
720780
760700
3C0E00
381C00
3E7000
27C000
600000
C00000
800000
ENDCHAR
STARTCHAR oslashacute
ENCODING 511
SWIDTH 500 0
DWIDTH 17 0
BBX 15 30 1 -4
BITMAP
000C
001C
0038
0070
00C0
0080
0000
0008
0008
0018
0010
01F0
03BC
0E6C
1CCE
18CE
398E
718E
731C
E31C
E638
E630
EC70
6CE0
7B80
1F00
1000
3000
2000
2000
ENDCHAR
STARTCHAR Scommaaccent
ENCODING 536
SWIDTH 500 0
DWIDTH 17 0
BBX 16 32 2 -9
BITMAP
03F1
071F
0E0E
0C06
1C06
1C04
1C04
1E00
0F00
0F80
07C0
03E0
01E0
00F0
0078
0078
8038
8038
8038
C070
C070
F1E0
BF80
0000
0380
0380
0380
0180
0100
0300
0600
0C00
ENDCHAR
STARTCHAR scommaaccent
ENCODING 537
SWIDTH 389 0
DWIDTH 13 0
BBX 12 24 1 -9
BITMAP
07D0
0E70
1C30
1C10
1C10
1E00
0E00
0700
0780
0380
81C0
81C0
C1C0
E380
BF00
0000
0E00
0E00
0E00
0600
0400
0C00
1800
3000
ENDCHAR
STARTCHAR Tcommaaccent
ENCODING 538
SWIDTH 556 0
DWIDTH 18 0
BBX 18 32 3 -9
BITMAP
FFFFC0
E1E1C0
C1E0C0
81E0C0
81C080
01C000
03C000
03C000
038000
038000
078000
078000
070000
070000
0F0000
0F0000
0E0000
0E0000
1E0000
1E0000
1E0000
3E0000
FF8000
000000
070000
070000
070000
030000
020000
060000
0C0000
180000
ENDCHAR
STARTCHAR tcommaaccent
ENCODING 539
SWIDTH 278 0
DWIDTH 9 0
BBX 8 28 2 -9
BITMAP
04
04
0C
1C
7F
1C
18
38
38
38
30
70
70
60
60
E4
E8
F8
70
00
38
38
38
18
10
30
60
C0
ENDCHAR
STARTCHAR uni021E
ENCODING 542
SWIDTH 722 0
DWIDTH 24 0
BBX 26 30 0 0
BITMAP
00303000
00386000
0018C000
001D8000
000F0000
000E0000
00000000
03FC3FC0
00E00E00
00E00E00
01E01E00
01C01C00
01C01C00
03C03C00
03803800
03803800
03803800
07807800
07FFF000
07007000
0F00F000
0F00F000
0E00E000
0E00E000
0E00E000
1E01E000
1C01C000
1C01C000
3C03C000
FF0FF000
ENDCHAR
STARTCHAR uni021F
ENCODING 543
SWIDTH 500 0
DWIDTH 16 0
BBX 15 30 1 0
BITMAP
3030
3860
18C0
1D80
0F00
0E00
0000
0300
1F00
0700
0700
0700
0E00
0E00
0E00
0E78
1CFC
1D9C
1A1C
3C1C
381C
381C
3838
7038
7038
7038
7072
E074
E07C
E038
ENDCHAR
STARTCHAR uni0226
ENCODING 550
SWIDTH 611 0
DWIDTH 20 0
BBX 20 28 -2 0
BITMAP
001800
003C00
003C00
001800
000000
000200
000600
000600
000E00
001F00
001700
003700
002700
006700
004700
00C780
018380
010380
030380
03FF80
060380
0C03C0
0C03C0
1801C0
1801C0
3001C0
7003E0
FC0FF0
ENDCHAR
STARTCHAR uni0227
ENCODING 551
SWIDTH 500 0
DWIDTH 16 0
BBX 15 20 1 0
BITMAP
00C0
01E0
01E0
00C0
0000
01EC
03BC
0E1C
1C1C
181C
3818
7018
7038
E038
E030
E070
E0F2
61B4
733C
1E18
ENDCHAR
STARTCHAR uni0228
ENCODING 552
SWIDTH 611 0
DWIDTH 20 0
BBX 22 30 -1 -7
BITMAP
03FFFC
00F01C
00E00C
00E008
01E008
01C000
01C000
03C040
03C0C0
038080
038180
07FF80
078380
070100
070100
0F0100
0E0000
0E0000
0E0020
1E0060
1E0060
3C01C0
FFFFC0
006000
00C000
01F000
003800
001800
023800
01F000
ENDCHAR
STARTCHAR uni0229
ENCODING 553
SWIDTH 444 0
DWIDTH 15 0
BBX 13 22 2 -7
BITMAP
01E0
0670
0C38
1838
3070
30E0
71C0
7700
FC00
E000
E000
E020
E0C0
7380
3E00
0600
0C00
1F00
0380
0180
2380
1F00
ENDCHAR
STARTCHAR uni022A
ENCODING 554
SWIDTH 722 0
DWIDTH 24 0
BBX 19 31 3 0
BITMAP
007F80
00FF00
000000
0071C0
0071C0
0071C0
000000
000000
007E00
01C780
0301C0
0701C0
0E00E0
1E00E0
1C00E0
3800E0
7800E0
7801E0
7001E0
F001E0
F001C0
F003C0
E003C0
E00380
E00700
E00F00
E00E00
701C00
703800
3CE000
0F8000
ENDCHAR
STARTCHAR uni022B
ENCODING 555
SWIDTH 500 0
DWIDTH 17 0
BBX 16 24 1 0
BITMAP
01FE
03FC
0000
01C7
01C7
01C7
0000
0000
0000
01F0
039C
0E0C
1C0E
180E
380E
700E
701C
E01C
E038
E030
E070
60E0
7380
1F00
ENDCHAR
STARTCHAR uni022C
ENCODING 556
SWIDTH 722 0
DWIDTH 24 0
BBX 19 31 3 0
BITMAP
00FF00
01FE00
000000
001CC0
007F80
00CE00
000000
000000
007E00
01C780
0301C0
0701C0
0E00E0
1E00E0
1C00E0
3800E0
7800E0
7801E0
7001E0
F001E0
F001C0
F003C0
E003C0
E00380
E00700
E00F00
E00E00
701C00
703800
3CE000
0F8000
ENDCHAR
STARTCHAR uni022D
ENCODING 557
SWIDTH 500 0
DWIDTH 17 0
BBX 16 24 1 0
BITMAP
01FE
03FC
0000
0073
01FE
0338
0000
0000
0000
01F0
039C
0E0C
1C0E
180E
380E
700E
701C
E01C
E038
E030
E070
60E0
7380
1F00
ENDCHAR
STARTCHAR uni022E
ENCODING 558
SWIDTH 722 0
DWIDTH 24 0
BBX 19 28 3 0
BITMAP
003000
007800
007800
003000
000000
007E00
01C780
0301C0
0701C0
0E00E0
1E00E0
1C00E0
3800E0
7800E0
7801E0
7001E0
F001E0
F001C0
F003C0
E003C0
E00380
E00700
E00F00
E00E00
701C00
703800
3CE000
0F8000
ENDCHAR
STARTCHAR uni022F
ENCODING 559
SWIDTH 500 0
DWIDTH 17 0
BBX 15 20 1 0
BITMAP
00C0
01E0
01E0
00C0
0000
01F0
039C
0E0C
1C0E
180E
380E
700E
701C
E01C
E038
E030
E070
60E0
7380
1F00
ENDCHAR
STARTCHAR uni0230
ENCODING 560
SWIDTH 722 0
DWIDTH 24 0
BBX 19 31 3 0
BITMAP
00FF00
01FE00
000000
003000
007800
007800
003000
000000
007E00
01C780
0301C0
0701C0
0E00E0
1E00E0
1C00E0
3800E0
7800E0
7801E0
7001E0
F001E0
F001C0
F003C0
E003C0
E00380
E00700
E00F00
E00E00
701C00
703800
3CE000
0F8000
ENDCHAR
STARTCHAR uni0231
ENCODING 561
SWIDTH 500 0
DWIDTH 17 0
BBX 15 23 1 0
BITMAP
07F8
0FF0
0000
00C0
01E0
01E0
00C0
0000
01F0
039C
0E0C
1C0E
180E
380E
700E
701C
E01C
E038
E030
E070
60E0
7380
1F00
ENDCHAR
STARTCHAR uni0232
ENCODING 562
SWIDTH 556 0
DWIDTH 19 0
BBX 20 26 1 0
BITMAP
03FC00
07F800
000000
7F87F0
1E01C0
1E0300
1E0300
0E0600
0E0C00
0F1800
0F1800
073000
076000
07E000
03C000
03C000
038000
038000
078000
070000
070000
070000
0E0000
0E0000
1E0000
FFC000
ENDCHAR
STARTCHAR uni0233
ENCODING 563
SWIDTH 444 0
DWIDTH 15 0
BBX 16 25 -1 -7
BITMAP
03FC
07F8
0000
0707
3F07
0F03
0303
0383
0386
0386
018C
019C
0198
01B8
01F0
01E0
01E0
01C0
0180
0180
0300
0600
6E00
FC00
7000
ENDCHAR
STARTCHAR uni0250
ENCODING 592
SWIDTH 500 0
DWIDTH 16 0
BBX 15 15 1 0
BITMAP
30F0
799C
5B0C
9E0E
1C0E
180E
380E
381C
301C
3038
7030
7070
70E0
7B80
6F00
ENDCHAR
STARTCHAR uni0259
ENCODING 601
SWIDTH 444 0
DWIDTH 15 0
BBX 13 15 2 0
BITMAP
03E0
0E70
1838
2038
0038
0038
01F8
0770
1C70
3860
7060
E0C0
E180
7300
3C00
ENDCHAR
STARTCHAR uni025F
ENCODING 607
SWIDTH 278 0
DWIDTH 9 0
BBX 19 30 -4 -15
BITMAP
0003C0
0006E0
000EE0
000CC0
001C00
001800
001800
003800
003800
003000
003000
007000
007000
007000
006000
00E000
00E000
00E000
00C000
00C000
01C000
1FF800
018000
018000
038000
030000
670000
E60000
EC0000
780000
ENDCHAR
STARTCHAR uni0265
ENCODING 613
SWIDTH 500 0
DWIDTH 16 0
BBX 15 23 1 -8
BITMAP
380E
7C0E
5C0E
9C1C
381C
381C
381C
3838
7038
7038
7078
70B0
7370
7E70
3CE0
00E0
00E0
00E0
01C0
01C0
01C0
01F0
0180
ENDCHAR
STARTCHAR uni0275
ENCODING 629
SWIDTH 500 0
DWIDTH 17 0
BBX 15 15 1 0
BITMAP
01F0
039C
0E0C
1C0E
180E
380E
FFFE
FFFE
E01C
E038
E030
E070
60E0
7380
1F00
ENDCHAR
STARTCHAR uni0279
ENCODING 633
SWIDTH 389 0
DWIDTH 13 0
BBX 12 15 2 0
BITMAP
0070
0070
0060
00E0
00E0
00E0
00C0
01C0
01C0
03C0
0780
CD80
F980
F3E0
6300
ENDCHAR
STARTCHAR uni0287
ENCODING 647
SWIDTH 278 0
DWIDTH 9 0
BBX 8 19 2 0
BITMAP
0E
1F
17
27
06
06
0E
0E
0C
1C
1C
1C
18
38
FE
38
30
20
20
ENDCHAR
STARTCHAR uni0289
ENCODING 649
SWIDTH 500 0
DWIDTH 17 0
BBX 15 15 1 0
BITMAP
1C1C
FC1C
1C1C
381C
3838
3838
FFFE
FFFE
7038
7070
7070
70F0
71B2
7F3C
3C18
ENDCHAR
STARTCHAR uni028C
ENCODING 652
SWIDTH 444 0
DWIDTH 15 0
BBX 14 15 0 0
BITMAP
0180
0380
0780
0F80
1D80
1980
3980
3180
61C0
61C0
C1C0
C0C0
E0F0
F0FC
70E0
ENDCHAR
STARTCHAR uni028D
ENCODING 653
SWIDTH 667 0
DWIDTH 22 0
BBX 21 15 0 0
BITMAP
018080
038180
078180
0F8380
0D8780
198580
398D80
319980
619980
61B180
E1E1C0
C1E1C0
E1C1E0
F1C1F8
7180C0
ENDCHAR
STARTCHAR uni028E
ENCODING 654
SWIDTH 444 0
DWIDTH 15 0
BBX 16 22 -1 0
BITMAP
000E
003F
0076
0060
00C0
0180
0180
0380
0780
0780
0F80
1D80
1980
3980
3180
61C0
61C0
C1C0
C0C0
C0F0
E0FC
E0E0
ENDCHAR
STARTCHAR uni029E
ENCODING 670
SWIDTH 444 0
DWIDTH 15 0
BBX 15 23 1 -8
BITMAP
1C0E
3E0E
2F0E
470C
079C
039C
01FC
01FC
01B8
0338
0638
0C38
1830
3070
FC70
0060
0060
00E0
00E0
00C0
01C0
01F0
0180
ENDCHAR
STARTCHAR uni02BB
ENCODING 699
SWIDTH 333 0
DWIDTH 11 0
BBX 5 8 5 15
BITMAP
18
30
60
40
C0
E0
E0
E0
ENDCHAR
STARTCHAR afii57929
ENCODING 700
SWIDTH 333 0
DWIDTH 11 0
BBX 5 8 1 15
BITMAP
38
38
38
18
10
30
60
C0
ENDCHAR
STARTCHAR afii64937
ENCODING 701
SWIDTH 333 0
DWIDTH 11 0
BBX 5 8 1 15
BITMAP
E0
E0
E0
C0
40
60
30
18
ENDCHAR
STARTCHAR circumflex
ENCODING 710
SWIDTH 333 0
DWIDTH 11 0
BBX 10 6 2 17
BITMAP
0700
0F00
1B80
3180
61C0
C0C0
ENDCHAR
STARTCHAR caron
ENCODING 711
SWIDTH 333 0
DWIDTH 11 0
BBX 10 6 5 16
BITMAP
C0C0
E180
6300
7600
3C00
3800
ENDCHAR
STARTCHAR uni02C8
ENCODING 712
SWIDTH 214 0
DWIDTH 7 0
BBX 4 8 4 15
BITMAP
20
70
70
E0
E0
C0
C0
80
ENDCHAR
STARTCHAR macron
ENCODING 713
SWIDTH 333 0
DWIDTH 11 0
BBX 9 2 4 18
BITMAP
7F80
FF00
ENDCHAR
STARTCHAR uni02CA
ENCODING 714
SWIDTH 333 0
DWIDTH 11 0
BBX 6 6 7 17
BITMAP
0C
1C
38
70
C0
80
ENDCHAR
STARTCHAR uni02CB
ENCODING 715
SWIDTH 333 0
DWIDTH 11 0
BBX 6 6 5 17
BITMAP
C0
E0
70
38
0C
04
ENDCHAR
STARTCHAR uni02CD
ENCODING 717
SWIDTH 333 0
DWIDTH 11 0
BBX 9 2 4 -3
BITMAP
7F80
FF00
ENDCHAR
STARTCHAR uni02CE
ENCODING 718
SWIDTH 333 0
DWIDTH 11 0
BBX 6 6 5 -7
BITMAP
C0
E0
70
38
0C
04
ENDCHAR
STARTCHAR uni02CF
ENCODING 719
SWIDTH 333 0
DWIDTH 11 0
BBX 6 6 7 -7
BITMAP
0C
1C
38
70
C0
80
ENDCHAR
STARTCHAR breve
ENCODING 728
SWIDTH 333 0
DWIDTH 11 0
BBX 8 4 3 17
BITMAP
81
C3
7E
3C
ENDCHAR
STARTCHAR dotaccent
ENCODING 729
SWIDTH 333 0
DWIDTH 11 0
BBX 4 4 4 17
BITMAP
60
F0
F0
60
ENDCHAR
STARTCHAR ring
ENCODING 730
SWIDTH 333 0
DWIDTH 11 0
BBX 6 6 8 17
BITMAP
78
CC
84
84
CC
78
ENDCHAR
STARTCHAR ogonek
ENCODING 731
SWIDTH 333 0
DWIDTH 11 0
BBX 7 8 -1 -5
BITMAP
10
20
60
C0
C0
E2
7C
38
ENDCHAR
STARTCHAR tilde
ENCODING 732
SWIDTH 333 0
DWIDTH 11 0
BBX 10 3 3 18
BITMAP
1CC0
7F80
CE00
ENDCHAR
STARTCHAR hungarumlaut
ENCODING 733
SWIDTH 333 0
DWIDTH 11 0
BBX 10 8 2 17
BITMAP
18C0
39C0
3180
7380
6300
6300
C600
C600
ENDCHAR
STARTCHAR uni02EE
ENCODING 750
SWIDTH 556 0
DWIDTH 19 0
BBX 12 8 1 15
BITMAP
3870
3870
3870
1830
1020
3060
60C0
C180
ENDCHAR
STARTCHAR uni037E
ENCODING 894
SWIDTH 333 0
DWIDTH 11 0
BBX 8 20 1 -5
BITMAP
07
07
07
00
00
00
00
00
00
00
00
00
38
38
38
18
10
30
60
C0
ENDCHAR
STARTCHAR tonos
ENCODING 900
SWIDTH 333 0
DWIDTH 11 0
BBX 6 6 7 17
BITMAP
0C
1C
38
70
C0
80
ENDCHAR
STARTCHAR dieresistonos
ENCODING 901
SWIDTH 333 0
DWIDTH 11 0
BBX 9 10 4 18
BITMAP
0180
0380
0700
0E00
1800
1000
0000
E380
E380
E380
ENDCHAR
STARTCHAR anoteleia
ENCODING 903
SWIDTH 250 0
DWIDTH 8 0
BBX 4 4 2 6
BITMAP
F0
F0
F0
F0
ENDCHAR
STARTCHAR mu
ENCODING 956
SWIDTH 500 0
DWIDTH 16 0
BBX 18 21 -1 -6
BITMAP
070700
3F0700
0F0700
0E0700
0E0E00
0E0E00
0E0E00
0E0E00
1C0C00
1C1C00
1C1C00
1C3E40
1CEE80
1FCF80
3F0700
200000
600000
600000
E00000
E00000
C00000
ENDCHAR
STARTCHAR uni1E00
ENCODING 7680
SWIDTH 611 0
DWIDTH 20 0
BBX 20 30 -2 -7
BITMAP
000200
000600
000600
000E00
001F00
001700
003700
002700
006700
004700
00C780
018380
010380
030380
03FF80
060380
0C03C0
0C03C0
1801C0
1801C0
3001C0
7003E0
FC0FF0
000000
007800
00CC00
008400
008400
00CC00
007800
ENDCHAR
STARTCHAR uni1E01
ENCODING 7681
SWIDTH 500 0
DWIDTH 16 0
BBX 15 22 1 -7
BITMAP
01EC
03BC
0E1C
1C1C
181C
3818
7018
7038
E038
E030
E070
E0F2
61B4
733C
1E18
0000
03C0
0660
0420
0420
0660
03C0
ENDCHAR
STARTCHAR uni1E02
ENCODING 7682
SWIDTH 611 0
DWIDTH 20 0
BBX 19 28 0 0
BITMAP
003000
007800
007800
003000
000000
07FF00
01C3C0
01C1C0
01C0E0
03C0E0
0380E0
0380E0
0380E0
0781C0
070380
070F00
0FFC00
0F1F00
0E0780
0E0380
1E03C0
1E03C0
1C03C0
1C0380
3C0780
3C0F00
7C3C00
FFF000
ENDCHAR
STARTCHAR uni1E03
ENCODING 7683
SWIDTH 500 0
DWIDTH 16 0
BBX 15 28 1 0
BITMAP
0600
0F00
0F00
0600
0000
0300
1F00
0700
0600
0600
0E00
0E00
0C00
1C78
19FC
1F1E
1E0E
3C0E
380E
380E
300C
701C
7018
6038
E070
E0E0
F380
7F00
ENDCHAR
STARTCHAR uni1E04
ENCODING 7684
SWIDTH 611 0
DWIDTH 20 0
BBX 19 28 0 -5
BITMAP
07FF00
01C3C0
01C1C0
01C0E0
03C0E0
0380E0
0380E0
0380E0
0781C0
070380
070F00
0FFC00
0F1F00
0E0780
0E0380
1E03C0
1E03C0
1C03C0
1C0380
3C0780
3C0F00
7C3C00
FFF000
000000
00C000
01E000
01E000
00C000
ENDCHAR
STARTCHAR uni1E05
ENCODING 7685
SWIDTH 500 0
DWIDTH 16 0
BBX 15 28 1 -5
BITMAP
0300
1F00
0700
0600
0600
0E00
0E00
0C00
1C78
19FC
1F1E
1E0E
3C0E
380E
380E
300C
701C
7018
6038
E070
E0E0
F380
7F00
0000
0600
0F00
0F00
0600
ENDCHAR
STARTCHAR uni1E06
ENCODING 7686
SWIDTH 611 0
DWIDTH 20 0
BBX 19 26 0 -3
BITMAP
07FF00
01C3C0
01C1C0
01C0E0
03C0E0
0380E0
0380E0
0380E0
0781C0
070380
070F00
0FFC00
0F1F00
0E0780
0E0380
1E03C0
1E03C0
1C03C0
1C0380
3C0780
3C0F00
7C3C00
FFF000
000000
07F800
0FF000
ENDCHAR
STARTCHAR uni1E07
ENCODING 7687
SWIDTH 500 0
DWIDTH 16 0
BBX 15 26 1 -3
BITMAP
0300
1F00
0700
0600
0600
0E00
0E00
0C00
1C78
19FC
1F1E
1E0E
3C0E
380E
380E
300C
701C
7018
6038
E070
E0E0
F380
7F00
0000
3FC0
7F80
ENDCHAR
STARTCHAR uni1E08
ENCODING 7688
SWIDTH 667 0
DWIDTH 22 0
BBX 22 37 1 -7
BITMAP
000300
000700
000E00
001C00
003000
002000
000000
003FC4
00FFFC
03C03C
070018
0E0018
1C0018
3C0010
380000
700000
700000
F00000
E00000
E00000
E00000
E00000
E00000
E00000
F00040
700180
780300
3C0E00
1FFC00
07F000
030000
060000
0F8000
01C000
00C000
11C000
0F8000
ENDCHAR
STARTCHAR uni1E09
ENCODING 7689
SWIDTH 444 0
DWIDTH 15 0
BBX 13 29 2 -7
BITMAP
0030
0070
00E0
01C0
0300
0200
0000
01E0
0630
0C38
1838
3010
3000
7000
6000
E000
E000
E000
E020
E0C0
7380
3E00
0C00
1800
3E00
0700
0300
4700
3C00
ENDCHAR
STARTCHAR uni1E0A
ENCODING 7690
SWIDTH 722 0
DWIDTH 24 0
BBX 25 28 -1 0
BITMAP
00060000
000F0000
000F0000
00060000
00000000
03FFC000
00E0F800
00E03E00
00E00E00
01E00F00
01E00700
01C00780
01C00780
03C00380
03800780
03800380
07800780
07800780
07000700
07000700
0F000E00
0E001E00
0E001C00
1E003800
1C00F000
1C03C000
3FFF0000
FFF80000
ENDCHAR
STARTCHAR uni1E0B
ENCODING 7691
SWIDTH 500 0
DWIDTH 16 0
BBX 16 28 1 0
BITMAP
0018
003C
003C
0018
0000
0003
001F
0007
0007
0006
0006
0006
000E
01EC
033C
0E1C
1C1C
181C
3818
7018
7038
E038
E030
E070
E0F2
61B4
733C
1E18
ENDCHAR
STARTCHAR uni1E0C
ENCODING 7692
SWIDTH 722 0
DWIDTH 24 0
BBX 25 28 -1 -5
BITMAP
03FFC000
00E0F800
00E03E00
00E00E00
01E00F00
01E00700
01C00780
01C00780
03C00380
03800780
03800380
07800780
07800780
07000700
07000700
0F000E00
0E001E00
0E001C00
1E003800
1C00F000
1C03C000
3FFF0000
FFF80000
00000000
00300000
00780000
00780000
00300000
ENDCHAR
STARTCHAR uni1E0D
ENCODING 7693
SWIDTH 500 0
DWIDTH 16 0
BBX 16 28 1 -5
BITMAP
0003
001F
0007
0007
0006
0006
0006
000E
01EC
033C
0E1C
1C1C
181C
3818
7018
7038
E038
E030
E070
E0F2
61B4
733C
1E18
0000
0300
0780
0780
0300
ENDCHAR
STARTCHAR uni1E0E
ENCODING 7694
SWIDTH 722 0
DWIDTH 24 0
BBX 25 26 -1 -3
BITMAP
03FFC000
00E0F800
00E03E00
00E00E00
01E00F00
01E00700
01C00780
01C00780
03C00380
03800780
03800380
07800780
07800780
07000700
07000700
0F000E00
0E001E00
0E001C00
1E003800
1C00F000
1C03C000
3FFF0000
FFF80000
00000000
01FE0000
03FC0000
ENDCHAR
STARTCHAR uni1E0F
ENCODING 7695
SWIDTH 500 0
DWIDTH 16 0
BBX 16 26 1 -3
BITMAP
0003
001F
0007
0007
0006
0006
0006
000E
01EC
033C
0E1C
1C1C
181C
3818
7018
7038
E038
E030
E070
E0F2
61B4
733C
1E18
0000
0FF0
1FE0
ENDCHAR
STARTCHAR uni1E10
ENCODING 7696
SWIDTH 722 0
DWIDTH 24 0
BBX 25 30 -1 -7
BITMAP
03FFC000
00E0F800
00E03E00
00E00E00
01E00F00
01E00700
01C00780
01C00780
03C00380
03800780
03800380
07800780
07800780
07000700
07000700
0F000E00
0E001E00
0E001C00
1E003800
1C00F000
1C03C000
3FFF0000
FFF80000
00300000
00600000
00F80000
001C0000
000C0000
011C0000
00F80000
ENDCHAR
STARTCHAR uni1E11
ENCODING 7697
SWIDTH 500 0
DWIDTH 16 0
BBX 16 30 1 -7
BITMAP
0003
001F
0007
0007
0006
0006
0006
000E
01EC
033C
0E1C
1C1C
181C
3818
7018
7038
E038
E030
E070
E0F2
61B4
733C
1E98
0180
0300
07C0
00E0
0060
08E0
07C0
ENDCHAR
STARTCHAR uni1E12
ENCODING 7698
SWIDTH 722 0
DWIDTH 24 0
BBX 25 30 -1 -7
BITMAP
03FFC000
00E0F800
00E03E00
00E00E00
01E00F00
01E00700
01C00780
01C00780
03C00380
03800780
03800380
07800780
07800780
07000700
07000700
0F000E00
0E001E00
0E001C00
1E003800
1C00F000
1C03C000
3FFF0000
FFF80000
00000000
00380000
00780000
00DC0000
018C0000
030E0000
06060000
ENDCHAR
STARTCHAR uni1E13
ENCODING 7699
SWIDTH 500 0
DWIDTH 16 0
BBX 16 30 1 -7
BITMAP
0003
001F
0007
0007
0006
0006
0006
000E
01EC
033C
0E1C
1C1C
181C
3818
7018
7038
E038
E030
E070
E0F2
61B4
733C
1E18
0000
01C0
03C0
06E0
0C60
1870
3030
ENDCHAR
STARTCHAR uni1E14
ENCODING 7700
SWIDTH 611 0
DWIDTH 20 0
BBX 22 33 -1 0
BITMAP
00C000
00E000
007000
003800
000C00
000400
000000
007F80
00FF00
000000
03FFFC
00F01C
00E00C
00E008
01E008
01C000
01C000
03C040
03C0C0
038080
038180
07FF80
078380
070100
070100
0F0100
0E0000
0E0000
0E0020
1E0060
1E0060
3C01C0
FFFFC0
ENDCHAR
STARTCHAR uni1E15
ENCODING 7701
SWIDTH 444 0
DWIDTH 15 0
BBX 13 25 2 0
BITMAP
1800
1C00
0E00
0700
0180
0080
0000
07F8
0FF0
0000
01E0
0670
0C38
1838
3070
30E0
71C0
7700
FC00
E000
E000
E020
E0C0
7380
3E00
ENDCHAR
STARTCHAR uni1E16
ENCODING 7702
SWIDTH 611 0
DWIDTH 20 0
BBX 22 33 -1 0
BITMAP
000180
000380
000700
000E00
001800
001000
000000
007F80
00FF00
000000
03FFFC
00F01C
00E00C
00E008
01E008
01C000
01C000
03C040
03C0C0
038080
038180
07FF80
078380
070100
070100
0F0100
0E0000
0E0000
0E0020
1E0060
1E0060
3C01C0
FFFFC0
ENDCHAR
STARTCHAR uni1E17
ENCODING 7703
SWIDTH 444 0
DWIDTH 15 0
BBX 13 25 2 0
BITMAP
0030
0070
00E0
01C0
0300
0200
0000
07F8
0FF0
0000
01E0
0670
0C38
1838
3070
30E0
71C0
7700
FC00
E000
E000
E020
E0C0
7380
3E00
ENDCHAR
STARTCHAR uni1E18
ENCODING 7704
SWIDTH 611 0
DWIDTH 20 0
BBX 22 30 -1 -7
BITMAP
03FFFC
00F01C
00E00C
00E008
01E008
01C000
01C000
03C040
03C0C0
038080
038180
07FF80
078380
070100
070100
0F0100
0E0000
0E0000
0E0020
1E0060
1E0060
3C01C0
FFFFC0
000000
007000
00F000
01B800
031800
061C00
0C0C00
ENDCHAR
STARTCHAR uni1E19
ENCODING 7705
SWIDTH 444 0
DWIDTH 15 0
BBX 14 22 1 -7
BITMAP
00F0
0338
061C
0C1C
1838
1870
38E0
3B80
7E00
7000
7000
7010
7060
39C0
1F00
0000
0700
0F00
1B80
3180
61C0
C0C0
ENDCHAR
STARTCHAR uni1E1A
ENCODING 7706
SWIDTH 611 0
DWIDTH 20 0
BBX 22 27 -1 -4
BITMAP
03FFFC
00F01C
00E00C
00E008
01E008
01C000
01C000
03C040
03C0C0
038080
038180
07FF80
078380
070100
070100
0F0100
0E0000
0E0000
0E0020
1E0060
1E0060
3C01C0
FFFFC0
000000
01CC00
07F800
0CE000
ENDCHAR
STARTCHAR uni1E1B
ENCODING 7707
SWIDTH 444 0
DWIDTH 15 0
BBX 14 19 1 -4
BITMAP
00F0
0338
061C
0C1C
1838
1870
38E0
3B80
7E00
7000
7000
7010
7060
39C0
1F00
0000
1CC0
7F80
CE00
ENDCHAR
STARTCHAR uni1E1C
ENCODING 7708
SWIDTH 611 0
DWIDTH 20 0
BBX 22 35 -1 -7
BITMAP
008100
00C300
007E00
003C00
000000
03FFFC
00F01C
00E00C
00E008
01E008
01C000
01C000
03C040
03C0C0
038080
038180
07FF80
078380
070100
070100
0F0100
0E0000
0E0000
0E0020
1E0060
1E0060
3C01C0
FFFFC0
006000
00C000
01F000
003800
001800
023800
01F000
ENDCHAR
STARTCHAR uni1E1D
ENCODING 7709
SWIDTH 444 0
DWIDTH 15 0
BBX 13 27 2 -7
BITMAP
0810
0C30
07E0
03C0
0000
01E0
0670
0C38
1838
3070
30E0
71C0
7700
FC00
E000
E000
E020
E0C0
7380
3E00
0600
0C00
1F00
0380
0180
2380
1F00
ENDCHAR
STARTCHAR uni1E1E
ENCODING 7710
SWIDTH 611 0
DWIDTH 20 0
BBX 22 28 0 0
BITMAP
001800
003C00
003C00
001800
000000
03FFFC
00F01C
00E00C
00E008
01E008
01C000
01C000
03C040
03C0C0
038080
038180
07FF80
078380
070100
070100
0F0100
0E0000
0E0000
0E0000
1E0000
1C0000
3E0000
FF8000
ENDCHAR
STARTCHAR uni1E1F
ENCODING 7711
SWIDTH 278 0
DWIDTH 9 0
BBX 19 35 -4 -7
BITMAP
000C00
001E00
001E00
000C00
000000
0003C0
0006E0
000CE0
001CC0
001800
003800
003000
003000
03FF00
007000
006000
006000
00E000
00E000
00E000
00C000
01C000
01C000
01C000
018000
018000
038000
038000
030000
030000
070000
660000
EE0000
EC0000
780000
ENDCHAR
STARTCHAR uni1E20
ENCODING 7712
SWIDTH 722 0
DWIDTH 24 0
BBX 22 26 2 0
BITMAP
007F80
00FF00
000000
003F88
00FFF8
03C070
070030
0E0030
1C0020
3C0020
380000
700000
700000
F00000
E00000
E00FFC
E001F0
E000E0
E001E0
E001C0
F001C0
7003C0
780380
3C0780
1E0F80
07FC00
ENDCHAR
STARTCHAR uni1E21
ENCODING 7713
SWIDTH 500 0
DWIDTH 16 0
BBX 16 25 0 -7
BITMAP
03FC
07F8
0000
01F0
073F
0E1F
0C1C
1C1C
1C1C
1C38
0C38
0E70
07C0
0C00
1800
1F00
0FC0
3FE0
61F0
C070
C030
C030
6020
78E0
1F80
ENDCHAR
STARTCHAR uni1E22
ENCODING 7714
SWIDTH 722 0
DWIDTH 24 0
BBX 26 28 0 0
BITMAP
00030000
00078000
00078000
00030000
00000000
03FC3FC0
00E00E00
00E00E00
01E01E00
01C01C00
01C01C00
03C03C00
03803800
03803800
03803800
07807800
07FFF000
07007000
0F00F000
0F00F000
0E00E000
0E00E000
0E00E000
1E01E000
1C01C000
1C01C000
3C03C000
FF0FF000
ENDCHAR
STARTCHAR uni1E23
ENCODING 7715
SWIDTH 500 0
DWIDTH 16 0
BBX 15 28 1 0
BITMAP
0300
0780
0780
0300
0000
0300
1F00
0700
0700
0700
0E00
0E00
0E00
0E78
1CFC
1D9C
1A1C
3C1C
381C
381C
3838
7038
7038
7038
7072
E074
E07C
E038
ENDCHAR
STARTCHAR uni1E24
ENCODING 7716
SWIDTH 722 0
DWIDTH 24 0
BBX 26 28 0 -5
BITMAP
03FC3FC0
00E00E00
00E00E00
01E01E00
01C01C00
01C01C00
03C03C00
03803800
03803800
03803800
07807800
07FFF000
07007000
0F00F000
0F00F000
0E00E000
0E00E000
0E00E000
1E01E000
1C01C000
1C01C000
3C03C000
FF0FF000
00000000
00300000
00780000
00780000
00300000
ENDCHAR
STARTCHAR uni1E25
ENCODING 7717
SWIDTH 500 0
DWIDTH 16 0
BBX 15 28 1 -5
BITMAP
0300
1F00
0700
0700
0700
0E00
0E00
0E00
0E78
1CFC
1D9C
1A1C
3C1C
381C
381C
3838
7038
7038
7038
7072
E074
E07C
E038
0000
0300
0780
0780
0300
ENDCHAR
STARTCHAR uni1E26
ENCODING 7718
SWIDTH 722 0
DWIDTH 24 0
BBX 26 27 0 0
BITMAP
0038E000
0038E000
0038E000
00000000
03FC3FC0
00E00E00
00E00E00
01E01E00
01C01C00
01C01C00
03C03C00
03803800
03803800
03803800
07807800
07FFF000
07007000
0F00F000
0F00F000
0E00E000
0E00E000
0E00E000
1E01E000
1C01C000
1C01C000
3C03C000
FF0FF000
ENDCHAR
STARTCHAR uni1E27
ENCODING 7719
SWIDTH 500 0
DWIDTH 16 0
BBX 15 27 1 0
BITMAP
38E0
38E0
38E0
0000
0300
1F00
0700
0700
0700
0E00
0E00
0E00
0E78
1CFC
1D9C
1A1C
3C1C
381C
381C
3838
7038
7038
7038
7072
E074
E07C
E038
ENDCHAR
STARTCHAR uni1E28
ENCODING 7720
SWIDTH 722 0
DWIDTH 24 0
BBX 26 30 0 -7
BITMAP
03FC3FC0
00E00E00
00E00E00
01E01E00
01C01C00
01C01C00
03C03C00
03803800
03803800
03803800
07807800
07FFF000
07007000
0F00F000
0F00F000
0E00E000
0E00E000
0E00E000
1E01E000
1C01C000
1C01C000
3C03C000
FF0FF000
00180000
00300000
007C0000
000E0000
00060000
008E0000
007C0000
ENDCHAR
STARTCHAR uni1E29
ENCODING 7721
SWIDTH 500 0
DWIDTH 16 0
BBX 15 30 1 -7
BITMAP
0300
1F00
0700
0700
0700
0E00
0E00
0E00
0E78
1CFC
1D9C
1A1C
3C1C
381C
381C
3838
7038
7038
7038
7072
E074
E07C
E0B8
0180
0300
07C0
00E0
0060
08E0
07C0
ENDCHAR
STARTCHAR uni1E2A
ENCODING 7722
SWIDTH 722 0
DWIDTH 24 0
BBX 26 28 0 -5
BITMAP
03FC3FC0
00E00E00
00E00E00
01E01E00
01C01C00
01C01C00
03C03C00
03803800
03803800
03803800
07807800
07FFF000
07007000
0F00F000
0F00F000
0E00E000
0E00E000
0E00E000
1E01E000
1C01C000
1C01C000
3C03C000
FF0FF000
00000000
01020000
01860000
00FC0000
00780000
ENDCHAR
STARTCHAR uni1E2B
ENCODING 7723
SWIDTH 500 0
DWIDTH 16 0
BBX 15 28 1 -5
BITMAP
0300
1F00
0700
0700
0700
0E00
0E00
0E00
0E78
1CFC
1D9C
1A1C
3C1C
381C
381C
3838
7038
7038
7038
7072
E074
E07C
E038
0000
1020
1860
0FC0
0780
ENDCHAR
STARTCHAR uni1E2C
ENCODING 7724
SWIDTH 333 0
DWIDTH 11 0
BBX 14 27 -2 -4
BITMAP
03FC
00F0
00E0
00E0
01E0
01C0
01C0
03C0
03C0
0380
0380
0780
0780
0700
0700
0F00
0E00
0E00
0E00
1E00
1C00
3C00
7F00
0000
1CC0
7F80
CE00
ENDCHAR
STARTCHAR uni1E2D
ENCODING 7725
SWIDTH 278 0
DWIDTH 9 0
BBX 10 27 -1 -4
BITMAP
01C0
01C0
01C0
0000
0000
0000
0000
0000
0180
0F80
0380
0300
0700
0700
0600
0E00
0E00
0E00
0C00
1C80
1D00
1F00
0E00
0000
1CC0
7F80
CE00
ENDCHAR
STARTCHAR uni1E2E
ENCODING 7726
SWIDTH 333 0
DWIDTH 11 0
BBX 15 35 0 0
BITMAP
0018
0038
0070
00E0
0180
0100
0000
038E
038E
038E
0000
0000
07F8
01E0
01C0
01C0
03C0
0380
0380
0780
0780
0700
0700
0F00
0F00
0E00
0E00
1E00
1C00
1C00
1C00
3800
3800
7800
FE00
ENDCHAR
STARTCHAR uni1E2F
ENCODING 7727
SWIDTH 278 0
DWIDTH 9 0
BBX 10 28 1 0
BITMAP
00C0
01C0
0380
0700
0C00
0800
0000
39C0
39C0
39C0
0000
0000
0000
0C00
7C00
1C00
1800
3800
3800
3000
7000
7000
7000
6000
E400
E800
F800
7000
ENDCHAR
STARTCHAR uni1E30
ENCODING 7728
SWIDTH 667 0
DWIDTH 22 0
BBX 23 30 0 0
BITMAP
000180
000380
000700
000E00
001800
001000
000000
07F9FE
01E078
01C060
01C0C0
03C180
038300
038600
078C00
079800
077000
07E000
0FF000
0F7800
0E3800
0E3C00
1E1C00
1C1E00
1C0F00
1C0780
3C0780
3C03C0
3803E0
FF07F8
ENDCHAR
STARTCHAR uni1E31
ENCODING 7729
SWIDTH 444 0
DWIDTH 15 0
BBX 15 30 1 0
BITMAP
0060
00E0
01C0
0380
0600
0400
0000
0300
1F00
0700
0600
0E00
0E00
0C00
0C00
1C7E
1C18
1830
3860
38C0
3980
3B00
7F00
7F00
7380
73C0
61C4
E1E8
E0F8
E070
ENDCHAR
STARTCHAR uni1E32
ENCODING 7730
SWIDTH 667 0
DWIDTH 22 0
BBX 23 28 0 -5
BITMAP
07F9FE
01E078
01C060
01C0C0
03C180
038300
038600
078C00
079800
077000
07E000
0FF000
0F7800
0E3800
0E3C00
1E1C00
1C1E00
1C0F00
1C0780
3C0780
3C03C0
3803E0
FF07F8
000000
003000
007800
007800
003000
ENDCHAR
STARTCHAR uni1E33
ENCODING 7731
SWIDTH 444 0
DWIDTH 15 0
BBX 15 28 1 -5
BITMAP
0300
1F00
0700
0600
0E00
0E00
0C00
0C00
1C7E
1C18
1830
3860
38C0
3980
3B00
7F00
7F00
7380
73C0
61C4
E1E8
E0F8
E070
0000
0300
0780
0780
0300
ENDCHAR
STARTCHAR uni1E34
ENCODING 7732
SWIDTH 667 0
DWIDTH 22 0
BBX 23 26 0 -3
BITMAP
07F9FE
01E078
01C060
01C0C0
03C180
038300
038600
078C00
079800
077000
07E000
0FF000
0F7800
0E3800
0E3C00
1E1C00
1C1E00
1C0F00
1C0780
3C0780
3C03C0
3803E0
FF07F8
000000
01FE00
03FC00
ENDCHAR
STARTCHAR uni1E35
ENCODING 7733
SWIDTH 444 0
DWIDTH 15 0
BBX 15 26 1 -3
BITMAP
0300
1F00
0700
0600
0E00
0E00
0C00
0C00
1C7E
1C18
1830
3860
38C0
3980
3B00
7F00
7F00
7380
73C0
61C4
E1E8
E0F8
E070
0000
1FE0
3FC0
ENDCHAR
STARTCHAR uni1E36
ENCODING 7734
SWIDTH 556 0
DWIDTH 18 0
BBX 19 28 -1 -5
BITMAP
07F800
01E000
01C000
01C000
03C000
038000
038000
078000
078000
070000
070000
0F0000
0F0000
0E0000
0E0000
1E0000
1C0000
1C0020
1C0060
3C00C0
3C01C0
7FFF80
FFFF80
000000
00C000
01E000
01E000
00C000
ENDCHAR
STARTCHAR uni1E37
ENCODING 7735
SWIDTH 278 0
DWIDTH 9 0
BBX 8 28 2 -5
BITMAP
03
1F
07
06
0E
0E
0C
0C
1C
1C
18
38
38
38
30
70
70
60
60
E4
E8
F8
70
00
30
78
78
30
ENDCHAR
STARTCHAR uni1E38
ENCODING 7736
SWIDTH 556 0
DWIDTH 18 0
BBX 19 31 -1 -5
BITMAP
03FC00
07F800
000000
07F800
01E000
01C000
01C000
03C000
038000
038000
078000
078000
070000
070000
0F0000
0F0000
0E0000
0E0000
1E0000
1C0000
1C0020
1C0060
3C00C0
3C01C0
7FFF80
FFFF80
000000
00C000
01E000
01E000
00C000
ENDCHAR
STARTCHAR uni1E39
ENCODING 7737
SWIDTH 278 0
DWIDTH 9 0
BBX 10 31 2 -5
BITMAP
3FC0
7F80
0000
0300
1F00
0700
0600
0E00
0E00
0C00
0C00
1C00
1C00
1800
3800
3800
3800
3000
7000
7000
6000
6000
E400
E800
F800
7000
0000
3000
7800
7800
3000
ENDCHAR
STARTCHAR uni1E3A
ENCODING 7738
SWIDTH 556 0
DWIDTH 18 0
BBX 19 26 -1 -3
BITMAP
07F800
01E000
01C000
01C000
03C000
038000
038000
078000
078000
070000
070000
0F0000
0F0000
0E0000
0E0000
1E0000
1C0000
1C0020
1C0060
3C00C0
3C01C0
7FFF80
FFFF80
000000
07F800
0FF000
ENDCHAR
STARTCHAR uni1E3B
ENCODING 7739
SWIDTH 278 0
DWIDTH 9 0
BBX 10 26 0 -3
BITMAP
00C0
07C0
01C0
0180
0380
0380
0300
0300
0700
0700
0600
0E00
0E00
0E00
0C00
1C00
1C00
1800
1800
3900
3A00
3E00
1C00
0000
7F80
FF00
ENDCHAR
STARTCHAR uni1E3C
ENCODING 7740
SWIDTH 556 0
DWIDTH 18 0
BBX 19 30 -1 -7
BITMAP
07F800
01E000
01C000
01C000
03C000
038000
038000
078000
078000
070000
070000
0F0000
0F0000
0E0000
0E0000
1E0000
1C0000
1C0020
1C0060
3C00C0
3C01C0
7FFF80
FFFF80
000000
00E000
01E000
037000
063000
0C3800
181800
ENDCHAR
STARTCHAR uni1E3D
ENCODING 7741
SWIDTH 278 0
DWIDTH 9 0
BBX 11 30 -1 -7
BITMAP
0060
03E0
00E0
00C0
01C0
01C0
0180
0180
0380
0380
0300
0700
0700
0700
0600
0E00
0E00
0C00
0C00
1C80
1D00
1F00
0E00
0000
0700
0F00
1B80
3180
61C0
C0C0
ENDCHAR
STARTCHAR uni1E3E
ENCODING 7742
SWIDTH 833 0
DWIDTH 28 0
BBX 30 30 0 0
BITMAP
00001800
00003800
00007000
0000E000
00018000
00010000
00000000
07E001FC
01E001F0
01E003E0
01E003E0
036007C0
03700DC0
037009C0
03701BC0
06703380
06706380
06706780
0C70C780
0C70C700
0C718700
0C730F00
18330F00
18360E00
183C0E00
183C1E00
30381C00
30301C00
30303E00
FE20FF80
ENDCHAR
STARTCHAR uni1E3F
ENCODING 7743
SWIDTH 722 0
DWIDTH 24 0
BBX 23 22 1 0
BITMAP
000300
000700
000E00
001C00
003000
002000
000000
0C7838
7CFCFC
1D9D9C
1A1E1C
3C1C1C
381838
383838
383838
703838
703038
707070
707072
E07074
E0E07C
E0E038
ENDCHAR
STARTCHAR uni1E40
ENCODING 7744
SWIDTH 833 0
DWIDTH 28 0
BBX 30 28 0 0
BITMAP
0000C000
0001E000
0001E000
0000C000
00000000
07E001FC
01E001F0
01E003E0
01E003E0
036007C0
03700DC0
037009C0
03701BC0
06703380
06706380
06706780
0C70C780
0C70C700
0C718700
0C730F00
18330F00
18360E00
183C0E00
183C1E00
30381C00
30301C00
30303E00
FE20FF80
ENDCHAR
STARTCHAR uni1E41
ENCODING 7745
SWIDTH 722 0
DWIDTH 24 0
BBX 23 20 1 0
BITMAP
001800
003C00
003C00
001800
000000
0C7838
7CFCFC
1D9D9C
1A1E1C
3C1C1C
381838
383838
383838
703838
703038
707070
707072
E07074
E0E07C
E0E038
ENDCHAR
STARTCHAR uni1E42
ENCODING 7746
SWIDTH 833 0
DWIDTH 28 0
BBX 30 28 0 -5
BITMAP
07E001FC
01E001F0
01E003E0
01E003E0
036007C0
03700DC0
037009C0
03701BC0
06703380
06706380
06706780
0C70C780
0C70C700
0C718700
0C730F00
18330F00
18360E00
183C0E00
183C1E00
30381C00
30301C00
30303E00
FE20FF80
00000000
00060000
000F0000
000F0000
00060000
ENDCHAR
STARTCHAR uni1E43
ENCODING 7747
SWIDTH 722 0
DWIDTH 24 0
BBX 23 20 1 -5
BITMAP
0C7838
7CFCFC
1D9D9C
1A1E1C
3C1C1C
381838
383838
383838
703838
703038
707070
707072
E07074
E0E07C
E0E038
000000
003000
007800
007800
003000
ENDCHAR
STARTCHAR uni1E44
ENCODING 7748
SWIDTH 667 0
DWIDTH 22 0
BBX 25 28 -1 0
BITMAP
000C0000
001E0000
001E0000
000C0000
00000000
07C03F80
01E00E00
01E00C00
01E00C00
01700C00
01700800
03780800
03381800
02381800
021C1000
061C1000
061E3000
040E3000
040E2000
0C072000
0C076000
08076000
0803E000
1803C000
1801C000
1801C000
3801C000
FE00C000
ENDCHAR
STARTCHAR uni1E45
ENCODING 7749
SWIDTH 500 0
DWIDTH 16 0
BBX 15 20 1 0
BITMAP
0180
03C0
03C0
0180
0000
0C78
7CFC
1D1C
1A1C
3C1C
381C
3838
3838
7038
7038
7070
6072
E074
E07C
E038
ENDCHAR
STARTCHAR uni1E46
ENCODING 7750
SWIDTH 667 0
DWIDTH 22 0
BBX 25 28 -1 -5
BITMAP
07C03F80
01E00E00
01E00C00
01E00C00
01700C00
01700800
03780800
03381800
02381800
021C1000
061C1000
061E3000
040E3000
040E2000
0C072000
0C076000
08076000
0803E000
1803C000
1801C000
1801C000
3801C000
FE00C000
00000000
00300000
00780000
00780000
00300000
ENDCHAR
STARTCHAR uni1E47
ENCODING 7751
SWIDTH 500 0
DWIDTH 16 0
BBX 15 20 1 -5
BITMAP
0C78
7CFC
1D1C
1A1C
3C1C
381C
3838
3838
7038
7038
7070
6072
E074
E07C
E038
0000
0300
0780
0780
0300
ENDCHAR
STARTCHAR uni1E48
ENCODING 7752
SWIDTH 667 0
DWIDTH 22 0
BBX 25 26 -1 -3
BITMAP
07C03F80
01E00E00
01E00C00
01E00C00
01700C00
01700800
03780800
03381800
02381800
021C1000
061C1000
061E3000
040E3000
040E2000
0C072000
0C076000
08076000
0803E000
1803C000
1801C000
1801C000
3801C000
FE00C000
00000000
01FE0000
03FC0000
ENDCHAR
STARTCHAR uni1E49
ENCODING 7753
SWIDTH 500 0
DWIDTH 16 0
BBX 15 18 1 -3
BITMAP
0C78
7CFC
1D1C
1A1C
3C1C
381C
3838
3838
7038
7038
7070
6072
E074
E07C
E038
0000
0FF0
1FE0
ENDCHAR
STARTCHAR uni1E4A
ENCODING 7754
SWIDTH 667 0
DWIDTH 22 0
BBX 25 30 -1 -7
BITMAP
07C03F80
01E00E00
01E00C00
01E00C00
01700C00
01700800
03780800
03381800
02381800
021C1000
061C1000
061E3000
040E3000
040E2000
0C072000
0C076000
08076000
0803E000
1803C000
1801C000
1801C000
3801C000
FE00C000
00000000
00380000
00780000
00DC0000
018C0000
030E0000
06060000
ENDCHAR
STARTCHAR uni1E4B
ENCODING 7755
SWIDTH 500 0
DWIDTH 16 0
BBX 15 22 1 -7
BITMAP
0C78
7CFC
1D1C
1A1C
3C1C
381C
3838
3838
7038
7038
7070
6072
E074
E07C
E038
0000
01C0
03C0
06E0
0C60
1870
3030
ENDCHAR
STARTCHAR uni1E4C
ENCODING 7756
SWIDTH 722 0
DWIDTH 24 0
BBX 19 35 3 0
BITMAP
000300
000700
000E00
001C00
003000
002000
000000
001CC0
007F80
00CE00
000000
000000
007E00
01C780
0301C0
0701C0
0E00E0
1E00E0
1C00E0
3800E0
7800E0
7801E0
7001E0
F001E0
F001C0
F003C0
E003C0
E00380
E00700
E00F00
E00E00
701C00
703800
3CE000
0F8000
ENDCHAR
STARTCHAR uni1E4D
ENCODING 7757
SWIDTH 500 0
DWIDTH 17 0
BBX 16 28 1 0
BITMAP
000C
001C
0038
0070
00C0
0080
0000
0073
01FE
0338
0000
0000
0000
01F0
039C
0E0C
1C0E
180E
380E
700E
701C
E01C
E038
E030
E070
60E0
7380
1F00
ENDCHAR
STARTCHAR uni1E4E
ENCODING 7758
SWIDTH 722 0
DWIDTH 24 0
BBX 19 32 3 0
BITMAP
01C700
01C700
01C700
000000
001CC0
007F80
00CE00
000000
000000
007E00
01C780
0301C0
0701C0
0E00E0
1E00E0
1C00E0
3800E0
7800E0
7801E0
7001E0
F001E0
F001C0
F003C0
E003C0
E00380
E00700
E00F00
E00E00
701C00
703800
3CE000
0F8000
ENDCHAR
STARTCHAR uni1E4F
ENCODING 7759
SWIDTH 500 0
DWIDTH 17 0
BBX 16 25 1 0
BITMAP
038E
038E
038E
0000
0073
01FE
0338
0000
0000
0000
01F0
039C
0E0C
1C0E
180E
380E
700E
701C
E01C
E038
E030
E070
60E0
7380
1F00
ENDCHAR
STARTCHAR uni1E50
ENCODING 7760
SWIDTH 722 0
DWIDTH 24 0
BBX 19 33 3 0
BITMAP
018000
01C000
00E000
007000
001800
000800
000000
00FF00
01FE00
000000
007E00
01C780
0301C0
0701C0
0E00E0
1E00E0
1C00E0
3800E0
7800E0
7801E0
7001E0
F001E0
F001C0
F003C0
E003C0
E00380
E00700
E00F00
E00E00
701C00
703800
3CE000
0F8000
ENDCHAR
STARTCHAR uni1E51
ENCODING 7761
SWIDTH 500 0
DWIDTH 17 0
BBX 15 25 1 0
BITMAP
0C00
0E00
0700
0380
00C0
0040
0000
03FC
07F8
0000
01F0
039C
0E0C
1C0E
180E
380E
700E
701C
E01C
E038
E030
E070
60E0
7380
1F00
ENDCHAR
STARTCHAR uni1E52
ENCODING 7762
SWIDTH 722 0
DWIDTH 24 0
BBX 19 33 3 0
BITMAP
000300
000700
000E00
001C00
003000
002000
000000
00FF00
01FE00
000000
007E00
01C780
0301C0
0701C0
0E00E0
1E00E0
1C00E0
3800E0
7800E0
7801E0
7001E0
F001E0
F001C0
F003C0
E003C0
E00380
E00700
E00F00
E00E00
701C00
703800
3CE000
0F8000
ENDCHAR
STARTCHAR uni1E53
ENCODING 7763
SWIDTH 500 0
DWIDTH 17 0
BBX 15 25 1 0
BITMAP
0018
0038
0070
00E0
0180
0100
0000
03FC
07F8
0000
01F0
039C
0E0C
1C0E
180E
380E
700E
701C
E01C
E038
E030
E070
60E0
7380
1F00
ENDCHAR
STARTCHAR uni1E54
ENCODING 7764
SWIDTH 611 0
DWIDTH 20 0
BBX 21 30 0 0
BITMAP
000180
000380
000700
000E00
001800
001000
000000
03FF80
00F1E0
00E070
00E070
01E038
01C038
01C038
03C038
03C070
038070
0381E0
078780
07FE00
070000
070000
0F0000
0E0000
0E0000
0E0000
1E0000
1C0000
3E0000
FF8000
ENDCHAR
STARTCHAR uni1E55
ENCODING 7765
SWIDTH 500 0
DWIDTH 17 0
BBX 19 29 -2 -7
BITMAP
000300
000700
000E00
001C00
003000
002000
000000
018780
0F9FC0
03B1E0
03E0E0
03C0E0
0380E0
0380E0
0300C0
0701C0
070180
060380
0E0700
0E0E00
0F3800
0FF000
1C0000
1C0000
180000
180000
380000
380000
FE0000
ENDCHAR
STARTCHAR uni1E56
ENCODING 7766
SWIDTH 611 0
DWIDTH 20 0
BBX 21 28 0 0
BITMAP
001800
003C00
003C00
001800
000000
03FF80
00F1E0
00E070
00E070
01E038
01C038
01C038
03C038
03C070
038070
0381E0
078780
07FE00
070000
070000
0F0000
0E0000
0E0000
0E0000
1E0000
1C0000
3E0000
FF8000
ENDCHAR
STARTCHAR uni1E57
ENCODING 7767
SWIDTH 500 0
DWIDTH 17 0
BBX 19 27 -2 -7
BITMAP
003000
007800
007800
003000
000000
018780
0F9FC0
03B1E0
03E0E0
03C0E0
0380E0
0380E0
0300C0
0701C0
070180
060380
0E0700
0E0E00
0F3800
0FF000
1C0000
1C0000
180000
180000
380000
380000
FE0000
ENDCHAR
STARTCHAR uni1E58
ENCODING 7768
SWIDTH 611 0
DWIDTH 20 0
BBX 20 28 -1 0
BITMAP
001800
003C00
003C00
001800
000000
03FF80
00F3E0
00E0E0
00E070
01E070
01C070
01C070
03C070
03C0E0
0380E0
0383C0
07FF00
07FC00
071C00
071C00
0F0E00
0E0E00
0E0700
0E0700
1E0780
1C0380
3E03C0
FF83F0
ENDCHAR
STARTCHAR uni1E59
ENCODING 7769
SWIDTH 389 0
DWIDTH 13 0
BBX 12 20 2 0
BITMAP
0300
0780
0780
0300
0000
0C60
7CF0
19F0
1B30
1E00
3C00
3800
3800
3000
7000
7000
7000
6000
E000
E000
ENDCHAR
STARTCHAR uni1E5A
ENCODING 7770
SWIDTH 611 0
DWIDTH 20 0
BBX 20 28 -1 -5
BITMAP
03FF80
00F3E0
00E0E0
00E070
01E070
01C070
01C070
03C070
03C0E0
0380E0
0383C0
07FF00
07FC00
071C00
071C00
0F0E00
0E0E00
0E0700
0E0700
1E0780
1C0380
3E03C0
FF83F0
000000
006000
00F000
00F000
006000
ENDCHAR
STARTCHAR uni1E5B
ENCODING 7771
SWIDTH 389 0
DWIDTH 13 0
BBX 12 20 2 -5
BITMAP
0C60
7CF0
19F0
1B30
1E00
3C00
3800
3800
3000
7000
7000
7000
6000
E000
E000
0000
3000
7800
7800
3000
ENDCHAR
STARTCHAR uni1E5C
ENCODING 7772
SWIDTH 611 0
DWIDTH 20 0
BBX 20 31 -1 -5
BITMAP
007F80
00FF00
000000
03FF80
00F3E0
00E0E0
00E070
01E070
01C070
01C070
03C070
03C0E0
0380E0
0383C0
07FF00
07FC00
071C00
071C00
0F0E00
0E0E00
0E0700
0E0700
1E0780
1C0380
3E03C0
FF83F0
000000
006000
00F000
00F000
006000
ENDCHAR
STARTCHAR uni1E5D
ENCODING 7773
SWIDTH 389 0
DWIDTH 13 0
BBX 12 23 2 -5
BITMAP
1FE0
3FC0
0000
0C60
7CF0
19F0
1B30
1E00
3C00
3800
3800
3000
7000
7000
7000
6000
E000
E000
0000
3000
7800
7800
3000
ENDCHAR
STARTCHAR uni1E5E
ENCODING 7774
SWIDTH 611 0
DWIDTH 20 0
BBX 20 26 -1 -3
BITMAP
03FF80
00F3E0
00E0E0
00E070
01E070
01C070
01C070
03C070
03C0E0
0380E0
0383C0
07FF00
07FC00
071C00
071C00
0F0E00
0E0E00
0E0700
0E0700
1E0780
1C0380
3E03C0
FF83F0
000000
03FC00
07F800
ENDCHAR
STARTCHAR uni1E5F
ENCODING 7775
SWIDTH 389 0
DWIDTH 13 0
BBX 14 18 0 -3
BITMAP
0318
1F3C
067C
06CC
0780
0F00
0E00
0E00
0C00
1C00
1C00
1C00
1800
3800
3800
0000
7F80
FF00
ENDCHAR
STARTCHAR uni1E60
ENCODING 7776
SWIDTH 500 0
DWIDTH 17 0
BBX 16 28 2 0
BITMAP
00C0
01E0
01E0
00C0
0000
03F1
071F
0E0E
0C06
1C06
1C04
1C04
1E00
0F00
0F80
07C0
03E0
01E0
00F0
0078
0078
8038
8038
8038
C070
C070
F1E0
BF80
ENDCHAR
STARTCHAR uni1E61
ENCODING 7777
SWIDTH 389 0
DWIDTH 13 0
BBX 12 20 1 0
BITMAP
0300
0780
0780
0300
0000
07D0
0E70
1C30
1C10
1C10
1E00
0E00
0700
0780
0380
81C0
81C0
C1C0
E380
BF00
ENDCHAR
STARTCHAR uni1E62
ENCODING 7778
SWIDTH 500 0
DWIDTH 17 0
BBX 16 28 2 -5
BITMAP
03F1
071F
0E0E
0C06
1C06
1C04
1C04
1E00
0F00
0F80
07C0
03E0
01E0
00F0
0078
0078
8038
8038
8038
C070
C070
F1E0
BF80
0000
0300
0780
0780
0300
ENDCHAR
STARTCHAR uni1E63
ENCODING 7779
SWIDTH 389 0
DWIDTH 13 0
BBX 12 20 1 -5
BITMAP
07D0
0E70
1C30
1C10
1C10
1E00
0E00
0700
0780
0380
81C0
81C0
C1C0
E380
BF00
0000
0C00
1E00
1E00
0C00
ENDCHAR
STARTCHAR uni1E64
ENCODING 7780
SWIDTH 500 0
DWIDTH 17 0
BBX 16 35 2 0
BITMAP
00C0
01E0
01E0
00C0
0000
0018
0038
0070
00E0
0180
0100
0000
03F1
071F
0E0E
0C06
1C06
1C04
1C04
1E00
0F00
0F80
07C0
03E0
01E0
00F0
0078
0078
8038
8038
8038
C070
C070
F1E0
BF80
ENDCHAR
STARTCHAR uni1E65
ENCODING 7781
SWIDTH 389 0
DWIDTH 13 0
BBX 12 27 1 0
BITMAP
0300
0780
0780
0300
0000
0060
00E0
01C0
0380
0600
0400
0000
07D0
0E70
1C30
1C10
1C10
1E00
0E00
0700
0780
0380
81C0
81C0
C1C0
E380
BF00
ENDCHAR
STARTCHAR uni1E66
ENCODING 7782
SWIDTH 500 0
DWIDTH 16 0
BBX 17 31 0 0
BITMAP
006000
00F000
00F000
006000
000000
018180
01C300
00C600
00EC00
007800
007000
000000
01F980
038F00
070700
0E0300
0E0200
0F0200
078000
07E000
03E000
00F800
003800
803C00
801C00
C01C00
C01C00
E03800
F07800
FFF000
BFC000
ENDCHAR
STARTCHAR uni1E67
ENCODING 7783
SWIDTH 389 0
DWIDTH 13 0
BBX 14 27 1 0
BITMAP
0180
03C0
03C0
0180
0000
0C0C
0E18
0630
0760
03C0
0380
0000
07D0
0E70
1C30
1C10
1C10
1E00
0E00
0700
0780
0380
81C0
81C0
C1C0
E380
BF00
ENDCHAR
STARTCHAR uni1E68
ENCODING 7784
SWIDTH 500 0
DWIDTH 17 0
BBX 16 33 2 -5
BITMAP
0180
03C0
03C0
0180
0000
03F1
071F
0E0E
0C06
1C06
1C04
1C04
1E00
0F00
0F80
07C0
03E0
01E0
00F0
0078
0078
8038
8038
8038
C070
C070
F1E0
BF80
0000
0300
0780
0780
0300
ENDCHAR
STARTCHAR uni1E69
ENCODING 7785
SWIDTH 389 0
DWIDTH 13 0
BBX 12 25 1 -5
BITMAP
0300
0780
0780
0300
0000
07D0
0E70
1C30
1C10
1C10
1E00
0E00
0700
0780
0380
81C0
81C0
C1C0
E380
BF00
0000
0C00
1E00
1E00
0C00
ENDCHAR
STARTCHAR uni1E6A
ENCODING 7786
SWIDTH 556 0
DWIDTH 18 0
BBX 18 28 3 0
BITMAP
00C000
01E000
01E000
00C000
000000
FFFFC0
E1E1C0
C1E0C0
81E0C0
81C080
01C000
03C000
03C000
038000
038000
078000
078000
070000
070000
0F0000
0F0000
0E0000
0E0000
1E0000
1E0000
1E0000
3E0000
FF8000
ENDCHAR
STARTCHAR uni1E6B
ENCODING 7787
SWIDTH 278 0
DWIDTH 9 0
BBX 8 24 2 0
BITMAP
18
3C
3C
18
00
04
04
0C
1C
7F
1C
18
38
38
38
30
70
70
60
60
E4
E8
F8
70
ENDCHAR
STARTCHAR uni1E6C
ENCODING 7788
SWIDTH 556 0
DWIDTH 18 0
BBX 18 28 3 -5
BITMAP
FFFFC0
E1E1C0
C1E0C0
81E0C0
81C080
01C000
03C000
03C000
038000
038000
078000
078000
070000
070000
0F0000
0F0000
0E0000
0E0000
1E0000
1E0000
1E0000
3E0000
FF8000
000000
060000
0F0000
0F0000
060000
ENDCHAR
STARTCHAR uni1E6D
ENCODING 7789
SWIDTH 278 0
DWIDTH 9 0
BBX 8 24 2 -5
BITMAP
04
04
0C
1C
7F
1C
18
38
38
38
30
70
70
60
60
E4
E8
F8
70
00
30
78
78
30
ENDCHAR
STARTCHAR uni1E6E
ENCODING 7790
SWIDTH 556 0
DWIDTH 18 0
BBX 18 26 3 -3
BITMAP
FFFFC0
E1E1C0
C1E0C0
81E0C0
81C080
01C000
03C000
03C000
038000
038000
078000
078000
070000
070000
0F0000
0F0000
0E0000
0E0000
1E0000
1E0000
1E0000
3E0000
FF8000
000000
3FC000
7F8000
ENDCHAR
STARTCHAR uni1E6F
ENCODING 7791
SWIDTH 278 0
DWIDTH 9 0
BBX 10 22 0 -3
BITMAP
0100
0100
0300
0700
1FC0
0700
0600
0E00
0E00
0E00
0C00
1C00
1C00
1800
1800
3900
3A00
3E00
1C00
0000
7F80
FF00
ENDCHAR
STARTCHAR uni1E70
ENCODING 7792
SWIDTH 556 0
DWIDTH 18 0
BBX 18 30 3 -7
BITMAP
FFFFC0
E1E1C0
C1E0C0
81E0C0
81C080
01C000
03C000
03C000
038000
038000
078000
078000
070000
070000
0F0000
0F0000
0E0000
0E0000
1E0000
1E0000
1E0000
3E0000
FF8000
000000
070000
0F0000
1B8000
318000
61C000
C0C000
ENDCHAR
STARTCHAR uni1E71
ENCODING 7793
SWIDTH 278 0
DWIDTH 9 0
BBX 11 26 -1 -7
BITMAP
0080
0080
0180
0380
0FE0
0380
0300
0700
0700
0700
0600
0E00
0E00
0C00
0C00
1C80
1D00
1F00
0E00
0000
0700
0F00
1B80
3180
61C0
C0C0
ENDCHAR
STARTCHAR uni1E72
ENCODING 7794
SWIDTH 722 0
DWIDTH 24 0
BBX 23 27 3 -4
BITMAP
7FC0FE
1F0038
0E0018
0E0010
1E0030
1C0030
1C0020
3C0020
380060
380040
380040
7800C0
7000C0
700080
F00180
F00180
E00100
E00300
E00300
700600
781C00
3FF800
0FE000
000000
0E3800
0E3800
0E3800
ENDCHAR
STARTCHAR uni1E73
ENCODING 7795
SWIDTH 500 0
DWIDTH 17 0
BBX 15 19 1 -4
BITMAP
1C1C
FC1C
1C1C
381C
3838
3838
3838
3838
7038
7070
7070
70F0
71B2
7F3C
3C18
0000
1C70
1C70
1C70
ENDCHAR
STARTCHAR uni1E74
ENCODING 7796
SWIDTH 722 0
DWIDTH 24 0
BBX 23 27 3 -4
BITMAP
7FC0FE
1F0038
0E0018
0E0010
1E0030
1C0030
1C0020
3C0020
380060
380040
380040
7800C0
7000C0
700080
F00180
F00180
E00100
E00300
E00300
700600
781C00
3FF800
0FE000
000000
039800
0FF000
19C000
ENDCHAR
STARTCHAR uni1E75
ENCODING 7797
SWIDTH 500 0
DWIDTH 17 0
BBX 15 19 1 -4
BITMAP
1C1C
FC1C
1C1C
381C
3838
3838
3838
3838
7038
7070
7070
70F0
71B2
7F3C
3C18
0000
0E60
3FC0
6700
ENDCHAR
STARTCHAR uni1E76
ENCODING 7798
SWIDTH 722 0
DWIDTH 24 0
BBX 23 30 3 -7
BITMAP
7FC0FE
1F0038
0E0018
0E0010
1E0030
1C0030
1C0020
3C0020
380060
380040
380040
7800C0
7000C0
700080
F00180
F00180
E00100
E00300
E00300
700600
781C00
3FF800
0FE000
000000
00E000
01E000
037000
063000
0C3800
181800
ENDCHAR
STARTCHAR uni1E77
ENCODING 7799
SWIDTH 500 0
DWIDTH 17 0
BBX 15 22 1 -7
BITMAP
1C1C
FC1C
1C1C
381C
3838
3838
3838
3838
7038
7070
7070
70F0
71B2
7F3C
3C18
0000
0380
0780
0DC0
18C0
30E0
6060
ENDCHAR
STARTCHAR uni1E78
ENCODING 7800
SWIDTH 722 0
DWIDTH 24 0
BBX 23 34 3 0
BITMAP
000300
000700
000E00
001C00
003000
002000
000000
003980
00FF00
019C00
000000
7FC0FE
1F0038
0E0018
0E0010
1E0030
1C0030
1C0020
3C0020
380060
380040
380040
7800C0
7000C0
700080
F00180
F00180
E00100
E00300
E00300
700600
781C00
3FF800
0FE000
ENDCHAR
STARTCHAR uni1E79
ENCODING 7801
SWIDTH 500 0
DWIDTH 17 0
BBX 15 26 1 0
BITMAP
0030
0070
00E0
01C0
0300
0200
0000
0398
0FF0
19C0
0000
1C1C
FC1C
1C1C
381C
3838
3838
3838
3838
7038
7070
7070
70F0
71B2
7F3C
3C18
ENDCHAR
STARTCHAR uni1E7A
ENCODING 7802
SWIDTH 722 0
DWIDTH 24 0
BBX 23 30 3 0
BITMAP
01C700
01C700
01C700
000000
00FF00
01FE00
000000
7FC0FE
1F0038
0E0018
0E0010
1E0030
1C0030
1C0020
3C0020
380060
380040
380040
7800C0
7000C0
700080
F00180
F00180
E00100
E00300
E00300
700600
781C00
3FF800
0FE000
ENDCHAR
STARTCHAR uni1E7B
ENCODING 7803
SWIDTH 500 0
DWIDTH 17 0
BBX 15 22 1 0
BITMAP
1C70
1C70
1C70
0000
0FF0
1FE0
0000
1C1C
FC1C
1C1C
381C
3838
3838
3838
3838
7038
7070
7070
70F0
71B2
7F3C
3C18
ENDCHAR
STARTCHAR uni1E7C
ENCODING 7804
SWIDTH 611 0
DWIDTH 20 0
BBX 21 27 2 0
BITMAP
00E600
03FC00
067000
000000
FF01F8
7C0060
380040
3800C0
380180
380180
1C0300
1C0200
1C0600
1C0C00
1E0C00
0E1800
0E1000
0E3000
0E6000
0E6000
0EC000
0F8000
078000
070000
060000
060000
040000
ENDCHAR
STARTCHAR uni1E7D
ENCODING 7805
SWIDTH 444 0
DWIDTH 15 0
BBX 14 19 0 0
BITMAP
0398
0FF0
19C0
0000
1C38
FC3C
3C1C
0C0C
0E0C
0E18
0E18
0630
0670
0660
06E0
07C0
0780
0700
0600
ENDCHAR
STARTCHAR uni1E7E
ENCODING 7806
SWIDTH 611 0
DWIDTH 20 0
BBX 21 28 2 -5
BITMAP
FF01F8
7C0060
380040
3800C0
380180
380180
1C0300
1C0200
1C0600
1C0C00
1E0C00
0E1800
0E1000
0E3000
0E6000
0E6000
0EC000
0F8000
078000
070000
060000
060000
040000
000000
018000
03C000
03C000
018000
ENDCHAR
STARTCHAR uni1E7F
ENCODING 7807
SWIDTH 444 0
DWIDTH 15 0
BBX 14 20 0 -5
BITMAP
1C38
FC3C
3C1C
0C0C
0E0C
0E18
0E18
0630
0670
0660
06E0
07C0
0780
0700
0600
0000
0300
0780
0780
0300
ENDCHAR
STARTCHAR Wgrave
ENCODING 7808
SWIDTH 833 0
DWIDTH 28 0
BBX 31 30 1 0
BITMAP
00300000
00380000
001C0000
000E0000
00030000
00010000
00000000
FF0FE0FE
3C038038
1C038030
1C038060
1C038060
1C0380C0
1C0780C0
1C058180
1C0D8180
1C09C300
0E19C200
0E19C600
0E31C400
0E31CC00
0E61C800
0E41D800
0EC0F000
0780F000
0700E000
0700E000
0600C000
0600C000
04008000
ENDCHAR
STARTCHAR wgrave
ENCODING 7809
SWIDTH 667 0
DWIDTH 22 0
BBX 21 22 0 0
BITMAP
030000
038000
01C000
00E000
003000
001000
000000
180C70
FC1C78
3C1C38
1C3C18
1C3C38
0C6C30
0CCC30
0CCC60
0D8CE0
0D0CC0
0F0D80
0E0F80
0C0F00
0C0E00
080C00
ENDCHAR
STARTCHAR Wacute
ENCODING 7810
SWIDTH 833 0
DWIDTH 28 0
BBX 31 30 1 0
BITMAP
00006000
0000E000
0001C000
00038000
00060000
00040000
00000000
FF0FE0FE
3C038038
1C038030
1C038060
1C038060
1C0380C0
1C0780C0
1C058180
1C0D8180
1C09C300
0E19C200
0E19C600
0E31C400
0E31CC00
0E61C800
0E41D800
0EC0F000
0780F000
0700E000
0700E000
0600C000
0600C000
04008000
ENDCHAR
STARTCHAR wacute
ENCODING 7811
SWIDTH 667 0
DWIDTH 22 0
BBX 21 22 0 0
BITMAP
000600
000E00
001C00
003800
006000
004000
000000
180C70
FC1C78
3C1C38
1C3C18
1C3C38
0C6C30
0CCC30
0CCC60
0D8CE0
0D0CC0
0F0D80
0E0F80
0C0F00
0C0E00
080C00
ENDCHAR
STARTCHAR Wdieresis
ENCODING 7812
SWIDTH 833 0
DWIDTH 28 0
BBX 31 27 1 0
BITMAP
0038E000
0038E000
0038E000
00000000
FF0FE0FE
3C038038
1C038030
1C038060
1C038060
1C0380C0
1C0780C0
1C058180
1C0D8180
1C09C300
0E19C200
0E19C600
0E31C400
0E31CC00
0E61C800
0E41D800
0EC0F000
0780F000
0700E000
0700E000
0600C000
0600C000
04008000
ENDCHAR
STARTCHAR wdieresis
ENCODING 7813
SWIDTH 667 0
DWIDTH 22 0
BBX 21 19 0 0
BITMAP
038E00
038E00
038E00
000000
180C70
FC1C78
3C1C38
1C3C18
1C3C38
0C6C30
0CCC30
0CCC60
0D8CE0
0D0CC0
0F0D80
0E0F80
0C0F00
0C0E00
080C00
ENDCHAR
STARTCHAR uni1E86
ENCODING 7814
SWIDTH 833 0
DWIDTH 28 0
BBX 31 28 1 0
BITMAP
00030000
00078000
00078000
00030000
00000000
FF0FE0FE
3C038038
1C038030
1C038060
1C038060
1C0380C0
1C0780C0
1C058180
1C0D8180
1C09C300
0E19C200
0E19C600
0E31C400
0E31CC00
0E61C800
0E41D800
0EC0F000
0780F000
0700E000
0700E000
0600C000
0600C000
04008000
ENDCHAR
STARTCHAR uni1E87
ENCODING 7815
SWIDTH 667 0
DWIDTH 22 0
BBX 21 20 0 0
BITMAP
003000
007800
007800
003000
000000
180C70
FC1C78
3C1C38
1C3C18
1C3C38
0C6C30
0CCC30
0CCC60
0D8CE0
0D0CC0
0F0D80
0E0F80
0C0F00
0C0E00
080C00
ENDCHAR
STARTCHAR uni1E88
ENCODING 7816
SWIDTH 833 0
DWIDTH 28 0
BBX 31 28 1 -5
BITMAP
FF0FE0FE
3C038038
1C038030
1C038060
1C038060
1C0380C0
1C0780C0
1C058180
1C0D8180
1C09C300
0E19C200
0E19C600
0E31C400
0E31CC00
0E61C800
0E41D800
0EC0F000
0780F000
0700E000
0700E000
0600C000
0600C000
04008000
00000000
000C0000
001E0000
001E0000
000C0000
ENDCHAR
STARTCHAR uni1E89
ENCODING 7817
SWIDTH 667 0
DWIDTH 22 0
BBX 21 20 0 -5
BITMAP
180C70
FC1C78
3C1C38
1C3C18
1C3C38
0C6C30
0CCC30
0CCC60
0D8CE0
0D0CC0
0F0D80
0E0F80
0C0F00
0C0E00
080C00
000000
003000
007800
007800
003000
ENDCHAR
STARTCHAR uni1E8A
ENCODING 7818
SWIDTH 611 0
DWIDTH 20 0
BBX 23 28 -1 0
BITMAP
001800
003C00
003C00
001800
000000
1FF0FE
03E038
03C030
01C060
01E0C0
01E180
00E380
00F300
007600
007C00
007800
003800
003C00
007C00
00DE00
019E00
030E00
070F00
060700
0C0700
180780
3807C0
FE1FF0
ENDCHAR
STARTCHAR uni1E8B
ENCODING 7819
SWIDTH 444 0
DWIDTH 15 0
BBX 16 20 -1 0
BITMAP
00C0
01E0
01E0
00C0
0000
0607
3E0F
0F18
0730
0360
03E0
01C0
01C0
03C0
03E0
06E0
0CF2
1874
F07C
E038
ENDCHAR
STARTCHAR uni1E8C
ENCODING 7820
SWIDTH 611 0
DWIDTH 20 0
BBX 23 27 -1 0
BITMAP
01C700
01C700
01C700
000000
1FF0FE
03E038
03C030
01C060
01E0C0
01E180
00E380
00F300
007600
007C00
007800
003800
003C00
007C00
00DE00
019E00
030E00
070F00
060700
0C0700
180780
3807C0
FE1FF0
ENDCHAR
STARTCHAR uni1E8D
ENCODING 7821
SWIDTH 444 0
DWIDTH 15 0
BBX 16 19 -1 0
BITMAP
0E38
0E38
0E38
0000
0607
3E0F
0F18
0730
0360
03E0
01C0
01C0
03C0
03E0
06E0
0CF2
1874
F07C
E038
ENDCHAR
STARTCHAR uni1E8E
ENCODING 7822
SWIDTH 556 0
DWIDTH 19 0
BBX 20 28 1 0
BITMAP
006000
00F000
00F000
006000
000000
7F87F0
1E01C0
1E0300
1E0300
0E0600
0E0C00
0F1800
0F1800
073000
076000
07E000
03C000
03C000
038000
038000
078000
070000
070000
070000
0E0000
0E0000
1E0000
FFC000
ENDCHAR
STARTCHAR uni1E8F
ENCODING 7823
SWIDTH 444 0
DWIDTH 15 0
BBX 16 27 -1 -7
BITMAP
00C0
01E0
01E0
00C0
0000
0707
3F07
0F03
0303
0383
0386
0386
018C
019C
0198
01B8
01F0
01E0
01E0
01C0
0180
0180
0300
0600
6E00
FC00
7000
ENDCHAR
STARTCHAR uni1E90
ENCODING 7824
SWIDTH 556 0
DWIDTH 19 0
BBX 20 30 0 0
BITMAP
000E00
001E00
003700
006300
00C380
018180
000000
07FFF0
0FFFF0
0C01E0
0803C0
080780
000780
000F00
001E00
003C00
003C00
007800
00F000
01E000
01E000
03C000
078000
0F0000
0F0000
1E0040
3C0040
7800C0
FFFFC0
FFFF80
ENDCHAR
STARTCHAR uni1E91
ENCODING 7825
SWIDTH 389 0
DWIDTH 13 0
BBX 14 22 -1 0
BITMAP
00E0
01E0
0370
0630
0C38
1818
0000
0FFC
1FFC
1838
3070
00E0
00C0
0180
0300
0600
0E00
1C00
3830
7060
FFE0
FFC0
ENDCHAR
STARTCHAR uni1E92
ENCODING 7826
SWIDTH 556 0
DWIDTH 19 0
BBX 20 28 0 -5
BITMAP
07FFF0
0FFFF0
0C01E0
0803C0
080780
000780
000F00
001E00
003C00
003C00
007800
00F000
01E000
01E000
03C000
078000
0F0000
0F0000
1E0040
3C0040
7800C0
FFFFC0
FFFF80
000000
00C000
01E000
01E000
00C000
ENDCHAR
STARTCHAR uni1E93
ENCODING 7827
SWIDTH 389 0
DWIDTH 13 0
BBX 14 20 -1 -5
BITMAP
0FFC
1FFC
1838
3070
00E0
00C0
0180
0300
0600
0E00
1C00
3830
7060
FFE0
FFC0
0000
0600
0F00
0F00
0600
ENDCHAR
STARTCHAR uni1E94
ENCODING 7828
SWIDTH 556 0
DWIDTH 19 0
BBX 20 26 0 -3
BITMAP
07FFF0
0FFFF0
0C01E0
0803C0
080780
000780
000F00
001E00
003C00
003C00
007800
00F000
01E000
01E000
03C000
078000
0F0000
0F0000
1E0040
3C0040
7800C0
FFFFC0
FFFF80
000000
07F800
0FF000
ENDCHAR
STARTCHAR uni1E95
ENCODING 7829
SWIDTH 389 0
DWIDTH 13 0
BBX 14 18 -1 -3
BITMAP
0FFC
1FFC
1838
3070
00E0
00C0
0180
0300
0600
0E00
1C00
3830
7060
FFE0
FFC0
0000
3FC0
7F80
ENDCHAR
STARTCHAR uni1E96
ENCODING 7830
SWIDTH 500 0
DWIDTH 16 0
BBX 15 26 1 -3
BITMAP
0300
1F00
0700
0700
0700
0E00
0E00
0E00
0E78
1CFC
1D9C
1A1C
3C1C
381C
381C
3838
7038
7038
7038
7072
E074
E07C
E038
0000
1FE0
3FC0
ENDCHAR
STARTCHAR uni1E97
ENCODING 7831
SWIDTH 278 0
DWIDTH 9 0
BBX 9 23 2 0
BITMAP
E380
E380
E380
0000
0400
0400
0C00
1C00
7F00
1C00
1800
3800
3800
3800
3000
7000
7000
6000
6000
E400
E800
F800
7000
ENDCHAR
STARTCHAR uni1E98
ENCODING 7832
SWIDTH 667 0
DWIDTH 22 0
BBX 21 22 0 0
BITMAP
007800
00CC00
008400
008400
00CC00
007800
000000
180C70
FC1C78
3C1C38
1C3C18
1C3C38
0C6C30
0CCC30
0CCC60
0D8CE0
0D0CC0
0F0D80
0E0F80
0C0F00
0C0E00
080C00
ENDCHAR
STARTCHAR uni1E99
ENCODING 7833
SWIDTH 444 0
DWIDTH 15 0
BBX 16 29 -1 -7
BITMAP
01E0
0330
0210
0210
0330
01E0
0000
0707
3F07
0F03
0303
0383
0386
0386
018C
019C
0198
01B8
01F0
01E0
01E0
01C0
0180
0180
0300
0600
6E00
FC00
7000
ENDCHAR
STARTCHAR uni1EA0
ENCODING 7840
SWIDTH 611 0
DWIDTH 20 0
BBX 20 28 -2 -5
BITMAP
000200
000600
000600
000E00
001F00
001700
003700
002700
006700
004700
00C780
018380
010380
030380
03FF80
060380
0C03C0
0C03C0
1801C0
1801C0
3001C0
7003E0
FC0FF0
000000
003000
007800
007800
003000
ENDCHAR
STARTCHAR uni1EA1
ENCODING 7841
SWIDTH 500 0
DWIDTH 16 0
BBX 15 20 1 -5
BITMAP
01EC
03BC
0E1C
1C1C
181C
3818
7018
7038
E038
E030
E070
E0F2
61B4
733C
1E18
0000
0180
03C0
03C0
0180
ENDCHAR
STARTCHAR uni1EA4
ENCODING 7844
SWIDTH 611 0
DWIDTH 20 0
BBX 20 37 -2 0
BITMAP
0000C0
0001C0
000380
000700
000C00
000800
000000
000380
000780
000DC0
0018C0
0030E0
006060
000000
000200
000600
000600
000E00
001F00
001700
003700
002700
006700
004700
00C780
018380
010380
030380
03FF80
060380
0C03C0
0C03C0
1801C0
1801C0
3001C0
7003E0
FC0FF0
ENDCHAR
STARTCHAR uni1EA5
ENCODING 7845
SWIDTH 500 0
DWIDTH 16 0
BBX 15 30 0 0
BITMAP
0018
0038
0070
00E0
0180
0100
0000
0070
00F0
01B8
0318
061C
0C0C
0000
0000
01EC
03BC
0E1C
1C1C
181C
3818
7018
7038
E038
E030
E070
E0F2
61B4
733C
1E18
ENDCHAR
STARTCHAR uni1EA6
ENCODING 7846
SWIDTH 611 0
DWIDTH 20 0
BBX 20 37 -2 0
BITMAP
006000
007000
003800
001C00
000600
000200
000000
000380
000780
000DC0
0018C0
0030E0
006060
000000
000200
000600
000600
000E00
001F00
001700
003700
002700
006700
004700
00C780
018380
010380
030380
03FF80
060380
0C03C0
0C03C0
1801C0
1801C0
3001C0
7003E0
FC0FF0
ENDCHAR
STARTCHAR uni1EA7
ENCODING 7847
SWIDTH 500 0
DWIDTH 16 0
BBX 15 30 0 0
BITMAP
0600
0700
0380
01C0
0060
0020
0000
0070
00F0
01B8
0318
061C
0C0C
0000
0000
01EC
03BC
0E1C
1C1C
181C
3818
7018
7038
E038
E030
E070
E0F2
61B4
733C
1E18
ENDCHAR
STARTCHAR uni1EAA
ENCODING 7850
SWIDTH 611 0
DWIDTH 20 0
BBX 20 34 -2 0
BITMAP
000E60
003FC0
006700
000000
000380
000780
000DC0
0018C0
0030E0
006060
000000
000200
000600
000600
000E00
001F00
001700
003700
002700
006700
004700
00C780
018380
010380
030380
03FF80
060380
0C03C0
0C03C0
1801C0
1801C0
3001C0
7003E0
FC0FF0
ENDCHAR
STARTCHAR uni1EAB
ENCODING 7851
SWIDTH 500 0
DWIDTH 16 0
BBX 15 27 0 0
BITMAP
00E6
03FC
0670
0000
0070
00F0
01B8
0318
061C
0C0C
0000
0000
01EC
03BC
0E1C
1C1C
181C
3818
7018
7038
E038
E030
E070
E0F2
61B4
733C
1E18
ENDCHAR
STARTCHAR uni1EAC
ENCODING 7852
SWIDTH 611 0
DWIDTH 20 0
BBX 20 35 -2 -5
BITMAP
000E00
001E00
003700
006300
00C380
018180
000000
000200
000600
000600
000E00
001F00
001700
003700
002700
006700
004700
00C780
018380
010380
030380
03FF80
060380
0C03C0
0C03C0
1801C0
1801C0
3001C0
7003E0
FC0FF0
000000
003000
007800
007800
003000
ENDCHAR
STARTCHAR uni1EAD
ENCODING 7853
SWIDTH 500 0
DWIDTH 16 0
BBX 15 27 1 -5
BITMAP
00E0
01E0
0370
0630
0C38
1818
0000
01EC
03BC
0E1C
1C1C
181C
3818
7018
7038
E038
E030
E070
E0F2
61B4
733C
1E18
0000
0180
03C0
03C0
0180
ENDCHAR
STARTCHAR uni1EAE
ENCODING 7854
SWIDTH 611 0
DWIDTH 20 0
BBX 20 35 -2 0
BITMAP
000300
000700
000E00
001C00
003000
002000
000000
008100
00C300
007E00
003C00
000000
000200
000600
000600
000E00
001F00
001700
003700
002700
006700
004700
00C780
018380
010380
030380
03FF80
060380
0C03C0
0C03C0
1801C0
1801C0
3001C0
7003E0
FC0FF0
ENDCHAR
STARTCHAR uni1EAF
ENCODING 7855
SWIDTH 500 0
DWIDTH 16 0
BBX 15 27 1 0
BITMAP
0018
0038
0070
00E0
0180
0100
0000
0408
0618
03F0
01E0
0000
01EC
03BC
0E1C
1C1C
181C
3818
7018
7038
E038
E030
E070
E0F2
61B4
733C
1E18
ENDCHAR
STARTCHAR uni1EB0
ENCODING 7856
SWIDTH 611 0
DWIDTH 20 0
BBX 20 35 -2 0
BITMAP
018000
01C000
00E000
007000
001800
000800
000000
008100
00C300
007E00
003C00
000000
000200
000600
000600
000E00
001F00
001700
003700
002700
006700
004700
00C780
018380
010380
030380
03FF80
060380
0C03C0
0C03C0
1801C0
1801C0
3001C0
7003E0
FC0FF0
ENDCHAR
STARTCHAR uni1EB1
ENCODING 7857
SWIDTH 500 0
DWIDTH 16 0
BBX 15 27 1 0
BITMAP
0C00
0E00
0700
0380
00C0
0040
0000
0408
0618
03F0
01E0
0000
01EC
03BC
0E1C
1C1C
181C
3818
7018
7038
E038
E030
E070
E0F2
61B4
733C
1E18
ENDCHAR
STARTCHAR uni1EB4
ENCODING 7860
SWIDTH 611 0
DWIDTH 20 0
BBX 20 32 -2 0
BITMAP
001CC0
007F80
00CE00
000000
008100
00C300
007E00
003C00
000000
000200
000600
000600
000E00
001F00
001700
003700
002700
006700
004700
00C780
018380
010380
030380
03FF80
060380
0C03C0
0C03C0
1801C0
1801C0
3001C0
7003E0
FC0FF0
ENDCHAR
STARTCHAR uni1EB5
ENCODING 7861
SWIDTH 500 0
DWIDTH 16 0
BBX 15 24 1 0
BITMAP
00E6
03FC
0670
0000
0408
0618
03F0
01E0
0000
01EC
03BC
0E1C
1C1C
181C
3818
7018
7038
E038
E030
E070
E0F2
61B4
733C
1E18
ENDCHAR
STARTCHAR uni1EB6
ENCODING 7862
SWIDTH 611 0
DWIDTH 20 0
BBX 20 33 -2 -5
BITMAP
008100
00C300
007E00
003C00
000000
000200
000600
000600
000E00
001F00
001700
003700
002700
006700
004700
00C780
018380
010380
030380
03FF80
060380
0C03C0
0C03C0
1801C0
1801C0
3001C0
7003E0
FC0FF0
000000
003000
007800
007800
003000
ENDCHAR
STARTCHAR uni1EB7
ENCODING 7863
SWIDTH 500 0
DWIDTH 16 0
BBX 15 25 1 -5
BITMAP
0408
0618
03F0
01E0
0000
01EC
03BC
0E1C
1C1C
181C
3818
7018
7038
E038
E030
E070
E0F2
61B4
733C
1E18
0000
0180
03C0
03C0
0180
ENDCHAR
STARTCHAR uni1EB8
ENCODING 7864
SWIDTH 611 0
DWIDTH 20 0
BBX 22 28 -1 -5
BITMAP
03FFFC
00F01C
00E00C
00E008
01E008
01C000
01C000
03C040
03C0C0
038080
038180
07FF80
078380
070100
070100
0F0100
0E0000
0E0000
0E0020
1E0060
1E0060
3C01C0
FFFFC0
000000
006000
00F000
00F000
006000
ENDCHAR
STARTCHAR uni1EB9
ENCODING 7865
SWIDTH 444 0
DWIDTH 15 0
BBX 13 20 2 -5
BITMAP
01E0
0670
0C38
1838
3070
30E0
71C0
7700
FC00
E000
E000
E020
E0C0
7380
3E00
0000
0C00
1E00
1E00
0C00
ENDCHAR
STARTCHAR uni1EBC
ENCODING 7868
SWIDTH 611 0
DWIDTH 20 0
BBX 22 27 -1 0
BITMAP
001CC0
007F80
00CE00
000000
03FFFC
00F01C
00E00C
00E008
01E008
01C000
01C000
03C040
03C0C0
038080
038180
07FF80
078380
070100
070100
0F0100
0E0000
0E0000
0E0020
1E0060
1E0060
3C01C0
FFFFC0
ENDCHAR
STARTCHAR uni1EBD
ENCODING 7869
SWIDTH 444 0
DWIDTH 15 0
BBX 14 19 2 0
BITMAP
01CC
07F8
0CE0
0000
01E0
0670
0C38
1838
3070
30E0
71C0
7700
FC00
E000
E000
E020
E0C0
7380
3E00
ENDCHAR
STARTCHAR uni1EBE
ENCODING 7870
SWIDTH 611 0
DWIDTH 20 0
BBX 21 37 0 0
BITMAP
000180
000380
000700
000E00
001800
001000
000000
000380
000780
000DC0
0018C0
0030E0
006060
000000
07FFF8
01E038
01C018
01C010
03C010
038000
038000
078080
078180
070100
070300
0FFF00
0F0700
0E0200
0E0200
1E0200
1C0000
1C0000
1C0040
3C00C0
3C00C0
780380
FFFF80
ENDCHAR
STARTCHAR uni1EBF
ENCODING 7871
SWIDTH 444 0
DWIDTH 15 0
BBX 13 30 1 0
BITMAP
0030
0070
00E0
01C0
0300
0200
0000
00E0
01E0
0370
0630
0C38
1818
0000
0000
01E0
07F0
0E38
1C38
3870
30E0
71C0
7700
FC00
E000
E000
E020
E0C0
7380
3E00
ENDCHAR
STARTCHAR uni1EC0
ENCODING 7872
SWIDTH 611 0
DWIDTH 20 0
BBX 21 37 0 0
BITMAP
00C000
00E000
007000
003800
000C00
000400
000000
000380
000780
000DC0
0018C0
0030E0
006060
000000
07FFF8
01E038
01C018
01C010
03C010
038000
038000
078080
078180
070100
070300
0FFF00
0F0700
0E0200
0E0200
1E0200
1C0000
1C0000
1C0040
3C00C0
3C00C0
780380
FFFF80
ENDCHAR
STARTCHAR uni1EC1
ENCODING 7873
SWIDTH 444 0
DWIDTH 15 0
BBX 13 30 1 0
BITMAP
0C00
0E00
0700
0380
00C0
0040
0000
00E0
01E0
0370
0630
0C38
1818
0000
0000
01E0
07F0
0E38
1C38
3870
30E0
71C0
7700
FC00
E000
E000
E020
E0C0
7380
3E00
ENDCHAR
STARTCHAR uni1EC4
ENCODING 7876
SWIDTH 611 0
DWIDTH 20 0
BBX 21 34 0 0
BITMAP
000E60
003FC0
006700
000000
000380
000780
000DC0
0018C0
0030E0
006060
000000
07FFF8
01E038
01C018
01C010
03C010
038000
038000
078080
078180
070100
070300
0FFF00
0F0700
0E0200
0E0200
1E0200
1C0000
1C0000
1C0040
3C00C0
3C00C0
780380
FFFF80
ENDCHAR
STARTCHAR uni1EC5
ENCODING 7877
SWIDTH 444 0
DWIDTH 15 0
BBX 14 27 1 0
BITMAP
01CC
07F8
0CE0
0000
00E0
01E0
0370
0630
0C38
1818
0000
0000
01E0
07F0
0E38
1C38
3870
30E0
71C0
7700
FC00
E000
E000
E020
E0C0
7380
3E00
ENDCHAR
STARTCHAR uni1EC6
ENCODING 7878
SWIDTH 611 0
DWIDTH 20 0
BBX 22 35 -1 -5
BITMAP
000E00
001E00
003700
006300
00C380
018180
000000
03FFFC
00F01C
00E00C
00E008
01E008
01C000
01C000
03C040
03C0C0
038080
038180
07FF80
078380
070100
070100
0F0100
0E0000
0E0000
0E0020
1E0060
1E0060
3C01C0
FFFFC0
000000
006000
00F000
00F000
006000
ENDCHAR
STARTCHAR uni1EC7
ENCODING 7879
SWIDTH 444 0
DWIDTH 15 0
BBX 13 27 2 -5
BITMAP
01C0
03C0
06E0
0C60
1870
3030
0000
01E0
0670
0C38
1838
3070
30E0
71C0
7700
FC00
E000
E000
E020
E0C0
7380
3E00
0000
0C00
1E00
1E00
0C00
ENDCHAR
STARTCHAR uni1ECA
ENCODING 7882
SWIDTH 333 0
DWIDTH 11 0
BBX 13 28 -1 -5
BITMAP
07F8
01E0
01C0
01C0
03C0
0380
0380
0780
0780
0700
0700
0F00
0F00
0E00
0E00
1E00
1C00
1C00
1C00
3C00
3800
7800
FE00
0000
0C00
1E00
1E00
0C00
ENDCHAR
STARTCHAR uni1ECB
ENCODING 7883
SWIDTH 278 0
DWIDTH 9 0
BBX 7 28 2 -5
BITMAP
0E
0E
0E
00
00
00
00
00
0C
7C
1C
18
38
38
30
70
70
70
60
E4
E8
F8
70
00
30
78
78
30
ENDCHAR
STARTCHAR uni1ECC
ENCODING 7884
SWIDTH 722 0
DWIDTH 24 0
BBX 19 28 3 -5
BITMAP
007E00
01C780
0301C0
0701C0
0E00E0
1E00E0
1C00E0
3800E0
7800E0
7801E0
7001E0
F001E0
F001C0
F003C0
E003C0
E00380
E00700
E00F00
E00E00
701C00
703800
3CE000
0F8000
000000
018000
03C000
03C000
018000
ENDCHAR
STARTCHAR uni1ECD
ENCODING 7885
SWIDTH 500 0
DWIDTH 17 0
BBX 15 20 1 -5
BITMAP
01F0
039C
0E0C
1C0E
180E
380E
700E
701C
E01C
E038
E030
E070
60E0
7380
1F00
0000
0600
0F00
0F00
0600
ENDCHAR
STARTCHAR uni1ED0
ENCODING 7888
SWIDTH 722 0
DWIDTH 24 0
BBX 19 37 3 0
BITMAP
000300
000700
000E00
001C00
003000
002000
000000
000E00
001E00
003700
006300
00C380
018180
000000
007E00
01C780
0301C0
0701C0
0E00E0
1E00E0
1C00E0
3800E0
7800E0
7801E0
7001E0
F001E0
F001C0
F003C0
E003C0
E00380
E00700
E00F00
E00E00
701C00
703800
3CE000
0F8000
ENDCHAR
STARTCHAR uni1ED1
ENCODING 7889
SWIDTH 500 0
DWIDTH 17 0
BBX 15 30 1 0
BITMAP
000C
001C
0038
0070
00C0
0080
0000
0038
0078
00DC
018C
030E
0606
0000
0000
01F0
039C
0E0C
1C0E
180E
380E
700E
701C
E01C
E038
E030
E070
60E0
7380
1F00
ENDCHAR
STARTCHAR uni1ED2
ENCODING 7890
SWIDTH 722 0
DWIDTH 24 0
BBX 19 37 3 0
BITMAP
018000
01C000
00E000
007000
001800
000800
000000
000E00
001E00
003700
006300
00C380
018180
000000
007E00
01C780
0301C0
0701C0
0E00E0
1E00E0
1C00E0
3800E0
7800E0
7801E0
7001E0
F001E0
F001C0
F003C0
E003C0
E00380
E00700
E00F00
E00E00
701C00
703800
3CE000
0F8000
ENDCHAR
STARTCHAR uni1ED3
ENCODING 7891
SWIDTH 500 0
DWIDTH 17 0
BBX 15 30 1 0
BITMAP
0600
0700
0380
01C0
0060
0020
0000
0038
0078
00DC
018C
030E
0606
0000
0000
01F0
039C
0E0C
1C0E
180E
380E
700E
701C
E01C
E038
E030
E070
60E0
7380
1F00
ENDCHAR
STARTCHAR uni1ED6
ENCODING 7894
SWIDTH 722 0
DWIDTH 24 0
BBX 19 34 3 0
BITMAP
003980
00FF00
019C00
000000
000E00
001E00
003700
006300
00C380
018180
000000
007E00
01C780
0301C0
0701C0
0E00E0
1E00E0
1C00E0
3800E0
7800E0
7801E0
7001E0
F001E0
F001C0
F003C0
E003C0
E00380
E00700
E00F00
E00E00
701C00
703800
3CE000
0F8000
ENDCHAR
STARTCHAR uni1ED7
ENCODING 7895
SWIDTH 500 0
DWIDTH 17 0
BBX 16 27 1 0
BITMAP
0073
01FE
0338
0000
0038
0078
00DC
018C
030E
0606
0000
0000
01F0
039C
0E0C
1C0E
180E
380E
700E
701C
E01C
E038
E030
E070
60E0
7380
1F00
ENDCHAR
STARTCHAR uni1ED8
ENCODING 7896
SWIDTH 722 0
DWIDTH 24 0
BBX 19 35 3 -5
BITMAP
003800
007800
00DC00
018C00
030E00
060600
000000
007E00
01C780
0301C0
0701C0
0E00E0
1E00E0
1C00E0
3800E0
7800E0
7801E0
7001E0
F001E0
F001C0
F003C0
E003C0
E00380
E00700
E00F00
E00E00
701C00
703800
3CE000
0F8000
000000
018000
03C000
03C000
018000
ENDCHAR
STARTCHAR uni1ED9
ENCODING 7897
SWIDTH 500 0
DWIDTH 17 0
BBX 15 27 1 -5
BITMAP
00E0
01E0
0370
0630
0C38
1818
0000
01F0
039C
0E0C
1C0E
180E
380E
700E
701C
E01C
E038
E030
E070
60E0
7380
1F00
0000
0600
0F00
0F00
0600
ENDCHAR
STARTCHAR uni1EDA
ENCODING 7898
SWIDTH 722 0
DWIDTH 24 0
BBX 22 30 3 0
BITMAP
0000C0
0001C0
000380
000700
000C00
000800
000000
007E1C
01C79C
0301DC
0701CC
0E00E8
1E00F8
1C00F0
3800E0
7800E0
7801E0
7001E0
F001E0
F001C0
F003C0
E003C0
E00380
E00700
E00F00
E00E00
701C00
703800
3CE000
0F8000
ENDCHAR
STARTCHAR uni1EDB
ENCODING 7899
SWIDTH 500 0
DWIDTH 17 0
BBX 19 22 1 0
BITMAP
000300
000700
000E00
001C00
003000
002000
000000
01F0E0
039CE0
0E0CE0
1C0E60
180E40
380EC0
700F80
701F00
E01C00
E03800
E03000
E07000
60E000
738000
1F0000
ENDCHAR
STARTCHAR uni1EDC
ENCODING 7900
SWIDTH 722 0
DWIDTH 24 0
BBX 22 30 3 0
BITMAP
006000
007000
003800
001C00
000600
000200
000000
007E1C
01C79C
0301DC
0701CC
0E00E8
1E00F8
1C00F0
3800E0
7800E0
7801E0
7001E0
F001E0
F001C0
F003C0
E003C0
E00380
E00700
E00F00
E00E00
701C00
703800
3CE000
0F8000
ENDCHAR
STARTCHAR uni1EDD
ENCODING 7901
SWIDTH 500 0
DWIDTH 17 0
BBX 19 22 1 0
BITMAP
018000
01C000
00E000
007000
001800
000800
000000
01F0E0
039CE0
0E0CE0
1C0E60
180E40
380EC0
700F80
701F00
E01C00
E03800
E03000
E07000
60E000
738000
1F0000
ENDCHAR
STARTCHAR uni1EE0
ENCODING 7904
SWIDTH 722 0
DWIDTH 24 0
BBX 22 27 3 0
BITMAP
000E60
003FC0
006700
000000
007E1C
01C79C
0301DC
0701CC
0E00E8
1E00F8
1C00F0
3800E0
7800E0
7801E0
7001E0
F001E0
F001C0
F003C0
E003C0
E00380
E00700
E00F00
E00E00
701C00
703800
3CE000
0F8000
ENDCHAR
STARTCHAR uni1EE1
ENCODING 7905
SWIDTH 500 0
DWIDTH 17 0
BBX 19 19 1 0
BITMAP
003980
00FF00
019C00
000000
01F0E0
039CE0
0E0CE0
1C0E60
180E40
380EC0
700F80
701F00
E01C00
E03800
E03000
E07000
60E000
738000
1F0000
ENDCHAR
STARTCHAR uni1EE2
ENCODING 7906
SWIDTH 722 0
DWIDTH 24 0
BBX 22 28 3 -5
BITMAP
007E1C
01C79C
0301DC
0701CC
0E00E8
1E00F8
1C00F0
3800E0
7800E0
7801E0
7001E0
F001E0
F001C0
F003C0
E003C0
E00380
E00700
E00F00
E00E00
701C00
703800
3CE000
0F8000
000000
00C000
01E000
01E000
00C000
ENDCHAR
STARTCHAR uni1EE3
ENCODING 7907
SWIDTH 500 0
DWIDTH 17 0
BBX 19 20 1 -5
BITMAP
01F0E0
039CE0
0E0CE0
1C0E60
180E40
380EC0
700F80
701F00
E01C00
E03800
E03000
E07000
60E000
738000
1F0000
000000
030000
078000
078000
030000
ENDCHAR
STARTCHAR uni1EE4
ENCODING 7908
SWIDTH 722 0
DWIDTH 24 0
BBX 23 28 3 -5
BITMAP
7FC0FE
1F0038
0E0018
0E0010
1E0030
1C0030
1C0020
3C0020
380060
380040
380040
7800C0
7000C0
700080
F00180
F00180
E00100
E00300
E00300
700600
781C00
3FF800
0FE000
000000
00C000
01E000
01E000
00C000
ENDCHAR
STARTCHAR uni1EE5
ENCODING 7909
SWIDTH 500 0
DWIDTH 17 0
BBX 15 20 1 -5
BITMAP
1C1C
FC1C
1C1C
381C
3838
3838
3838
3838
7038
7070
7070
70F0
71B2
7F3C
3C18
0000
0300
0780
0780
0300
ENDCHAR
STARTCHAR uni1EE8
ENCODING 7912
SWIDTH 722 0
DWIDTH 24 0
BBX 26 30 3 0
BITMAP
0000C000
0001C000
00038000
00070000
000C0000
00080000
00000000
7FC0FFC0
1F0039C0
0E0019C0
0E0010C0
1E003080
1C003180
1C002300
3C002600
38006000
38004000
38004000
7800C000
7000C000
70008000
F0018000
F0018000
E0010000
E0030000
E0030000
70060000
781C0000
3FF80000
0FE00000
ENDCHAR
STARTCHAR uni1EE9
ENCODING 7913
SWIDTH 500 0
DWIDTH 17 0
BBX 19 22 1 0
BITMAP
000600
000E00
001C00
003800
006000
004000
000000
1C1CE0
FC1CE0
1C1CE0
381C60
383840
3838C0
383980
383B00
703800
707000
707000
70F000
71B200
7F3C00
3C1800
ENDCHAR
STARTCHAR uni1EEA
ENCODING 7914
SWIDTH 722 0
DWIDTH 24 0
BBX 26 30 3 0
BITMAP
00600000
00700000
00380000
001C0000
00060000
00020000
00000000
7FC0FFC0
1F0039C0
0E0019C0
0E0010C0
1E003080
1C003180
1C002300
3C002600
38006000
38004000
38004000
7800C000
7000C000
70008000
F0018000
F0018000
E0010000
E0030000
E0030000
70060000
781C0000
3FF80000
0FE00000
ENDCHAR
STARTCHAR uni1EEB
ENCODING 7915
SWIDTH 500 0
DWIDTH 17 0
BBX 19 22 1 0
BITMAP
030000
038000
01C000
00E000
003000
001000
000000
1C1CE0
FC1CE0
1C1CE0
381C60
383840
3838C0
383980
383B00
703800
707000
707000
70F000
71B200
7F3C00
3C1800
ENDCHAR
STARTCHAR uni1EEE
ENCODING 7918
SWIDTH 722 0
DWIDTH 24 0
BBX 26 27 3 0
BITMAP
00073000
001FE000
00338000
00000000
7FC0FFC0
1F0039C0
0E0019C0
0E0010C0
1E003080
1C003180
1C002300
3C002600
38006000
38004000
38004000
7800C000
7000C000
70008000
F0018000
F0018000
E0010000
E0030000
E0030000
70060000
781C0000
3FF80000
0FE00000
ENDCHAR
STARTCHAR uni1EEF
ENCODING 7919
SWIDTH 500 0
DWIDTH 17 0
BBX 19 19 1 0
BITMAP
007300
01FE00
033800
000000
1C1CE0
FC1CE0
1C1CE0
381C60
383840
3838C0
383980
383B00
703800
707000
707000
70F000
71B200
7F3C00
3C1800
ENDCHAR
STARTCHAR uni1EF0
ENCODING 7920
SWIDTH 722 0
DWIDTH 24 0
BBX 26 28 3 -5
BITMAP
7FC0FFC0
1F0039C0
0E0019C0
0E0010C0
1E003080
1C003180
1C002300
3C002600
38006000
38004000
38004000
7800C000
7000C000
70008000
F0018000
F0018000
E0010000
E0030000
E0030000
70060000
781C0000
3FF80000
0FE00000
00000000
00C00000
01E00000
01E00000
00C00000
ENDCHAR
STARTCHAR uni1EF1
ENCODING 7921
SWIDTH 500 0
DWIDTH 17 0
BBX 19 20 1 -5
BITMAP
1C1CE0
FC1CE0
1C1CE0
381C60
383840
3838C0
383980
383B00
703800
707000
707000
70F000
71B200
7F3C00
3C1800
000000
018000
03C000
03C000
018000
ENDCHAR
STARTCHAR Ygrave
ENCODING 7922
SWIDTH 556 0
DWIDTH 19 0
BBX 20 30 1 0
BITMAP
060000
070000
038000
01C000
006000
002000
000000
7F87F0
1E01C0
1E0300
1E0300
0E0600
0E0C00
0F1800
0F1800
073000
076000
07E000
03C000
03C000
038000
038000
078000
070000
070000
070000
0E0000
0E0000
1E0000
FFC000
ENDCHAR
STARTCHAR ygrave
ENCODING 7923
SWIDTH 444 0
DWIDTH 15 0
BBX 16 29 -1 -7
BITMAP
0600
0700
0380
01C0
0060
0020
0000
0707
3F07
0F03
0303
0383
0386
0386
018C
019C
0198
01B8
01F0
01E0
01E0
01C0
0180
0180
0300
0600
6E00
FC00
7000
ENDCHAR
STARTCHAR uni1EF4
ENCODING 7924
SWIDTH 556 0
DWIDTH 19 0
BBX 20 28 1 -5
BITMAP
7F87F0
1E01C0
1E0300
1E0300
0E0600
0E0C00
0F1800
0F1800
073000
076000
07E000
03C000
03C000
038000
038000
078000
070000
070000
070000
0E0000
0E0000
1E0000
FFC000
000000
030000
078000
078000
030000
ENDCHAR
STARTCHAR uni1EF5
ENCODING 7925
SWIDTH 444 0
DWIDTH 15 0
BBX 16 27 -1 -12
BITMAP
0707
3F07
0F03
0303
0383
0386
0386
018C
019C
0198
01B8
01F0
01E0
01E0
01C0
0180
0180
0300
0600
6E00
FC00
7000
0000
0600
0F00
0F00
0600
ENDCHAR
STARTCHAR uni1EF8
ENCODING 7928
SWIDTH 556 0
DWIDTH 19 0
BBX 20 27 1 0
BITMAP
00E600
03FC00
067000
000000
7F87F0
1E01C0
1E0300
1E0300
0E0600
0E0C00
0F1800
0F1800
073000
076000
07E000
03C000
03C000
038000
038000
078000
070000
070000
070000
0E0000
0E0000
1E0000
FFC000
ENDCHAR
STARTCHAR uni1EF9
ENCODING 7929
SWIDTH 444 0
DWIDTH 15 0
BBX 16 26 -1 -7
BITMAP
00E6
03FC
0670
0000
0707
3F07
0F03
0303
0383
0386
0386
018C
019C
0198
01B8
01F0
01E0
01E0
01C0
0180
0180
0300
0600
6E00
FC00
7000
ENDCHAR
STARTCHAR uni2000
ENCODING 8192
SWIDTH 500 0
DWIDTH 17 0
BBX 1 1 0 0
BITMAP
00
ENDCHAR
STARTCHAR uni2001
ENCODING 8193
SWIDTH 1000 0
DWIDTH 33 0
BBX 1 1 0 0
BITMAP
00
ENDCHAR
STARTCHAR uni2002
ENCODING 8194
SWIDTH 500 0
DWIDTH 17 0
BBX 1 1 0 0
BITMAP
00
ENDCHAR
STARTCHAR uni2003
ENCODING 8195
SWIDTH 1000 0
DWIDTH 33 0
BBX 1 1 0 0
BITMAP
00
ENDCHAR
STARTCHAR uni2004
ENCODING 8196
SWIDTH 333 0
DWIDTH 11 0
BBX 1 1 0 0
BITMAP
00
ENDCHAR
STARTCHAR uni2005
ENCODING 8197
SWIDTH 250 0
DWIDTH 8 0
BBX 1 1 0 0
BITMAP
00
ENDCHAR
STARTCHAR uni2006
ENCODING 8198
SWIDTH 167 0
DWIDTH 6 0
BBX 1 1 0 0
BITMAP
00
ENDCHAR
STARTCHAR uni2007
ENCODING 8199
SWIDTH 500 0
DWIDTH 16 0
BBX 1 1 0 0
BITMAP
00
ENDCHAR
STARTCHAR uni2008
ENCODING 8200
SWIDTH 250 0
DWIDTH 8 0
BBX 1 1 0 0
BITMAP
00
ENDCHAR
STARTCHAR uni2009
ENCODING 8201
SWIDTH 200 0
DWIDTH 7 0
BBX 1 1 0 0
BITMAP
00
ENDCHAR
STARTCHAR uni200A
ENCODING 8202
SWIDTH 100 0
DWIDTH 3 0
BBX 1 1 0 0
BITMAP
00
ENDCHAR
STARTCHAR uni200B
ENCODING 8203
SWIDTH 0 0
DWIDTH 0 0
BBX 1 1 0 0
BITMAP
00
ENDCHAR
STARTCHAR uni2010
ENCODING 8208
SWIDTH 333 0
DWIDTH 11 0
BBX 7 2 2 6
BITMAP
FE
FE
ENDCHAR
STARTCHAR uni2011
ENCODING 8209
SWIDTH 333 0
DWIDTH 11 0
BBX 7 2 2 6
BITMAP
FE
FE
ENDCHAR
STARTCHAR figuredash
ENCODING 8210
SWIDTH 500 0
DWIDTH 16 0
BBX 16 2 0 6
BITMAP
FFFF
FFFF
ENDCHAR
STARTCHAR endash
ENCODING 8211
SWIDTH 500 0
DWIDTH 16 0
BBX 16 2 0 6
BITMAP
FFFF
FFFF
ENDCHAR
STARTCHAR emdash
ENCODING 8212
SWIDTH 889 0
DWIDTH 28 0
BBX 28 2 0 6
BITMAP
FFFFFFF0
FFFFFFF0
ENDCHAR
STARTCHAR afii00208
ENCODING 8213
SWIDTH 889 0
DWIDTH 28 0
BBX 28 2 0 6
BITMAP
FFFFFFF0
FFFFFFF0
ENDCHAR
STARTCHAR quoteleft
ENCODING 8216
SWIDTH 333 0
DWIDTH 11 0
BBX 5 8 5 15
BITMAP
18
30
60
40
C0
E0
E0
E0
ENDCHAR
STARTCHAR quoteright
ENCODING 8217
SWIDTH 333 0
DWIDTH 11 0
BBX 5 8 1 15
BITMAP
38
38
38
18
10
30
60
C0
ENDCHAR
STARTCHAR quotesinglbase
ENCODING 8218
SWIDTH 333 0
DWIDTH 11 0
BBX 5 8 2 -5
BITMAP
38
38
38
18
10
30
60
C0
ENDCHAR
STARTCHAR quotereversed
ENCODING 8219
SWIDTH 333 0
DWIDTH 11 0
BBX 5 8 1 15
BITMAP
E0
E0
E0
C0
40
60
30
18
ENDCHAR
STARTCHAR quotedblleft
ENCODING 8220
SWIDTH 556 0
DWIDTH 19 0
BBX 12 8 5 15
BITMAP
1830
3060
60C0
4080
C180
E1C0
E1C0
E1C0
ENDCHAR
STARTCHAR quotedblright
ENCODING 8221
SWIDTH 556 0
DWIDTH 19 0
BBX 12 8 1 15
BITMAP
3870
3870
3870
1830
1020
3060
60C0
C180
ENDCHAR
STARTCHAR quotedblbase
ENCODING 8222
SWIDTH 556 0
DWIDTH 19 0
BBX 12 8 1 -5
BITMAP
3870
3870
3870
1830
1020
3060
60C0
C180
ENDCHAR
STARTCHAR uni201F
ENCODING 8223
SWIDTH 556 0
DWIDTH 19 0
BBX 12 8 1 15
BITMAP
E1C0
E1C0
E1C0
C180
4080
60C0
3060
1830
ENDCHAR
STARTCHAR dagger
ENCODING 8224
SWIDTH 500 0
DWIDTH 16 0
BBX 13 26 3 -2
BITMAP
0300
0700
0700
0700
0300
0200
E238
FFF8
E638
0600
0600
0600
0600
0600
0600
0600
0C00
0C00
0C00
0C00
0C00
1800
1800
1800
1000
1000
ENDCHAR
STARTCHAR daggerdbl
ENCODING 8225
SWIDTH 500 0
DWIDTH 16 0
BBX 16 27 0 -3
BITMAP
00E0
00E0
00E0
00E0
0060
0040
1C47
1FFF
1C87
0080
0180
0180
0380
0380
0380
0300
0300
0200
E238
FFF8
E238
0200
0600
0700
0700
0700
0700
ENDCHAR
STARTCHAR bullet
ENCODING 8226
SWIDTH 350 0
DWIDTH 12 0
BBX 8 8 2 6
BITMAP
3C
7E
FF
FF
FF
FF
7E
3C
ENDCHAR
STARTCHAR ellipsis
ENCODING 8230
SWIDTH 889 0
DWIDTH 27 0
BBX 21 3 4 0
BITMAP
E07038
E07038
E07038
ENDCHAR
STARTCHAR perthousand
ENCODING 8240
SWIDTH 1000 0
DWIDTH 33 0
BBX 32 24 0 -1
BITMAP
0F01C000
39C78000
71FF0000
60BB0000
E0820000
E0860000
C18C0000
C1080000
C3180000
6E300000
3C200000
00600000
0041E01E
00C73073
018E30E3
010C10C1
031C11C1
021C11C1
06183183
0C182182
08186186
180DC0DC
30078078
30000000
ENDCHAR
STARTCHAR guilsinglleft
ENCODING 8249
SWIDTH 333 0
DWIDTH 11 0
BBX 7 12 2 2
BITMAP
02
06
0C
18
38
70
E0
E0
70
30
18
08
ENDCHAR
STARTCHAR guilsinglright
ENCODING 8250
SWIDTH 333 0
DWIDTH 11 0
BBX 7 12 2 2
BITMAP
20
30
18
1C
0E
0E
1C
38
30
60
C0
80
ENDCHAR
STARTCHAR fraction
ENCODING 8260
SWIDTH 167 0
DWIDTH 6 0
BBX 16 23 -6 0
BITMAP
0001
0003
0006
0006
000C
0018
0018
0030
0060
0060
00C0
0180
0180
0300
0600
0E00
0C00
1800
3000
3000
6000
C000
C000
ENDCHAR
STARTCHAR oneinferior
ENCODING 8321
SWIDTH 300 0
DWIDTH 10 0
BBX 8 15 1 -7
BITMAP
01
0F
06
06
06
06
0C
0C
0C
18
18
18
30
30
FC
ENDCHAR
STARTCHAR twoinferior
ENCODING 8322
SWIDTH 300 0
DWIDTH 10 0
BBX 9 14 1 -7
BITMAP
1E00
3F00
6380
4180
0180
0180
0300
0300
0600
0C00
1800
3080
7F80
FF00
ENDCHAR
STARTCHAR threeinferior
ENCODING 8323
SWIDTH 300 0
DWIDTH 10 0
BBX 10 14 0 -7
BITMAP
0F80
18C0
10C0
00C0
0180
0700
1E00
0300
0180
0180
0180
C300
E700
7E00
ENDCHAR
STARTCHAR uni20A5
ENCODING 8357
SWIDTH 722 0
DWIDTH 24 0
BBX 23 24 1 -4
BITMAP
000180
000300
000300
000300
000600
0C7E38
7CFEFC
1D9D9C
1A1E1C
3C1C1C
381838
383838
383838
703838
703038
707070
707072
E07074
E0E07C
E0E038
00C000
00C000
00C000
018000
ENDCHAR
STARTCHAR uni20A6
ENCODING 8358
SWIDTH 667 0
DWIDTH 22 0
BBX 25 23 -1 0
BITMAP
07C03F80
01E00E00
01E00C00
01E00C00
01700C00
01700800
03780800
0FFFF800
0FFFF800
021C1000
061C1000
061E3000
040E3000
040E2000
0FFFF800
0FFFF800
08076000
0803E000
1803C000
1801C000
1801C000
3801C000
FE00C000
ENDCHAR
STARTCHAR uni20A9
ENCODING 8361
SWIDTH 833 0
DWIDTH 28 0
BBX 31 23 1 0
BITMAP
FF0FE0FE
3C038038
1C038030
1C038060
1C038060
1C0380C0
1C0780C0
1DFFFF80
1DFFFF80
1C09C300
0E19C200
0E19C600
0E31C400
0E31CC00
0FFFFF00
0FFFFF00
0EC0F000
0780F000
0700E000
0700E000
0600C000
0600C000
04008000
ENDCHAR
STARTCHAR Euro
ENCODING 8364
SWIDTH 667 0
DWIDTH 22 0
BBX 25 23 -2 0
BITMAP
0003F880
000FFF80
003C0700
00700300
00E00300
01C00200
03C00200
FFFF8000
FFFF8000
07000000
0F000000
0E000000
0E000000
0E000000
FFFF8000
FFFF8000
0E000000
0F000400
07001800
07803000
03C0E000
01FFC000
007F0000
ENDCHAR
STARTCHAR uni20AD
ENCODING 8365
SWIDTH 667 0
DWIDTH 22 0
BBX 23 23 0 0
BITMAP
07F9FE
01E078
01C060
01C0C0
03C180
038300
038600
078C00
079800
077000
FFFFFE
FFFFFE
0F7800
0E3800
0E3C00
1E1C00
1C1E00
1C0F00
1C0780
3C0780
3C03C0
3803E0
FF07F8
ENDCHAR
STARTCHAR uni2103
ENCODING 8451
SWIDTH 1047 0
DWIDTH 34 0
BBX 33 23 2 0
BITMAP
3E0003F880
63000FFF80
C1803C0700
C180700300
C180E00300
C181C00200
6303C00200
3E03800000
0007000000
0007000000
000F000000
000E000000
000E000000
000E000000
000E000000
000E000000
000E000000
000F000400
0007001800
0007803000
0003C0E000
0001FFC000
00007F0000
ENDCHAR
STARTCHAR uni2109
ENCODING 8457
SWIDTH 991 0
DWIDTH 32 0
BBX 32 23 2 0
BITMAP
3E00FFFF
63003C07
C1803803
C1803802
C1807802
C1807000
63007000
3E00F010
0000F030
0000E020
0000E060
0001FFE0
0001E0E0
0001C040
0001C040
0003C040
00038000
00038000
00038000
00078000
00070000
000F8000
003FE000
ENDCHAR
STARTCHAR trademark
ENCODING 8482
SWIDTH 980 0
DWIDTH 33 0
BBX 31 14 1 9
BITMAP
FFF3803E
C631C038
8611E078
06016058
060130D8
06013098
06013998
06011998
06011D18
06010F18
06010F18
06010618
06010618
1F83C67E
ENDCHAR
STARTCHAR uni212A
ENCODING 8490
SWIDTH 667 0
DWIDTH 22 0
BBX 23 23 0 0
BITMAP
07F9FE
01E078
01C060
01C0C0
03C180
038300
038600
078C00
079800
077000
07E000
0FF000
0F7800
0E3800
0E3C00
1E1C00
1C1E00
1C0F00
1C0780
3C0780
3C03C0
3803E0
FF07F8
ENDCHAR
STARTCHAR uni212B
ENCODING 8491
SWIDTH 611 0
DWIDTH 20 0
BBX 20 30 -2 0
BITMAP
000F00
001980
001080
001080
001980
000F00
000000
000200
000600
000600
000E00
001F00
001700
003700
002700
006700
004700
00C780
018380
010380
030380
03FF80
060380
0C03C0
0C03C0
1801C0
1801C0
3001C0
7003E0
FC0FF0
ENDCHAR
STARTCHAR uni2132
ENCODING 8498
SWIDTH 611 0
DWIDTH 20 0
BBX 22 23 0 0
BITMAP
0007FC
0001F0
0000E0
0001E0
0001C0
0001C0
0001C0
0203C0
020380
020380
070780
07FF80
060700
040700
0C0F00
080F00
000E00
000E00
401E00
401C00
C01C00
E03C00
FFFF00
ENDCHAR
STARTCHAR minus
ENCODING 8722
SWIDTH 675 0
DWIDTH 22 0
BBX 16 2 2 7
BITMAP
FFFF
FFFF
ENDCHAR
STARTCHAR fraction
ENCODING 8725
SWIDTH 167 0
DWIDTH 6 0
BBX 16 23 -6 0
BITMAP
0001
0003
0006
0006
000C
0018
0018
0030
0060
0060
00C0
0180
0180
0300
0600
0E00
0C00
1800
3000
3000
6000
C000
C000
ENDCHAR
STARTCHAR periodcentered
ENCODING 8729
SWIDTH 250 0
DWIDTH 8 0
BBX 4 4 2 6
BITMAP
F0
F0
F0
F0
ENDCHAR
STARTCHAR uni2236
ENCODING 8758
SWIDTH 333 0
DWIDTH 11 0
BBX 6 15 3 0
BITMAP
1C
1C
1C
00
00
00
00
00
00
00
00
00
E0
E0
E0
ENDCHAR
STARTCHAR uni2259
ENCODING 8793
SWIDTH 675 0
DWIDTH 23 0
BBX 17 16 3 4
BITMAP
007000
00F000
01B800
031800
061C00
0C0C00
000000
FFFF80
FFFF80
000000
000000
000000
000000
000000
FFFF80
FFFF80
ENDCHAR
STARTCHAR uni225A
ENCODING 8794
SWIDTH 675 0
DWIDTH 23 0
BBX 17 16 3 4
BITMAP
0C0C00
0E1800
063000
076000
03C000
038000
000000
FFFF80
FFFF80
000000
000000
000000
000000
000000
FFFF80
FFFF80
ENDCHAR
STARTCHAR notequal
ENCODING 8800
SWIDTH 675 0
DWIDTH 23 0
BBX 17 24 3 -3
BITMAP
000C00
001800
001800
001800
003000
003000
003000
006000
FFFF80
FFFF80
00C000
00C000
00C000
018000
018000
FFFF80
FFFF80
030000
030000
030000
060000
060000
060000
0C0000
ENDCHAR
STARTCHAR equivalence
ENCODING 8801
SWIDTH 675 0
DWIDTH 23 0
BBX 17 8 0 4
BITMAP
FFFF80
FFFF80
000000
FFFF80
FFFF80
000000
FFFF80
FFFF80
ENDCHAR
STARTCHAR uni2262
ENCODING 8802
SWIDTH 675 0
DWIDTH 23 0
BBX 17 24 0 -4
BITMAP
000C00
001800
001800
001800
003000
003000
003000
006000
FFFF80
FFFF80
00C000
FFFF80
FFFF80
018000
FFFF80
FFFF80
018000
030000
030000
030000
060000
060000
060000
0C0000
ENDCHAR
STARTCHAR lessequal
ENCODING 8804
SWIDTH 675 0
DWIDTH 23 0
BBX 17 20 3 -3
BITMAP
000180
000780
001E00
007800
01E000
07C000
1F0000
7C0000
F00000
7C0000
1F0000
07C000
01E000
007800
001E00
000780
000180
000000
FFFF80
FFFF80
ENDCHAR
STARTCHAR greaterequal
ENCODING 8805
SWIDTH 675 0
DWIDTH 23 0
BBX 17 20 1 -3
BITMAP
C00000
F00000
3C0000
0F0000
03C000
01F000
007C00
001F00
000780
001F00
007C00
01F000
03C000
0F0000
3C0000
F00000
C00000
000000
FFFF80
FFFF80
ENDCHAR
STARTCHAR uni226E
ENCODING 8814
SWIDTH 675 0
DWIDTH 23 0
BBX 17 24 3 -3
BITMAP
000C00
001800
001800
001800
003180
003780
003E00
007800
01E000
07E000
1FC000
7CC000
F0C000
7D8000
1F8000
07C000
01E000
037800
031E00
030780
060180
060000
060000
0C0000
ENDCHAR
STARTCHAR uni226F
ENCODING 8815
SWIDTH 675 0
DWIDTH 23 0
BBX 17 24 1 -3
BITMAP
000C00
001800
001800
001800
C03000
F03000
3C3000
0F6000
03E000
01F000
00FC00
00DF00
00C780
019F00
01FC00
01F000
03C000
0F0000
3F0000
F30000
C60000
060000
060000
0C0000
ENDCHAR
STARTCHAR uni2270
ENCODING 8816
SWIDTH 675 0
DWIDTH 23 0
BBX 17 24 3 -5
BITMAP
000C00
001800
001980
001F80
003E00
007800
01F000
07E000
1F6000
7C6000
F0C000
7CC000
1FC000
07C000
01E000
01F800
019E00
030780
030180
030000
FFFF80
FFFF80
060000
0C0000
ENDCHAR
STARTCHAR uni2271
ENCODING 8817
SWIDTH 675 0
DWIDTH 23 0
BBX 17 24 1 -5
BITMAP
000C00
001800
C01800
F01800
3C3000
0F3000
03F000
01F000
007C00
007F00
00C780
00DF00
00FC00
01F000
03C000
0F8000
3D8000
F30000
C30000
030000
FFFF80
FFFF80
060000
0C0000
ENDCHAR
STARTCHAR fi
ENCODING -1
SWIDTH 500 0
DWIDTH 16 0
BBX 20 30 -4 -7
BITMAP
0003C0
0006E0
000CE0
001CC0
001800
003800
003000
003000
03FFF0
007070
006070
006060
00E0E0
00E0E0
00E0C0
00C1C0
01C1C0
01C1C0
01C180
018390
0183A0
0383E0
0381C0
030000
030000
070000
660000
EE0000
EC0000
780000
ENDCHAR
STARTCHAR fl
ENCODING -1
SWIDTH 500 0
DWIDTH 16 0
BBX 22 30 -5 -7
BITMAP
0003FC
00067C
000C3C
001818
001838
003838
003030
003030
03FFF0
006070
006060
0060E0
00E0E0
00E0C0
00E0C0
00C1C0
01C1C0
01C180
01C180
018390
0183A0
0383E0
0381C0
030000
030000
070000
660000
EE0000
EC0000
780000
ENDCHAR
ENDFONT
